<svg xmlns="http://www.w3.org/2000/svg" xmlns:xlink="http://www.w3.org/1999/xlink" width="24px" height="24px" viewBox="0 0 24 24"><defs><path id="a" d="M12,4 C7.58881817,4 4,7.58881817 4,12 C4,16.4108596 7.58881817,20 12,20 C16.4108596,20 20,16.4108596 20,12 C20,7.58881817 16.4115041,4 12,4 Z M13.9895271,12.2816402 L12.6879884,12.2816402 C12.6879884,14.3610731 12.6879884,16.9206477 12.6879884,16.9206477 L10.7593652,16.9206477 C10.7593652,16.9206477 10.7593652,14.3858858 10.7593652,12.2816402 L9.84258439,12.2816402 L9.84258439,10.6420688 L10.7593652,10.6420688 L10.7593652,9.58156771 C10.7593652,8.82204141 11.1202771,7.63522114 12.7057118,7.63522114 L14.1348586,7.64069927 L14.1348586,9.23225651 C14.1348586,9.23225651 13.2664142,9.23225651 13.097559,9.23225651 C12.9287038,9.23225651 12.6886329,9.31668412 12.6886329,9.67888504 L12.6886329,10.642391 L14.1580601,10.642391 L13.9895271,12.2816402 Z"/></defs><g fill="none" fill-rule="evenodd"><mask id="b" fill="#fff"><use xlink:href="#a"/></mask><use fill="#FFF" fill-rule="nonzero" xlink:href="#a"/><g fill="#ECEFF1" mask="url(#b)"><rect width="24" height="24"/></g></g></svg>