<svg xmlns="http://www.w3.org/2000/svg" xmlns:xlink="http://www.w3.org/1999/xlink" width="24px" height="24px" viewBox="0 0 24 24"><defs><path id="a" d="M13.53125,12 C13.53125,12.8457031 12.8457031,13.53125 12,13.53125 C11.1542969,13.53125 10.46875,12.8457031 10.46875,12 C10.46875,11.1542969 11.1542969,10.46875 12,10.46875 C12.8457031,10.46875 13.53125,11.1542969 13.53125,12 Z M15.5810547,9.2907715 C15.644043,9.45263672 15.7188721,9.69592284 15.7392578,10.1437988 C15.7613525,10.6281738 15.7659912,10.7734375 15.7659912,12.0001221 C15.7659912,13.2266846 15.7613525,13.3719482 15.7392578,13.8564453 C15.71875,14.3043213 15.6439209,14.5474853 15.5810547,14.7093506 C15.4265137,15.1099853 15.1098633,15.4266357 14.7092285,15.5811767 C14.5473633,15.644165 14.3040772,15.7189941 13.8562012,15.7393799 C13.3719482,15.7614746 13.2266846,15.7661133 11.9998779,15.7661133 C10.7731934,15.7661133 10.6280517,15.7614746 10.1436767,15.7393799 C9.69580078,15.7189941 9.45251466,15.644165 9.29064941,15.5811767 C9.09106444,15.5075684 8.91064453,15.3901367 8.76245119,15.2375488 C8.60986328,15.0893555 8.49255372,14.9089356 8.41882325,14.7093506 C8.35595703,14.5474853 8.28112794,14.3043213 8.26074219,13.8564453 C8.23864747,13.3719482 8.23388672,13.2266846 8.23388672,12.0001221 C8.23388672,10.7734375 8.23864747,10.6281738 8.26074219,10.1437988 C8.28112794,9.69592284 8.35595703,9.45263672 8.41882325,9.2907715 C8.49255372,9.09118653 8.60998534,8.91076659 8.76257325,8.76257325 C8.91064453,8.60998534 9.09118653,8.49255372 9.2907715,8.41894531 C9.45251466,8.35607909 9.69580078,8.28125 10.1436767,8.26074219 C10.6280517,8.23864747 10.7733154,8.23400878 12,8.23400878 C13.2265625,8.23400878 13.3718262,8.23876953 13.8563232,8.26086425 C14.3041992,8.28125 14.5473633,8.35607909 14.7092285,8.41894531 C14.9088135,8.49255372 15.0892334,8.60998534 15.2374267,8.76257325 C15.3900147,8.91076659 15.5074463,9.09130859 15.5810547,9.2907715 Z M12,14.3588867 C13.3027344,14.3588867 14.3588867,13.3028564 14.3588867,12 C14.3588867,10.6971436 13.3027344,9.64111328 12,9.64111328 C10.6971436,9.64111328 9.64099122,10.6971436 9.64099122,12 C9.64099122,13.3028564 10.6971436,14.3588867 12,14.3588867 Z M14.4521484,10.0991211 C14.7565918,10.0991211 15.0032959,9.85229494 15.003418,9.54785156 C15.003418,9.24340819 14.7565918,8.99658203 14.4521484,8.99658203 C14.1477051,8.99658203 13.9008789,9.24340819 13.9008789,9.54785156 C13.9008789,9.85229494 14.1477051,10.0991211 14.4521484,10.0991211 Z M12,4 C16.4176025,4 20,7.58239747 20,12 C20,16.4176025 16.4176025,20 12,20 C7.58239747,20 4,16.4176025 4,12 C4,7.58239747 7.58239747,4 12,4 Z M16.56604,13.8939209 C16.588501,13.4040528 16.59375,13.2475586 16.59375,12 C16.59375,10.7524414 16.588501,10.5959473 16.5661621,10.1060791 C16.5438232,9.61706544 16.4661865,9.28320313 16.3525391,8.99096681 C16.2373047,8.68444825 16.0563965,8.40686034 15.8227539,8.17736816 C15.5932617,7.9436035 15.3155517,7.76269531 15.0090332,7.64733888 C14.7167969,7.53393556 14.3829346,7.45629881 13.8939209,7.43408203 C13.4040527,7.41162109 13.2475586,7.40625 12,7.40625 C10.7524414,7.40625 10.5959473,7.41162109 10.1060791,7.43395997 C9.61706544,7.45629881 9.28320312,7.53393556 8.99096681,7.64746094 C8.68444825,7.76281738 8.40673828,7.9436035 8.17736816,8.17736816 C7.9436035,8.40673828 7.76269531,8.68444825 7.64733888,8.99096681 C7.53381347,9.28320313 7.45617675,9.61706544 7.43395997,10.1060791 C7.41149903,10.5959473 7.40625,10.7524414 7.40625,12 C7.40625,13.2475586 7.41149903,13.4040528 7.43408203,13.894043 C7.45629881,14.3829346 7.53405763,14.7169189 7.647583,15.0090332 C7.76293944,15.3155518 7.94372559,15.5932617 8.17736816,15.8226318 C8.40686034,16.0563965 8.68444825,16.2371826 8.99108888,16.3525391 C9.28320312,16.4660644 9.6171875,16.5437012 10.1060791,16.56604 C10.5960693,16.5883789 10.7524414,16.59375 12.0001221,16.59375 C13.2476807,16.59375 13.4041748,16.5883789 13.894043,16.56604 C14.3829346,16.5437012 14.7169189,16.4660644 15.0090332,16.3525391 C15.6260986,16.1138916 16.1138916,15.6260986 16.3525391,15.0090332 C16.4660644,14.7167969 16.5438232,14.3829346 16.56604,13.8939209 Z"/></defs><g fill="none" fill-rule="evenodd"><mask id="b" fill="#fff"><use xlink:href="#a"/></mask><use fill="#FFF" xlink:href="#a"/><g fill="#ECEFF1" mask="url(#b)"><rect width="24" height="24"/></g></g></svg>