<svg xmlns="http://www.w3.org/2000/svg" xmlns:xlink="http://www.w3.org/1999/xlink" width="24px" height="24px" viewBox="0 0 24 24"><defs><path id="a" d="M13.392,10.81536 C14.23456,10.81536 14.86656,11.36608 14.8672,12.5488 L14.8672,14.7584 L14.86688,14.7584 L13.58624,14.7584 L13.58624,12.69696 C13.58624,12.17856 13.40096,11.82528 12.9376,11.82528 C12.58368,11.82528 12.37312,12.06368 12.28032,12.29408 C12.24576,12.37632 12.2384,12.49184 12.2384,12.60672 L12.2384,14.75936 L10.95776,14.75936 C10.95776,14.75936 10.9744,11.2672 10.95776,10.90624 L12.2384,10.90624 L12.2384,11.45152 C12.40832,11.18912 12.712,10.81536 13.392,10.81536 Z M8.96736,10.90624 L10.248,10.90624 L10.248,14.75936 L8.96736,14.75936 L8.96736,10.90624 Z M11.94432,4 C16.32512,4 19.88864,7.56384 19.88864,11.94432 C19.88864,16.32448 16.32448,19.88864 11.94432,19.88864 C7.56384,19.88864 4,16.32448 4,11.94432 C4,7.56384 7.56384,4 11.94432,4 Z M16.15712,15.5376 L16.15712,8.22752 C16.15712,7.89024 15.87648,7.61632 15.53024,7.61632 L8.30432,7.61632 C7.95872,7.61632 7.67808,7.88992 7.67808,8.22752 L7.67808,15.5376 C7.67808,15.87552 7.95872,16.1488 8.30432,16.1488 L15.53024,16.1488 C15.8768,16.1488 16.15712,15.87552 16.15712,15.5376 Z M9.61632,9.04864 C10.05472,9.04864 10.32384,9.33632 10.33248,9.71424 C10.33248,10.08384 10.0544,10.37984 9.60768,10.37984 L9.59936,10.37984 C9.16992,10.37984 8.89184,10.08384 8.89184,9.71424 C8.89184,9.336 9.17856,9.04864 9.61632,9.04864 Z"/></defs><g fill="none" fill-rule="evenodd"><mask id="b" fill="#fff"><use xlink:href="#a"/></mask><use fill="#FFF" fill-rule="nonzero" xlink:href="#a"/><g fill="#ECEFF1" mask="url(#b)"><rect width="24" height="24"/></g></g></svg>