<svg width="29" height="48" viewBox="0 0 29 48" fill="none" xmlns="http://www.w3.org/2000/svg">
<path d="M27.125 1.95834C26.7395 1.57208 26.2817 1.26563 25.7776 1.05654C25.2736 0.847448 24.7332 0.739822 24.1875 0.739822C23.6418 0.739822 23.1015 0.847448 22.5974 1.05654C22.0934 1.26563 21.6355 1.57208 21.25 1.95834L2.12501 21.0833C1.73875 21.4688 1.4323 21.9267 1.22321 22.4307C1.01412 22.9348 0.906494 23.4751 0.906494 24.0208C0.906494 24.5665 1.01412 25.1069 1.22321 25.6109C1.4323 26.115 1.73875 26.5729 2.12501 26.9583L21.25 46.0833C21.6358 46.4691 22.0937 46.7751 22.5977 46.9839C23.1018 47.1926 23.642 47.3001 24.1875 47.3001C24.7331 47.3001 25.2733 47.1926 25.7773 46.9839C26.2813 46.7751 26.7393 46.4691 27.125 46.0833C27.5108 45.6976 27.8168 45.2396 28.0255 44.7356C28.2343 44.2316 28.3418 43.6914 28.3418 43.1458C28.3418 42.6003 28.2343 42.0601 28.0255 41.5561C27.8168 41.0521 27.5108 40.5941 27.125 40.2083L10.9583 24L27.125 7.83334C28.7083 6.20834 28.7083 3.54167 27.125 1.95834Z" fill="#FF6600"/>
</svg>
