<svg width="29" height="48" viewBox="0 0 29 48" fill="none" xmlns="http://www.w3.org/2000/svg">
<path d="M1.79173 1.95835C1.40546 2.34383 1.09902 2.8017 0.889927 3.30575C0.680838 3.80981 0.573212 4.35015 0.573212 4.89585C0.573212 5.44156 0.680838 5.9819 0.889927 6.48595C1.09902 6.99001 1.40546 7.44788 1.79173 7.83335L17.9584 24L1.79173 40.1667C1.01266 40.9458 0.574976 42.0024 0.574976 43.1042C0.574976 44.206 1.01266 45.2626 1.79173 46.0417C2.5708 46.8208 3.62745 47.2584 4.72923 47.2584C5.83101 47.2584 6.88766 46.8208 7.66673 46.0417L26.7917 26.9167C27.178 26.5312 27.4844 26.0733 27.6935 25.5693C27.9026 25.0652 28.0102 24.5249 28.0102 23.9792C28.0102 23.4335 27.9026 22.8931 27.6935 22.3891C27.4844 21.885 27.178 21.4272 26.7917 21.0417L7.66673 1.91669C6.0834 0.333353 3.41673 0.333354 1.79173 1.95835Z" fill="#FF6600"/>
</svg>
