<svg width="15" height="40" viewBox="0 0 15 46" fill="none" xmlns="http://www.w3.org/2000/svg">
<path d="M1.39588 1.79439C1.20275 2.16381 1.04952 2.60262 0.944979 3.08569C0.840434 3.56875 0.786621 4.0866 0.786621 4.60958C0.786621 5.13256 0.840434 5.65041 0.944979 6.13348C1.04952 6.61655 1.20275 7.05535 1.39588 7.42478L9.47921 22.9183L1.39588 38.4119C1.00634 39.1585 0.787503 40.1712 0.787503 41.2271C0.787503 42.283 1.00634 43.2957 1.39588 44.0423C1.78542 44.7889 2.31374 45.2084 2.86463 45.2084C3.41552 45.2084 3.94384 44.7889 4.33338 44.0423L13.8959 25.7136C14.089 25.3441 14.2422 24.9053 14.3468 24.4223C14.4513 23.9392 14.5051 23.4214 14.5051 22.8984C14.5051 22.3754 14.4513 21.8575 14.3468 21.3745C14.2422 20.8914 14.089 20.4526 13.8959 20.0832L4.33338 1.75445C3.54171 0.237042 2.20838 0.237043 1.39588 1.79439Z" fill="#9BA7B5"/>
</svg>
