<svg xmlns="http://www.w3.org/2000/svg" xmlns:xlink="http://www.w3.org/1999/xlink" width="24px" height="24px" viewBox="0 0 24 24"><defs><path id="a" d="M12,21 C16.97175,21 21,16.97175 21,12 C21,7.02825 16.97175,3 12,3 C7.02825,3 3,7.02825 3,12 C3,16.97175 7.02825,21 12,21 Z M7.11825,11.805 L15.79575,8.45925 C16.1985,8.31375 16.55025,8.5575 16.41975,9.1665 L16.4205,9.16575 L14.943,16.1265 C14.8335,16.62 14.54025,16.74 14.13,16.5075 L11.88,14.84925 L10.79475,15.89475 C10.67475,16.01475 10.5735,16.116 10.341,16.116 L10.50075,13.82625 L14.67075,10.059 C14.85225,9.89925 14.63025,9.80925 14.391,9.96825 L9.23775,13.21275 L7.01625,12.51975 C6.534,12.36675 6.5235,12.0375 7.11825,11.805 Z"/></defs><g fill="none" fill-rule="evenodd"><mask id="b" fill="#fff"><use xlink:href="#a"/></mask><use fill="#FFF" fill-rule="nonzero" xlink:href="#a"/><g fill="#ECEFF1" mask="url(#b)"><rect width="24" height="24"/></g></g></svg>