<svg xmlns="http://www.w3.org/2000/svg" xmlns:xlink="http://www.w3.org/1999/xlink" width="24px" height="24px" viewBox="0 0 24 24"><defs><path id="a" d="M12,4 C7.58881817,4 4,7.58881817 4,12 C4,16.4108596 7.58881817,20 12,20 C16.4108596,20 20,16.4108596 20,12 C20,7.58881817 16.4115041,4 12,4 Z M15.5688391,10.1690164 C15.5723838,10.2482881 15.5743172,10.3282043 15.5743172,10.4081205 C15.5743172,12.841376 13.7227101,15.6461774 10.3349714,15.6461774 C9.29509385,15.6461774 8.32707645,15.3423024 7.51244663,14.8196246 C7.65648916,14.8367035 7.80310964,14.845404 7.95166358,14.845404 C8.81462982,14.845404 9.60831386,14.5508741 10.2386208,14.0571981 C9.43301378,14.0423749 8.7527592,13.5100298 8.51848868,12.7782164 C8.63062918,12.7994844 8.74631435,12.8114074 8.86457746,12.8114074 C9.03246596,12.8114074 9.19552082,12.7894949 9.34987513,12.7472811 C8.50753243,12.5784258 7.87303633,11.8343672 7.87303633,10.9417546 C7.87303633,10.9340208 7.87303633,10.9259647 7.87335858,10.9185531 C8.12148554,11.0561508 8.40538145,11.1392895 8.70700073,11.1486345 C8.21332474,10.8189801 7.88818174,10.2550552 7.88818174,9.61636993 C7.88818174,9.27865947 7.97873197,8.96221703 8.13727544,8.6902441 C9.04503343,9.80455974 10.4023201,10.5373399 11.932329,10.6146782 C11.9007492,10.4796584 11.8849593,10.3394828 11.8849593,10.1947958 C11.8849593,9.17811971 12.7092564,8.35350036 13.7259325,8.35350036 C14.2556997,8.35350036 14.7335858,8.57713687 15.0700073,8.93482639 C15.4898896,8.85233223 15.8830259,8.69958914 16.2397487,8.48787561 C16.1011842,8.91806977 15.810199,9.27865947 15.4289857,9.50680738 C15.8018207,9.46233787 16.1575767,9.36373157 16.4865866,9.21711109 C16.2410376,9.58575687 15.9287843,9.91025538 15.5688391,10.1690164 Z"/></defs><g fill="none" fill-rule="evenodd"><mask id="b" fill="#fff"><use xlink:href="#a"/></mask><use fill="#FFF" fill-rule="nonzero" xlink:href="#a"/><g fill="#ECEFF1" mask="url(#b)"><rect width="24" height="24"/></g></g></svg>