<svg xmlns="http://www.w3.org/2000/svg" xmlns:xlink="http://www.w3.org/1999/xlink" width="24px" height="24px" viewBox="0 0 24 24"><defs><path id="a" d="M6.66666667,9.66422529 L6.66666667,6.66666667 L9.2689616,8.16544598 L6.66666667,9.66422529 Z M8,0 C12.4176025,0 16,3.58239747 16,8 C16,12.4176025 12.4176025,16 8,16 C3.58239747,16 0,12.4176025 0,8 C0,3.58239747 3.58239747,0 8,0 Z M12.9987793,8.00817872 C12.9987793,8.00817872 13.0070801,6.37768556 12.7929688,5.59533691 C12.6776123,5.16711425 12.3399658,4.82934569 11.9117432,4.71411131 C11.1293945,4.5 8,4.5 8,4.5 C8,4.5 4.87060547,4.5 4.08825684,4.70593263 C3.66821288,4.821167 3.32226562,5.16711425 3.20703125,5.59533691 C3.00109863,6.37768556 3.00109863,8 3.00109863,8 C3.00109863,8 3.00109863,9.63061525 3.20703125,10.4046631 C3.32238769,10.8328858 3.66003419,11.1706543 4.08825684,11.2858887 C4.87878419,11.5 8,11.5 8,11.5 C8,11.5 11.1293945,11.5 11.9117432,11.2940674 C12.3399658,11.178833 12.6776123,10.8411865 12.7929688,10.4129639 C12.9987793,9.63061525 12.9987793,8.00817872 12.9987793,8.00817872 Z"/></defs><g fill="none" fill-rule="evenodd"><g transform="translate(4.000000, 4.000000)"><mask id="b" fill="#fff"><use xlink:href="#a"/></mask><use fill="#FFF" xlink:href="#a"/><g fill="#ECEFF1" mask="url(#b)"><g transform="translate(-4.000000, -4.000000)"><rect width="24" height="24"/></g></g></g></g></svg>