<svg width="136" height="32" viewBox="0 0 136 32" xmlns="http://www.w3.org/2000/svg" xmlns:xlink="http://www.w3.org/1999/xlink"><g id="Logos/CreditCards/bancodebrasil" stroke="none" stroke-width="1" fill="none" fill-rule="evenodd"><g id="bancodebr" transform="translate(3.500000, 4.500000)" fill-rule="nonzero"><path id="path10055" fill="#fde100" d="M.0453256604 22.6292378H128.828373V.038792588H.0453256604z"/><path d="M6.05012431 8.50773105 9.45583456 10.860214 13.5465125 8.03723448 11.8436705 6.85766801 14.0586552 5.33353486 18.8279291 8.62699734 10.9922364 14.0343966 12.6950915 15.2139495 22.4128755 8.50773105 14.2314933 2.86175851 6.05012431 8.50773105zM22.4128755 14.1536765 19.0007804 11.8012071 14.9100762 14.624173 16.6129313 15.7970895 14.3979335 17.3278727 9.62868581 14.0343966 17.4643654 8.62699734 15.7614972 7.44745805 6.05012431 14.1536765 14.2314933 19.7996355 22.4128755 14.1536765zm0-8.939435079999999L20.7036224 6.39380787 19.0007804 5.21424142 22.4128755 2.86175851V5.21424142zM6.05012431 17.4471526 7.7529663 16.2675997 9.45583456 17.4471526 6.05012431 19.7996355V17.4471526z" id="path10057" fill="#003882"/><path d="M30.1461345 16.9700331C31.2152191 16.9700331 33.8719158 16.8440896 33.8719158 13.9880093 33.8719158 12.4373709 33.4045986 11.3572157 31.6121188 11.1252788 32.9820936 10.8469546 33.6670614 9.90596147 33.6670614 8.6071151 33.6670614 6.20162197 32.0858472 5.68475159 30.1589305 5.68475159H25.6841487V16.9700331H30.1461345zm80.3093435.0C111.953492 16.9700331 113.464289 16.7646014 113.464289 14.372354 113.464289 11.6090212 109.59766 11.8873454 109.59766 10.1312619 109.59766 9.49509801 109.975352 9.15051778 110.609123 9.15051778H112.683286V7.72576868H109.770498C107.382662 7.72576868 106.793717 8.84568841 106.793717 10.2903062c0 2.7500734 4.282736 2.6838174000000006 4.282736 4.2344557C111.076453 15.1476799 110.749958 15.5717891 110.090595 15.5717891H107.024163L104.751557 7.73240511H102.030854L99.5149788 16.1416969 97.9337515 12.5235092C99.0924613 12.3048317 99.5533932 11.5427516 99.5597915 10.1511441 99.5597915 8.5739871 98.6507489 7.73240511 97.248771 7.73240511H92.9916397V16.9700331H95.3154563V9.15051778H96.0900618C96.7430391 9.15051778 97.3127904 9.64750591 97.3127904 10.5553711 97.3127904 11.3240877 96.9414957 11.9602515 96.3461395 11.920487L95.6931621 11.9272728 97.8121239 16.9701959H101.537918L102.09486 14.9225424H104.501903L105.052447 16.9701959 110.455478 16.9700331zM104.149816 13.5108897H102.427754L103.247172 9.72703489 104.149816 13.5108897zM78.22931 17.2417344C81.7054374 17.2417344 81.7054374 14.849487 81.7054374 12.3976065 81.7054374 9.91258435 81.7054374 7.54684209 78.22931 7.54684209 74.7531954 7.54684209 74.7531954 9.91258435 74.7531954 12.3976065 74.7531954 14.849487 74.7531954 17.2417344 78.22931 17.2417344zM78.22931 15.836854C77.2114486 15.836854 77.0770114 14.8030996 77.0770114 12.3976065 77.0770114 9.99211332 77.2113964 8.95172251 78.22931 8.95172251 79.2471842 8.95172251 79.3752231 9.99211332 79.3752231 12.3976065 79.3752231 14.8030996 79.2472627 15.836854 78.22931 15.836854zM67.1927876 16.9700331H70.5856885C74.1450297 16.9700331 73.9081592 13.7096986 73.9081592 12.2849495 73.9081592 9.40232328 73.3960297 7.70588643 70.6689022 7.70588643H67.1927876V16.9700331zM69.4589826 9.1438949H70.374423C71.6227571 9.1438949 71.6227571 10.6481594 71.6227571 12.3512055 71.6227571 14.6771969 71.4051062 15.5651798 70.3168148 15.5651798H69.4589826V9.1438949zM87.4925726 12.0463898H88.0559255C89.1442175 12.0463898 89.4899067 12.6626713 89.4899067 13.6566883 89.4899067 15.2404547 88.4592363 15.253714 87.9983173 15.253714H86.8011937V12.066272L87.4925726 12.0463898zM86.8011937 10.3234342V7.44082156H88.1327544C88.8625343 7.44082156 89.3746768 8.04385735 89.3746768 8.87881646 89.3746768 9.97223108 88.7153011 10.3101884 88.2479709 10.3101884H87.4925726L86.8011937 10.3234342zM88.5104468 16.976656C89.5795316 16.976656 92.2362413 16.8507125 92.2362413 13.9880093 92.2362413 12.4373709 91.7689111 11.363825 89.9828425 11.1252788 91.3528042 10.8469546 92.0377848 9.90596147 92.0377848 8.6071151 92.0377848 6.20162197 90.4501598 5.68475159 88.5296541 5.68475159H84.0484612V16.976656H88.5104468zM122.829973 16.9698702V15.5716398H120.179674V7.73225584H117.913466V16.9698702H122.829973zM116.581905 7.73225584H114.309312V16.9698702H116.581905V7.73225584zM61.2520081 17.2415715C64.7281227 17.2415715 64.7281227 14.8427013 64.7281227 12.3775749 64.7281227 9.87929347 64.7281227 7.5069419 61.2520081 7.5069419 57.7822784 7.5069419 57.7822784 9.87929347 57.7822784 12.3775749 57.7822784 14.8427013 57.7822784 17.2415715 61.2520081 17.2415715zm0-1.4048667999999989C60.2341339 15.8367047 60.1061085 14.7896774 60.1061085 12.3775749 60.1061085 9.95882244 60.2340683 8.91843163 61.2520081 8.91843163 62.2698695 8.91843163 62.4043067 9.95882244 62.4043067 12.3775749 62.4043067 14.7896774 62.2699222 15.8367047 61.2520081 15.8367047zM38.7884227 13.504104H37.0599756L37.8793934 9.72688556 38.7884227 13.504104zM36.1701403 16.9698702 36.7334802 14.9222302H39.1405233L39.6910803 16.9698702H42.066094L39.383792 7.73225584H36.6694738L33.9295373 16.9698702h2.240603zM53.9924778 17.2415715C55.9641937 17.2415715 57.116505 16.433104 57.116505 13.9149674H54.8694908C54.843925 14.6571518 54.8312077 15.8367047 53.9924778 15.8367047 53.038623 15.8367047 52.8977749 15.2336689 52.8977749 12.3775749 52.8977749 9.41543332 53.1154385 8.91843163 53.9476524 8.91843163 54.5430217 8.91843163 54.8118956 9.38229177 54.8118956 10.6413736H57.0460873C57.1293403 8.61360232 56.0410225 7.5069419 53.890044 7.5069419 50.6891883 7.5069419 50.5995767 9.61422859 50.5995767 12.3775749 50.5995767 15.1541671 50.5163239 17.2415715 53.9924778 17.2415715zM44.5243475 16.9698702V10.8136637L47.0018081 16.9698702H49.6841231V7.73225584H47.7508084V13.7029129L45.3373672 7.73225584H42.5910458V16.9698702H44.5243475zM28.9746161 12.0329676H29.3267166C30.6582771 12.0329676 31.0807821 12.6426398 31.0807821 13.6432661 31.0807821 15.2204231 29.8196522 15.2336689 29.2562991 15.2336689H28.4304702V12.0462405L28.9746161 12.0329676zM28.4304702 10.3034027V7.42079004H29.4163282C30.3125746 7.42079004 30.939934 8.03044871 30.939934 8.8587849 30.939934 9.95218595 30.1333253 10.2967934 29.5571763 10.2967934H28.6289398L28.4304702 10.3034027z" id="path10059" fill="#003882"/></g></g></svg>