<svg width="66" height="32" viewBox="0 0 66 32" xmlns="http://www.w3.org/2000/svg" xmlns:xlink="http://www.w3.org/1999/xlink"><g id="Logos/CreditCards/Boleto" stroke="none" stroke-width="1" fill="none" fill-rule="evenodd"><g id="boleto" transform="translate(4.000000, 2.728814)" fill="#000" fill-rule="nonzero"><path d="M3.98554263 11.3922875H6.72757161V.0349785795H3.98554263V11.3922875zm3.6061084300000004.0H8.4414667V.0349785795H7.59161042V11.3922875H7.59165106zM9.1820888 11.3922875H10.7029548V.0349785795H9.1820888V11.3922875zm2.987358799999999.0H13.0193038V.0349785795H12.1694476V11.3922875zm1.2191310000000009.0h.6547953V.0349785795h-.6547953V11.3922875zM1.90034085 25.6719239H2.7501565V.0349785795H1.90034085V25.6719239zm-1.8739263437.0H1.54728051V.0349785795H.0264145063V25.6719239zM18.5851248 11.3922875H21.3271537V.0349785795H18.5851248V11.3922875zm3.6061085000000013.0H23.0410895V.0349785795H22.1912333V11.3922875zm1.590478300000001.0H25.3025776V.0349785795H23.7817116V11.3922875zm2.987358799999999.0H27.6183983V.0349785795H26.7685421V11.3922875H26.7690704zm1.2191310999999985.0H28.6429967V.0349785795H27.9882015V11.3922875zm-11.4882785.0H17.3497793V.0349785795H16.499923V11.3922875zM14.6260373 11.3922875H16.1469033V.0349785795H14.6260373V11.3922875zm15.0943461.0H31.2417777V.0349785795H29.7203834V11.3922875zm2.9873589000000003.0H33.5575984V.0349785795H32.7077423V11.3922875zm1.2196593000000036.0H34.5821969V.0349785795H33.9274016V11.3922875zm3.110816.0H37.888074V.0349785795H37.0382176V11.3922875zM35.164332 11.3922875H36.6851573V.0349785795H35.1642913V11.3922875H35.164332zm3.8529417999999964.0H39.86713V.0349785795H39.0172738V11.3922875zm1.2196593000000036.0H40.8916879V.0349785795H40.2368924V11.3922875H40.2369331zm3.110816199999995.0H44.1975647V.0349785795H43.3477087V11.3922875H43.3477493zM41.474351 11.3922875H42.9952173V.0349785795H41.474351V11.3922875zm3.4638357999999982.0H47.680216V.0349785795H44.9381868V11.3922875zm3.6065961000000044.0H49.3946393V.0349785795H48.5447829V11.3922875zm1.5899502999999982.0H51.655599V.0349785795H50.1347332V11.3922875zm2.987886699999997.0H53.9724763V.0349785795H53.1226199V11.3922875zm1.219131400000002.0H54.9965464V.0349785795H54.3417513V11.3922875zM56.0739333 25.6719239H57.5953277V.0349785795H56.0739333V25.6719239z" id="Shape"/><path d="M4.11911877 25.1788964V12.1785918H9.00429885C9.99837831 12.1785918 10.7954056 12.3084427 11.3983471 12.5722023 11.9982815 12.8354344 12.4681347 13.2407315 12.8074595 13.7885398 13.1498321 14.3333048 13.3194945 14.9049327 13.3194945 15.5045191 13.3194945 16.0584143 13.1681191 16.5818756 12.8679284 17.0718598 12.5676971 17.5623309 12.1135707 17.9584978 11.5045335 18.2612938 12.2923766 18.4910893 12.8984067 18.8846997 13.3195351 19.4416383 13.7436709 19.9955333 13.9560029 20.651889 13.9560029 21.4086761 13.9560029 22.019868 13.8259622 22.5859367 13.5679128 23.1093979 13.3103917 23.6328594 12.9924017 24.035113 12.6134551 24.3196488 12.2345085 24.6011815 11.7590474 24.8157196 11.1891036 24.9613148 10.616112 25.1063826 9.91612761 25.1794238 9.08610256 25.1794238H4.11911877V25.1788964zM5.84674939 17.6434877H8.66192623C9.42542736 17.6434877 9.97403634 17.5917502 10.3047053 17.4923332 10.7440802 17.3624823 11.0742615 17.1443734 11.2952493 16.8420643 11.5167248 16.5392277 11.6289661 16.1613617 11.6289661 15.7043272 11.6289661 15.2716803 11.5258683 14.8902433 11.3170718 14.5635872 11.1108354 14.2338878 10.8141802 14.0066487 10.429138 13.8854005 10.0440957 13.7646797 9.3832454 13.7038121 8.45008188 13.7038121H5.84674939V17.6434877v0zm0 6.010188299999999H9.08963802C9.6473905 23.653676 10.0380001 23.6323317 10.2656118 23.590252 10.6597976 23.5207412 10.9930267 23.402577 11.2596913 23.2362054 11.5263559 23.0698339 11.7447836 22.827865 11.9170061 22.5098522 12.0897164 22.1923262 12.1745273 21.8261061 12.1745273 21.4111919 12.1745273 20.9242512 12.0505823 20.5032504 11.7986285 20.1431171 11.5502509 19.7829838 11.2048304 19.5318845 10.7623671 19.3868168 10.3229923 19.241749 9.68648399 19.1687079 8.85901906 19.1687079H5.84674939V23.653676v0zM15.5200261 20.4667297C15.5200261 18.7269308 16.005159 17.4375523 16.9779443 16.5996084 17.7871222 15.9036889 18.7781945 15.5557291 19.9449842 15.5557291 21.2388074 15.5557291 22.2994514 15.9792864 23.1238684 16.8268474 23.9452377 17.6714056 24.3572228 18.8420923 24.3572228 20.3338355 24.3572228 21.5445731 24.175369 22.4946353 23.8116615 23.1875114 23.4479541 23.8803874 22.9176321 24.4190657 22.2206954 24.8035462 21.5268068 25.1875395 20.7658658 25.378258 19.9449842 25.378258 18.6237307 25.378258 17.5569909 24.957744 16.7417173 24.1132263 15.9264031 23.2691958 15.5200261 22.0523307 15.5200261 20.4667297v0zM17.1567095 20.4697732C17.1567095 21.6744647 17.420367 22.5757921 17.9476411 23.1722944 18.4779632 23.7713534 19.1418613 24.071106 19.9449842 24.071106 20.7389636 24.071106 21.3998139 23.7718404 21.9296076 23.1692511 22.4568819 22.5671489 22.7210268 21.6500771 22.7210268 20.4185633 22.7210268 19.2564791 22.4543624 18.3759278 21.9240403 17.7799528 21.39319 17.180894 20.7328273 16.8811413 19.9449842 16.8811413 19.141902 16.8811413 18.4779632 17.1778506 17.9476411 17.7738661 17.420367 18.369841 17.1567095 19.2686526 17.1567095 20.4697732v0zM26.1966071 25.1788964H27.7967166V12.1785918H26.1966071V25.1788964zm10.5129734-3.0504812L38.3640227 22.3459966C38.1065015 23.3051888 37.6244166 24.0528457 36.9213842 24.5823939 36.2183521 25.1119419 35.3212748 25.378258 34.2271046 25.378258 32.8515183 25.378258 31.7603961 24.9547006 30.9542661 24.107099 30.1480952 23.2630683 29.7452944 22.0736343 29.7452944 20.5453302 29.7452944 18.965816 30.1511432 17.7373049 30.9664573 16.8658838 31.781731 15.9914193 32.8393271 15.5557291 34.1392458 15.5557291 35.3969827 15.5557291 36.4241008 15.9822892 37.2210873 16.8390209 38.0181146 17.6952251 38.4178677 18.8998761 38.4178677 20.4519998 38.4178677 20.5458577 38.4148198 20.687882 38.4092525 20.8755571H31.3814496C31.4419185 21.9072629 31.7329656 22.700043 32.2602399 23.2478515 32.7844662 23.7956598 33.4423094 24.071106 34.2271046 24.071106 34.8122876 24.071106 35.3121314 23.9169082 35.7241164 23.6079847 36.1396368 23.2995889 36.467258 22.8060745 36.7095805 22.1284152v0zM31.4728845 19.5679183H36.7278675C36.6577268 18.7750974 36.4550666 18.1821659 36.1243978 17.7855121 35.6184582 17.1712768 34.9575672 16.8623535 34.1483488 16.8623535 33.4148382 16.8623535 32.8002337 17.1078528 32.2998615 17.597837 31.8030657 18.0883486 31.5272171 18.7451912 31.4728845 19.5679183v0zM43.8587684 23.75358 44.0766677 25.1636793C43.6281496 25.2575372 43.2253079 25.3057038 42.8737916 25.3057038 42.2947043 25.3057038 41.8466738 25.2149299 41.5251076 25.0302983 41.2071582 24.8456665 40.9825944 24.6067408 40.8525538 24.3069882 40.7220253 24.007682 40.6585492 23.3782299 40.6585492 22.4185508V16.9896479H39.4764799V15.7550502H40.6585087V13.4248356L42.2586587 12.465684v3.2893662H43.8587684V16.9896479H42.2586587V22.5093247C42.2586587 22.9663591 42.2860892 23.259538 42.3434695 23.3898759 42.397843 23.5202543 42.4887493 23.6232016 42.6162708 23.7018426 42.743751 23.7773995 42.9256046 23.8164765 43.1618318 23.8164765 43.3375493 23.8170041 43.5707283 23.7957005 43.8587684 23.75358v0zM44.8376087 20.4667297C44.8376087 18.7269308 45.3227416 17.4375523 46.2954863 16.5996084 47.1047045 15.9036889 48.0957366 15.5557291 49.2625666 15.5557291 50.5563493 15.5557291 51.6169933 15.9792864 52.4419386 16.8268474 53.2633081 17.6714056 53.6752929 18.8420923 53.6752929 20.3338355 53.6752929 21.5445731 53.4934393 22.4946353 53.1297316 23.1875114 52.7660244 23.8803874 52.2357022 24.4190657 51.5387659 24.8035462 50.844877 25.1875395 50.083936 25.378258 49.2630546 25.378258 47.9418007 25.378258 46.8750609 24.957744 46.0597878 24.1132263 45.2434981 23.2691958 44.8376087 22.0523307 44.8376087 20.4667297v0zM46.4742922 20.4697732C46.4742922 21.6744647 46.7379089 22.5757921 47.2651829 23.1722944 47.7955051 23.7713534 48.4594439 24.071106 49.262526 24.071106 50.0565055 24.071106 50.7173559 23.7718404 51.2476781 23.1692511 51.7744645 22.5671489 52.0386094 21.6500771 52.0386094 20.4185633 52.0386094 19.2564791 51.7719449 18.3759278 51.2416228 17.7799528 50.711301 17.180894 50.05041 16.8811413 49.2625666 16.8811413 48.4594439 16.8811413 47.7955457 17.1778506 47.2652239 17.7738661 46.7374213 18.369841 46.4742922 19.2686526 46.4742922 20.4697732v0z" id="Shape"/></g></g></svg>