<svg width="42" height="32" viewBox="0 0 42 32" xmlns="http://www.w3.org/2000/svg" xmlns:xlink="http://www.w3.org/1999/xlink"><g id="Logos/CreditCards/Bradesco" stroke="none" stroke-width="1" fill="none" fill-rule="evenodd"><g id="bradesco" transform="translate(8.000000, 0.500000)" fill-rule="nonzero"><path id="Shape" fill="#cc2229" d="M0 0H25.4774686V25.1653563H14.9400767V14.7397879H12.6303529V25.1653563H11.4033615V18.0473867H10.2487077V25.1653563H0z"/><path d="M.865886315 8.77201741C2.21291307 8.17311236 3.56010631 7.57387608 4.90771575 6.97447423 10.3176323-.537466162 17.3455292 2.30652555 19.8477924 5.89598141 14.0254937 2.18124651 9.7189537 4.07475691 7.57821172 6.61503183 23.9382354 4.9247169 28.0280957 14.847099 19.1981696 18.4786182 27.0167851 12.2231943 17.0808187 7.11821807 6.71224215 7.62148709 4.22146631 12.1989334 5.03907208 15.5783213 7.36161528 18.622362 4.85735417 16.7126225 3.19650398 13.9213755 4.54686043 7.98101228 3.31978582 8.24490149 2.0927112 8.50845943.865886315 8.77201741z" id="Path" fill="#fff"/><path d="M12.8536087 26.5908712v4.679955H11.8763442V30.8219579C10.7860367 31.9400299 9.642787 31.045357 9.60624365 29.4909197 9.66459648 28.0634176 10.6367 27.269266 11.8028412 28.1718051V26.5908712H12.8536087zM6.5857971 28.0468572C8.02946816 27.5020217 8.8001253 27.8003564 9.09363762 28.7871877 9.18029283 29.3790546 9.17921069 30.2199063 9.14882726 31.2762083 8.83092496 31.2736414 8.5129394 31.2710746 8.1952868 31.2688389v0L8.18013673 30.9343198C7.30276297 31.6699306 6.27397149 31.1760182 6.26423216 30.3094978 6.2527447 29.3010553 7.00592096 29.0114976 8.1342702 29.1029107 8.13193943 28.4173951 7.29352305 28.4809868 6.60128019 28.8675053 6.59586942 28.59368 6.59062515 28.3201858 6.5857971 28.0468572zM6.15360313 27.7923247C6.11522845 28.1443977 6.07660402 28.4968847 6.03797958 28.849289 5.54352038 28.6482463 5.23385905 28.8991356 5.04664713 29.4183026L5.05039304 29.4876905 5.05064277 31.2881317H4.00004182V27.8657698H4.9666513L4.98604676 28.2409445C5.26590734 27.8179932 5.65514829 27.6687844 6.15360313 27.7923247zM.336215614 26.7140802C.911669573 26.7067109 1.4874565 26.7246789 2.06349316 26.7169783 3.54786969 26.7178891 3.77537087 28.4106881 2.81958289 28.9110591 3.84146525 29.4180542 3.84404575 31.3100742 2.04950845 31.2634568 1.47829985 31.26089.907091247 31.2582403.336215614 31.2560046v0zM8.13418697 29.7792354C7.72754838 29.7367581 7.46400327 29.8258528 7.34804677 29.9730743 7.08533411 30.3058546 7.48997488 30.612221 7.83426501 30.4558914 8.02289202 30.3699431 8.11587368 30.1367734 8.13418697 29.7792354zM11.2405396 28.716061C10.9423656 28.716061 10.6993814 29.0968662 10.6993814 29.5642821 10.6993814 30.0313668 10.9423656 30.4122548 11.2405396 30.4122548 11.5387134 30.4122548 11.7816977 30.0314496 11.7816977 29.5642821 11.7816977 29.096949 11.5387134 28.716061 11.2405396 28.716061zM1.9452891 29.4129205H1.45224501V30.3650578H1.9452891C2.50334542 30.3272174 2.53106511 29.4687289 1.9452891 29.4129205v0zM1.90866249 27.6277975H1.45224501V28.5030949H1.90866249C2.42518091 28.4683181 2.45090278 27.6790518 1.90866249 27.6277975v0z" id="Combined-Shape" fill="#000"/><path d="M14.7571094 27.7589618 14.8925453 27.763344C15.8173672 27.7844585 16.4899649 28.716061 16.311327 29.9619789 15.6594566 29.954858 15.0078359 29.9480682 14.3565482 29.9411956 14.4306339 30.3647266 14.9464031 30.8944922 16.0695081 30.213365 16.0798302 30.5307441 16.0904019 30.8483716 16.1010569 31.1660819 15.6940854 31.3057685 15.2880295 31.3635641 14.8819736 31.3649718 12.6509969 31.235801 12.9574951 27.6135557 14.8925453 27.763344zM19.3486706 29.595664C19.3472566 28.0110041 20.7062702 27.4633533 21.8603413 27.9623166 21.8391146 28.2765493 21.8182207 28.5905335 21.7974102 28.9044349 20.8516113 28.3494148 20.4209157 28.9463326 20.4414765 29.5640337 20.4666989 30.3066826 21.1285583 30.7811366 21.8603413 30.2027664 21.8740763 30.534139 21.888061 30.86576 21.9023787 31.197381 20.6470017 31.6872362 19.3918744 31.0951208 19.3486706 29.595664zM23.9413154 27.7844585C25.1629792 27.8259422 25.5095169 28.6975134 25.5492235 29.5745495 25.5981699 30.8483716 24.6907457 31.4100159 23.9307436 31.3544559 22.6718704 31.3743283 22.2449207 30.4577958 22.2389273 29.595664 22.2620686 28.3044535 22.9099434 27.8185728 23.9413154 27.7844585zM16.637054 28.831321C16.6676872 28.0596915 17.5453107 27.4738691 18.9283814 27.9518008 18.8896737 28.2660334 18.8510493 28.5802661 18.8126746 28.8942503 18.3190478 28.4649232 17.688321 28.5070693 17.6774994 28.7683917 17.6644304 29.2813485 19.2111554 28.9616509 19.0857925 30.3493255 18.8935028 31.3846786 17.9831651 31.5257728 16.6688526 31.1659992v0L16.7633326 30.2026836C17.2526308 30.4643371 17.7359355 30.6773032 18.0243701 30.3493255 18.1717922 29.7418919 16.6264823 30.0774873 16.637054 28.831321zM23.894117 28.6428642C23.583873 28.6428642 23.3314824 29.0496692 23.3314824 29.5486326 23.3314824 30.0473475 23.583873 30.4541525 23.894117 30.4541525 24.2037783 30.4541525 24.456169 30.0472647 24.456169 29.5486326 24.456169 29.0496692 24.2037783 28.6428642 23.894117 28.6428642zM14.3356544 29.1768527 15.3759333 29.1977187C15.3509606 28.3403066 14.3822701 28.4208727 14.3356544 29.1768527z" id="Combined-Shape" fill="#000"/></g></g></svg>