<svg width="100" height="32" viewBox="0 0 100 32" xmlns="http://www.w3.org/2000/svg" xmlns:xlink="http://www.w3.org/1999/xlink"><g id="Logos/CreditCards/Caixa" stroke="none" stroke-width="1" fill="none" fill-rule="evenodd"><g id="caixa" transform="translate(8.000000, 5.389474)" fill-rule="nonzero"><g id="g2995" transform="translate(41.563572, 10.334045) scale(-1, 1) rotate(-180.000000) translate(-41.563572, -10.334045) translate(0.005678, 0.165623)"><g id="g2997" transform="translate(0.033316, 0.013433)"><path d="M25.1385323 12.53584 23.0108458 7.22870183H25.9553048L25.1481272 12.5574479 25.1385323 12.53584zM13.8668315.352590681 22.5946636 18.3387592H29.19361L32.8732842.352590681H27.080316L26.6533395 2.74986616H21.0330809L19.7401576.352590681H13.8668315v0zm21.7494171.0L38.1445254 18.3387592H43.9818703L41.4547929.352590681H35.6162486zM74.441129 12.5574479 72.305047 7.22870183H75.2483066L74.441129 12.5574479zM63.1598332.352590681 71.8888648 18.3387592H78.4866117L82.1674853.352590681H76.3733178L75.9475406 2.74986616H70.3260827L69.0331593.352590681H63.1598332v0z" id="path3001" fill="#0070af"/><path id="path3003" fill="#0070af" d="M50.2545874 8.76286211H57.569559L62.5817358.454627945H55.2655648L50.2545874 8.76286211"/><path id="path3005" fill="#f6822a" d="M51.0149894 10.0389281H58.5758323L65.1423956 18.3123496H57.5815527L51.0149894 10.0389281"/><path id="path3007" fill="#f6822a" d="M43.4553459.404209533h7.5596435L57.5815527 8.77846781H50.0207098L43.4553459.404209533"/><path id="path3009" fill="#0070af" d="M46.1815191 18.4131864h7.0559072L58.072096 10.0389281H51.0149894L46.1815191 18.4131864"/><path d="M14.0395411 17.6953242 13.4782349 12.4049922C11.3266809 15.3760772 6.33993079 13.3257285 5.94833574 9.62477688 5.45071617 4.92746142 10.2501243 3.8326616 12.8617575 6.59847167L12.2992519 1.29613526C11.5197798.913195414 10.7574588.615486691 10.0050926.415013478 9.2568042.213339827 8.50683671.10650081 7.76274614.0908951103 6.82723575.0704876575 5.97963935.168923606 5.21599902.38380208 4.45235868.595079238 3.76128037.93120199 3.14984037 1.3849677 1.97061754 2.24808291 1.11798378 3.34528361.592778649 4.68017111.0675735233 6.01986036-.105256024 7.53121231.073690322 9.22022914.217974808 10.577925.559556037 11.815577 1.10395112 12.9379869 1.64366865 14.0591963 2.39135734 15.079569 3.34341906 16.0039065 4.24342803 16.8850283 5.22355506 17.5500712 6.28415998 18.001436 7.34068703 18.4491995 8.49364361 18.6880868 9.73991136 18.7144964 10.4843617 18.7301021 11.2147795 18.655675 11.9236085 18.4840123 12.6362755 18.31355 13.3391077 18.0470527 14.0395411 17.6953242" id="path3011" fill="#0070af"/></g></g></g></g></svg>