<svg width="93" height="32" viewBox="0 0 93 32" xmlns="http://www.w3.org/2000/svg" xmlns:xlink="http://www.w3.org/1999/xlink"><defs><radialGradient cx="37.763294%" cy="32.9062369%" fx="37.763294%" fy="32.9062369%" r="69.2177058%" gradientTransform="translate(0.377633,0.329062),scale(0.507368,1.000000),translate(-0.377633,-0.329062)" id="radialGradient-1"><stop stop-color="#81c241" offset="0"/><stop stop-color="#8bc53f" offset="100%"/></radialGradient><radialGradient cx="50.0053947%" cy="50.0062004%" fx="50.0053947%" fy="50.0062004%" r="58.1289336%" gradientTransform="translate(0.500054,0.500062),scale(1.000000,0.756782),translate(-0.500054,-0.500062)" id="radialGradient-2"><stop stop-color="#81c241" offset="0"/><stop stop-color="#8bc53f" offset="100%"/></radialGradient><radialGradient cx="50.0035839%" cy="49.9928867%" fx="50.0035839%" fy="49.9928867%" r="50.1890512%" gradientTransform="translate(0.500036,0.499929),scale(1.000000,0.980189),translate(-0.500036,-0.499929)" id="radialGradient-3"><stop stop-color="#81c241" offset="0"/><stop stop-color="#8bc53f" offset="100%"/></radialGradient><radialGradient cx="49.9924063%" cy="49.988887%" fx="49.9924063%" fy="49.988887%" r="62.3075463%" gradientTransform="translate(0.499924,0.499889),scale(1.000000,0.680551),translate(-0.499924,-0.499889)" id="radialGradient-4"><stop stop-color="#81c241" offset="0"/><stop stop-color="#8bc53f" offset="100%"/></radialGradient><radialGradient cx="49.9889868%" cy="50.0018625%" fx="49.9889868%" fy="50.0018625%" r="51.963356%" gradientTransform="translate(0.499890,0.500019),scale(1.000000,0.916963),translate(-0.499890,-0.500019)" id="radialGradient-5"><stop stop-color="#81c241" offset="0"/><stop stop-color="#8bc53f" offset="100%"/></radialGradient></defs><g id="Logos/CreditCards/Ecopayz" stroke="none" stroke-width="1" fill="none" fill-rule="evenodd"><g id="ecopayz-copy" transform="translate(4.000000, 6.500000)" fill-rule="nonzero"><path d="M1.51579134 9.65712819C1.58213024 4.71547205 8.2728827.798396622 16.462052.908211203 20.9288716.966850057 24.9092059 2.21319224 27.6038291 4.13548048 24.9355309 1.72915516 20.3707824.10859047 15.1668638.0360915235 6.86186469-.0737230572.0763423897 3.80816906.0131624799 8.70717875-.0110564842 10.689172 1.06405498 12.5336305 2.90153736 14.0326528 1.99806465 12.6519744 1.50104936 11.152952 1.51579134 9.65712819z" id="Shape" fill="url(#radialGradient-1)"/><path d="M15.8355179 10.1049158C15.8355179 10.6667826 15.6954691 11.0548652 15.4122125 11.2712959 15.1300089 11.4855943 14.6909085 11.596475 14.0970174 11.596475H7.63581858C7.63581858 12.2415024 7.95382416 12.7372673 8.59720622 13.0827034 9.1131755 13.3535083 9.75023958 13.4921092 10.4968155 13.4921092 11.0780707 13.4921092 11.7762087 13.3129942 12.5933355 12.9526318 13.4125684 12.5944017 13.9348556 12.4142205 14.1644093 12.4142205 14.5782377 12.4142205 14.9299392 12.5581522 15.2174078 12.8438833 15.5069824 13.132813 15.6554552 13.4761168 15.6554552 13.8791257 15.6554552 14.8002887 14.9215152 15.5199474 13.4536353 16.033837 12.3395629 16.4229858 11.1981125 16.6159609 10.0377082 16.6159609 8.17495384 16.6159609 6.66811299 16.033837 5.51613261 14.8706554 4.35994026 13.7074737 3.78500308 12.2415024 3.78500308 10.4727413 3.78500308 8.78927315 4.38521223 7.35208815 5.58457754 6.15372321 6.7828898 4.95002747 8.26761768 4.35191116 10.0377082 4.35191116 11.6909158 4.35191116 13.0671848 4.92017496 14.1749392 6.05350408 15.2826937 7.19003168 15.8355179 8.53979148 15.8355179 10.1049158zM12.238475 9.26584711C12.22268 8.75408984 11.9699604 8.28817749 11.4876871 7.86917623 10.9980428 7.44804264 10.4841795 7.24014125 9.9355673 7.24014125 9.37221313 7.24014125 8.84887285 7.44804264 8.36449357 7.86917623 7.87800826 8.28924365 7.63476561 8.75408984 7.63476561 9.26584711H12.238475z" id="Shape" fill="#fff"/><path d="M26.4223648 14.2661421C26.4223648 15.0295134 25.8937595 15.6329605 24.842867 16.0796819 24.0015212 16.437912 23.1159495 16.6159609 22.1840458 16.6159609 20.3792064 16.6159609 18.9144855 16.007183 17.7856711 14.7853625 16.7010827 13.6189824 16.1587884 12.1839297 16.1587884 10.4727413 16.1587884 8.76261913 16.7105597 7.31583868 17.82042 6.12920151 18.9271215 4.94576283 20.3792064 4.35191116 22.1850988 4.35191116 23.2223023 4.35191116 24.1173511 4.49584289 24.86498 4.7826402 25.9042895 5.16965663 26.4234178 5.77416991 26.4234178 6.59298154 26.4234178 7.01091664 26.286528 7.37660985 26.0116953 7.6921935 25.7389688 8.00564483 25.3851613 8.1677013 24.9608029 8.1677013 24.6712283 8.1677013 24.2552939 8.07601146 23.7045757 7.89583025 23.1570164 7.71778137 22.7221281 7.62822385 22.4030695 7.62822385 21.5501407 7.62822385 20.8888577 7.91288883 20.4160614 8.48221879 19.974855 8.9982407 19.7537253 9.65926051 19.7537253 10.4738075 19.7537253 11.2425096 19.952742 11.8950001 20.3476164 12.4216836 20.7898758 13.0357923 21.4037739 13.3417805 22.1977348 13.3417805 22.5494363 13.3417805 23.0264446 13.2447599 23.6340248 13.0507186 24.2437109 12.8577434 24.6859703 12.7607228 24.9608029 12.7607228 25.3535713 12.7607228 25.7000078 12.9195808 25.9874764 13.2351644 26.277051 13.5496819 26.4223648 13.8961842 26.4223648 14.2661421z" id="Shape" fill="#fff"/><path d="M38.154874 10.4727413C38.154874 12.1839297 37.6083678 13.6200485 36.5258853 14.7853625 35.3939119 16.007183 33.928138 16.6159609 32.1243516 16.6159609 30.3226712 16.6159609 28.8558443 16.007183 27.7280829 14.7853625 26.6434944 13.6189824 26.1033062 12.1839297 26.1033062 10.4727413 26.1033062 8.76261913 26.6445475 7.32650029 27.7280829 6.1622525 28.8716393 4.95429211 30.3384662 4.35191116 32.1243516 4.35191116 33.9270851 4.35191116 35.3939119 4.95322595 36.5258853 6.1622525 37.6094208 7.32650029 38.154874 8.76261913 38.154874 10.4727413zm-3.598095899999997.0C34.5567781 9.70403927 34.3588144 9.05261491 33.966046 8.52593139 33.5269456 7.92568276 32.9141005 7.62822385 32.1254046 7.62822385 31.3398678 7.62822385 30.7270226 7.92674892 30.2889752 8.52593139 29.8941008 9.05261491 29.6982431 9.70403927 29.6982431 10.4727413 29.6982431 11.2414434 29.8951538 11.8992647 30.2889752 12.4408745 30.7270226 13.0432555 31.3398678 13.3407144 32.1254046 13.3407144 32.9141005 13.3407144 33.5269456 13.0443216 33.966046 12.4408745 34.3577614 11.9003309 34.5567781 11.2414434 34.5567781 10.4727413z" id="Shape" fill="#fff"/><path d="M39.3205432 14.7213928V2.60553948C39.3205432 2.11617159 39.4774403 1.71742739 39.7912336 1.40717454 40.1029214 1.09798786 40.5420217.944460676 41.1095878.944460676L45.1646849.924203618C46.8431646.938063711 48.2415465 1.41783615 49.3587782 2.36671942 50.4728504 3.31560269 51.0309395 4.55874639 51.0309395 6.09721668 51.0309395 7.662341 50.4696914 8.90761702 49.3471949 9.8287801 48.2225925 10.7456785 46.8737014 11.2062601 45.3005217 11.2062601H42.7575303v3.5204635C42.7575303 15.2736642 42.5922098 15.6862685 42.2657802 15.9709335 41.9361915 16.2598631 41.5265752 16.3995302 41.0400899 16.3995302 40.5504456 16.3995302 40.1408293 16.258797 39.8133465 15.9709335 39.4858641 15.68307 39.3194905 15.2736642 39.3194905 14.7416499V14.7213928H39.3205432zM42.7585834 8.33828706H45.095187C45.8143852 8.35427947 46.3872161 8.14424576 46.8136805 7.70285511 47.241198 7.26359679 47.4549566 6.72411934 47.4549566 6.07589346 47.4549566 5.43086607 47.241198 4.88605781 46.8136805 4.44679949 46.3872161 4.00967349 45.8143852 3.78897816 45.095187 3.78897816L42.7585834 3.76978727V8.33828706z" id="Shape" fill="url(#radialGradient-2)"/><path d="M62.6686789 6.6814729v7.6912853c0 .1151453999999994.0.23029080000000057.0.3454361000000006C62.6686789 14.8312074 62.663414 14.9538159 62.6465659 15.0860199 62.6033931 15.4165298 62.4738743 15.7193195 62.2685396 15.9922567 62.0632049 16.2651939 61.6693836 16.4016625 61.0891811 16.4016625 60.6174381 16.4016625 60.2646833 16.2897156 60.0372356 16.0562264 59.8045231 15.8302002 59.6318315 15.5114181 59.5075775 15.1084093 59.08006 15.5817847 58.605158 15.9389487 58.0849764 16.1756364 57.5679543 16.4144565 56.995123 16.5338665 56.3696419 16.5338665 54.8259462 16.5338665 53.5307581 15.974132 52.4872364 14.8578614 51.4395031 13.7426571 50.9161629 12.3129352 50.9161629 10.5708281 50.9161629 8.86070594 51.445821 7.42352094 52.5072435 6.2741994 53.568666 5.12381171 54.8554303 4.54382014 56.3696419 4.54382014 56.9782753 4.54382014 57.5669012 4.66216401 58.1207785 4.89565326 58.6767617 5.12914251 59.1421872 5.49376957 59.5065244 5.98953442 59.5528566 5.60891495 59.7276541 5.29652979 60.0361829 5.04704812 60.3394465 4.79969877 60.6922008 4.67495794 61.0881284 4.67495794 61.6683304 4.67495794 62.0621518 4.81675735 62.2674865 5.09715768 62.4728212 5.3754257 62.60234 5.68248006 62.6455132 6.01512229 62.663414 6.14412776 62.6676262 6.26567012 62.6676262 6.3808155c0 .11514539000000035.0.22389380999999986.0.3251791000000006V6.6814729H62.6686789zm-8.4545247 3.8776275c0 .07036659999999983.0.1375346999999998.0.2057690000000001C54.2141542 10.8299053 54.2215249 10.8970734 54.2383731 10.96744 54.2994471 11.6433861 54.5405835 12.2713549 54.9607299 12.8428172 55.3808763 13.4185441 56.0031984 13.7074737 56.8266435 13.7074737 57.6206041 13.7074737 58.2229195 13.4185441 58.6367479 12.8428172 59.0505763 12.2713549 59.284342 11.6433861 59.3475219 10.96744 59.3622637 10.8970734 59.3717407 10.8288391 59.3717407 10.7648694c0-.0682343000000003.0-.12474079999999965.0-.1833796000000003C59.3717407 10.5079246 59.3654227 10.4322272 59.3580516 10.3533313 59.3506809 10.2765677 59.3464688 10.1912748 59.3464688 10.1049158 59.2706529 9.43110206 59.0253044 8.81272869 58.6125287 8.25299418 58.2008065 7.6921935 57.6058622 7.41179317 56.8266435 7.41179317 56.0158344 7.41179317 55.4040424 7.6921935 54.9828429 8.25299418 54.5616437 8.81272869 54.3131358 9.43110206 54.2383731 10.1049158 54.2383731 10.1912748 54.2320551 10.2765677 54.2257371 10.3533313 54.2194191 10.4322272 54.2131011 10.5079246 54.2131011 10.5814898V10.5591004H54.2141542z" id="Shape" fill="url(#radialGradient-3)"/><path d="M63.1498993 6.79235364C63.1046203 6.69106835 63.0688186 6.57379064 63.0467056 6.44691748 63.0245926 6.31684584 63.0130094 6.17184795 63.0130094 6.01618845 63.0130094 5.69527399 63.1288395 5.42020446 63.36787 5.19204601 63.6058478 4.96175524 63.8743624 4.80396342 64.1828909 4.71760438 64.2439649 4.70481044 64.3039858 4.69414883 64.3650595 4.68455339 64.4261335 4.68028874 64.4882603 4.67495794 64.5493343 4.67495794 64.9473678 4.67495794 65.2843272 4.77091243 65.5686367 4.96708605 65.8508405 5.16112734 66.0603873 5.43086607 66.1993831 5.77523607L68.4654356 11.5975412 70.8978621 5.75284669C71.0315931 5.4191383 71.2453516 5.16112734 71.5265022 4.96708605 71.8108118 4.77091243 72.1477716 4.67495794 72.545805 4.67495794 72.6079318 4.67495794 72.6668996 4.67922258 72.7279737 4.68455339 72.7911536 4.69414883 72.8511745 4.70481044 72.9122485 4.71760438 73.2165648 4.80396342 73.4935037 4.96175524 73.7377991 5.19204601 73.9820949 5.42020446 74.1063488 5.69527399 74.1063488 6.01618845 74.1063488 6.17184795 74.0937128 6.31684584 74.0705467 6.44691748 74.0484338 6.5748568 74.0042078 6.69746531 73.9441869 6.81474302L68.4233159 19.7451434C68.2853729 20.0767194 68.0916214 20.3624506 67.8378486 20.6087337 67.5861821 20.8528846 67.2618583 20.9754931 66.8627722 20.9754931 66.2983647 20.9754931 65.8719003 20.8347599 65.5812727 20.5532934 65.2916983 20.2739592 65.1474376 19.967971 65.1474376 19.6374611 65.1474376 19.5958808 65.1495435 19.5436389 65.1569146 19.4871324 65.1632326 19.4274274 65.1684974 19.3773178 65.1684974 19.3368037 65.1842924 19.2333861 65.2106175 19.1352993 65.2495782 19.034014 65.2864334 18.9327287 65.3190761 18.8325096 65.3527723 18.7322904L66.7953801 15.3706849 63.1498993 6.79235364z" id="Shape" fill="url(#radialGradient-4)"/><path d="M74.0347447 14.3748905 79.2102324 7.51947543H75.385742C74.9719136 7.53546784 74.6233709 7.42352094 74.3316902 7.18576704 74.0421158 6.9490793 73.8957489 6.61430476 73.8957489 6.18357572 73.8957489 5.75178052 74.0421158 5.41807214 74.3316902 5.18351672 74.6233709 4.94469666 74.9719136 4.82528664 75.385742 4.82528664L82.8746672 4.80289725C82.9367939 4.81675735 83.0094508 4.8316836 83.0947437 4.84554369 83.1779307 4.86153611 83.2663826 4.88179317 83.3579935 4.90844719 83.5117311 4.96921837 83.6475679 5.06410669 83.769716 5.20164146 83.8929168 5.3370439 83.9539905 5.53641601 83.9539905 5.79549312 83.9539905 5.92343244 83.9434608 6.03537934 83.9181888 6.12920151 83.8981817 6.22195752 83.8718566 6.31151504 83.8392139 6.4000064 83.8118357 6.44158668 83.776034 6.49169624 83.7360198 6.5503351 83.6970591 6.60684163 83.658098 6.66548048 83.612819 6.72411934L78.4110065 13.5550127H82.7641023C83.1779307 13.5720713 83.5285792 13.6968121 83.8160478 13.934566 84.1077285 14.1712538 84.2540951 14.5049622 84.2540951 14.934625 84.2540951 15.3685525 84.1077285 15.6979963 83.8160478 15.9272209 83.5285792 16.159644 83.1779307 16.2726571 82.7641023 16.2726571H75.0909023C74.7212998 16.2726571 74.4064534 16.1905627 74.1368856 16.0253077 73.8704769 15.8611189 73.7367463 15.5977772 73.7367463 15.2384809 73.7367463 15.1084093 73.7557003 14.9879331 73.794661 14.8717215 73.8336221 14.75551 73.8736359 14.6574232 73.918915 14.5710641 73.951558 14.5422778 73.973671 14.5124253 73.9884129 14.4836389 74.0031547 14.4569849 74.0178969 14.4271324 74.0357978 14.3994122V14.3748905H74.0347447z" id="Shape" fill="url(#radialGradient-5)"/></g></g></svg>