<svg width="46" height="32" viewBox="0 0 46 32" xmlns="http://www.w3.org/2000/svg" xmlns:xlink="http://www.w3.org/1999/xlink"><g id="Logos/CreditCards/Itau" stroke="none" stroke-width="1" fill="none" fill-rule="evenodd"><g id="itau" transform="translate(7.000000, 0.464520)" fill-rule="nonzero"><path d="M25.9286334 31.400567H5.59436484C2.51747238 31.400567 149182665e-13 28.8928743 149182665e-13 25.8279165V5.5725207C149182665e-13 2.50756293 2.51747238-.000129802345 5.59436484-.000129802345H25.9286334C29.0055258-.000129802345 31.5229833 2.50756293 31.5229833 5.5725207V25.8279165C31.5229833 28.8928743 29.0055258 31.400567 25.9286334 31.400567" id="Fill-1" fill="#223f82"/><path d="M28.8816184 18.4959059C28.8818436 18.3548435 28.8431293 18.3205903 28.7052472 18.3219649 28.015352 18.3289493 27.3253076 18.330361 26.6354869 18.3211505 26.4785841 18.3191414 26.4421462 18.3620137 26.4427802 18.5152987 26.4489713 19.9455381 26.4420343 21.3758145 26.4490832 22.8060539 26.4511717 23.2252286 26.3154155 23.5823612 26.036071 23.886628 25.622462 24.3370839 25.1053949 24.4811555 24.5138484 24.3600803 23.9438214 24.2434634 23.6669757 23.8416381 23.5270423 23.3161371 23.4532715 23.0391764 23.4283953 22.7569774 23.4286191 22.4712119 23.4296261 21.1462213 23.4267543 19.8212308 23.4324978 18.4962403 23.4330945 18.3563296 23.3965448 18.3205903 23.2575066 18.3220392 22.5676486 18.3292093 21.8776042 18.3296923 21.1877836 18.3216677 21.0361767 18.3199216 20.9892214 18.3552522 20.9898857 18.5137012 20.9963822 19.956349 20.9954498 21.3989968 20.9925035 22.8416074 20.9917575 23.207619 21.0079439 23.5715132 21.0792905 23.9308005 21.2174709 24.626676 21.4881256 25.2539706 22.0502458 25.7208102 22.5360592 26.12427 23.106571 26.3009974 23.731348 26.3375168 24.6227144 26.3895282 25.4287111 26.1850862 26.1155107 25.5907073 26.3360027 25.3998626 26.5046537 25.16622 26.7110479 24.9491838 26.7110479 25.2956169 26.7171644 25.6421986 26.7079524 25.9883717 26.7044466 26.1202577 26.7456583 26.1532107 26.8745148 26.1518361 27.4835904 26.1452603 28.0928151 26.1451118 28.7018533 26.1518732 28.8349988 26.1533221 28.8821406 26.1276879 28.8818436 25.9815359 28.8769192 23.4863259 28.877031 20.9911159 28.8816184 18.4959059" id="Fill-4" fill="#f7f301"/><path d="M11.2443375 24.2928593C11.0113142 24.3849567 10.7939551 24.3718795 10.5774537 24.3565733 10.1958072 24.3296017 9.94007078 24.1341502 9.82430503 23.7704048 9.78525647 23.6477693 9.75437566 23.5185953 9.74617061 23.3907587 9.67900112 22.3458124 9.73151341 21.2994544 9.71372338 20.2538765 9.71167212 20.1350305 9.77276242 20.128269 9.86454706 20.1289377 10.2684591 20.1317983 10.6724458 20.1266715 11.0763205 20.1323556 11.1899977 20.1339531 11.2388924 20.1141888 11.2367665 19.9835658 11.2285615 19.4823245 11.228002 18.9807116 11.236953 18.4794703 11.2394518 18.3394853 11.1863801 18.3205012 11.0653929 18.3226188 10.6740495 18.3294546 10.2822958 18.3190894 9.89102698 18.3284515 9.75221251 18.3317579 9.7110008 18.2938268 9.71219426 18.1534703 9.7187583 17.3983018 9.71122457 16.6430219 9.71842264 15.8878906 9.71980258 15.7408469 9.6938075 15.687721 9.52970657 15.6902657 8.87117699 15.7010582 8.21231175 15.699535 7.55367029 15.6908417 7.39773711 15.6887612 7.34362109 15.7164387 7.34619449 15.888485 7.35753238 16.643542 7.34723877 17.3988962 7.35469791 18.1540275 7.35607785 18.2965759 7.31307594 18.3334669 7.17601437 18.3282657 6.90920117 18.3181235 6.64164207 18.3286001 6.3745305 18.3233989 6.27539862 18.3215042 6.23202376 18.3422717 6.23330054 18.4547278 6.23914724 18.9684518 6.2386251 19.4822874 6.23362748 19.9960486 6.23262049 20.1015946 6.26499313 20.1345475 6.36994314 20.1321327 6.6370174 20.1260028 6.90476299 20.1393028 7.17135241 20.1264486 7.32448842 20.1190555 7.35503357 20.1737047 7.35421306 20.31525 7.34843223 21.3118628 7.3530569 22.3085128 7.35003595 23.3051256 7.34899167 23.6463947 7.36987724 23.9853976 7.42999786 24.3209455 7.55348381 25.0103195 7.82574217 25.6120172 8.46901782 25.9750568 9.24763944 26.414516 10.0771324 26.4341689 10.9230354 26.2322903 11.2499692 26.154236 11.2451207 26.1380754 11.2445613 25.8094004 11.2437035 25.3087163 11.2443375 24.807958 11.2443375 24.2928593" id="Fill-6" fill="#f7f301"/><path d="M5.07249031 15.8666217C5.0726395 15.7283828 5.03814101 15.6894857 4.89716339 15.691046 4.20118896 15.6986248 3.50499076 15.6993307 2.80901634 15.6906774 2.65692461 15.6888913 2.61358704 15.7225129 2.61421424 15.8806276 2.61582478 16.3000624 2.61690636 16.7195344 2.61757768 17.1389692 2.61962894 18.3972737 2.618249 19.6555782 2.61821171 20.9138827 2.61821171 22.1768682 2.61903221 23.4398166 2.61768957 24.7027649 2.61720472 25.1237601 2.6165334 25.5447552 2.61548912 25.9657133 2.61511617 26.1034692 2.64032804 26.1548862 2.79503046 26.1528312 3.49100489 26.1432951 4.18720309 26.1452269 4.88321481 26.1519141 5.02430431 26.1532515 5.07297516 26.1229363 5.07275215 25.9702828 5.06816402 22.6024329 5.06849968 19.2345087 5.07249031 15.8666217" id="Fill-8" fill="#f7f301"/><path d="M25.7017265 17.8173038C25.772551 17.8175992 25.8148443 17.7825286 25.8597483 17.7367957 26.341571 17.2459938 26.825072 16.7568266 27.3073049 16.2663962 27.485802 16.0848764 27.6622105 15.9012761 27.8629731 15.6944936 27.0945705 15.6944936 26.3680136 15.6948651 25.6415313 15.6938989 25.5821193 15.6938249 25.5389682 15.7058618 25.5010758 15.7602881 25.0313369 16.435136 24.5586889 17.1079779 24.0624328 17.816076 24.6351824 17.816076 25.1684731 17.8150358 25.7017265 17.8173038" id="Fill-10" fill="#f7f301"/><path d="M16.9405233 24.163232C16.4839497 24.6834575 15.9136617 24.8827355 15.2376777 24.7453882 14.8742688 24.6715321 14.605367 24.4617032 14.509368 24.0846205 14.4114668 23.6999962 14.4706178 23.3462815 14.7597711 23.0559464 15.0812224 22.7332156 15.5021786 22.6215397 15.9311534 22.539436 16.3098162 22.4669915 16.6951178 22.4608616 17.0796361 22.4463355 17.2252384 22.4408744 17.2620492 22.4903966 17.2511216 22.6246232 17.2401193 22.7598529 17.2486973 22.8966057 17.2486973 23.0326898 17.2729395 23.4438772 17.2287815 23.8348172 16.9405233 24.163232M19.5985481 21.5429346C19.5985108 21.3015645 19.5866135 21.0616433 19.5566278 20.8212392 19.3909231 19.4937596 18.5483767 18.558223 17.2438116 18.2606435 16.4454979 18.0785664 15.6422611 18.0968447 14.8381666 18.2061801 14.1645695 18.2977573 13.5168184 18.4784598 12.9062138 18.7836553 12.8002195 18.8366698 12.7664669 18.8899443 12.8045831 19.0086418 12.9309408 19.4024796 13.0602822 19.7963916 13.1600481 20.1972881 13.209241 20.3950429 13.2666391 20.3762817 13.4213415 20.301088 14.2928293 19.8773437 15.2072072 19.6696696 16.179729 19.8253694 16.7627348 19.9187299 17.1227872 20.2706985 17.1710478 20.7509867 17.1864136 20.9039002 17.1373698 20.9408283 16.9935577 20.9393422 16.4089481 20.933361 15.8278444 20.9812857 15.252223 21.0842683 14.5004916 21.218755 13.7797901 21.4367942 13.1660154 21.9129586 12.3960836 22.5102353 12.098688 23.3194213 12.2171763 24.2581529 12.3358884 25.1990392 12.8908106 25.8512993 13.7842283 26.1594297 14.8035562 26.5110268 15.8000218 26.4006884 16.7378959 25.8538256 16.9673761 25.7200077 17.1582181 25.5370019 17.3834466 25.3048452 17.3834466 25.5683573 17.3935164 25.775437 17.3800154 25.9810306 17.370505 26.1261796 17.4225324 26.1537828 17.557953 26.152111 18.1605391 26.144718 18.7633862 26.1417087 19.3658231 26.1532627 19.5473411 26.1567549 19.6049257 26.1190837 19.6037141 25.9247097 19.5942964 24.4641552 19.5986227 23.0034892 19.5985481 21.5429346" id="Fill-12" fill="#f7f301"/><path d="M17.2511253 22.6246195C17.2620529 22.490393 17.2252421 22.4408707 17.0796398 22.4463319 16.6951215 22.4608579 16.30982 22.4669878 15.9311198 22.5394323 15.502145 22.621536 15.0812261 22.7332119 14.7597748 23.0559427 14.4706215 23.3462778 14.4114706 23.6999924 14.5093717 24.0846168 14.6053707 24.4616995 14.8742725 24.6715284 15.2376815 24.7453846 15.9136654 24.8827318 16.4839534 24.6834538 16.940527 24.1632283 17.2287479 23.8348134 17.2729433 23.4438734 17.2487011 23.0326862 17.2487011 22.896602 17.2401231 22.7598492 17.2511253 22.6246195" id="Fill-14" fill="#223f82"/></g></g></svg>