<svg xmlns="http://www.w3.org/2000/svg" width="63" height="11" viewBox="0 0 63 11"><path fill="#83BA3B" d="M61.849.836C61.046.28 59.83 0 58.239 0h-4.172l-1.55 8.506h-5.465l.352-1.93h3.291l.39-2.167-3.29.004.353-1.92h3.39L51.99 0h-6.885l-1.472 8.068h-2.527L42.587 0h-3.599l-1.472 8.068h-2.462L36.538 0H32.94l-1.553 8.506h-5.503l.347-1.93h3.305l.39-2.155-3.3-.003.35-1.925h3.428L30.853 0H9.397l-1.22 6.74L5.743 0H2.01L0 11h3.566l1.217-6.926L7.143 11h12.78l1.555-8.508h1.999L21.923 11h33.63l.974-5.37L58.105 11h3.568l-1.635-4.389.374-.08c.824-.18 1.466-.562 1.913-1.137.447-.58.675-1.324.675-2.217 0-1.041-.377-1.807-1.152-2.342v.001zM16.82 8.506h-5.459l.353-1.93h3.424l.388-2.173h-3.39l.326-1.91h5.45L16.82 8.506h.001zM58.91 4.8c-.359.253-.88.377-1.59.377h-.706l.541-2.952h.519c.59 0 1.021.095 1.319.29.232.154.508.456.508 1.029-.001.692-.322 1.064-.592 1.256z"/></svg>