<?xml version="1.0" encoding="UTF-8"?>
<svg width="72px" height="24px" viewBox="0 0 72 24" version="1.1" xmlns="http://www.w3.org/2000/svg" xmlns:xlink="http://www.w3.org/1999/xlink">
    <title>Logos/Footer/Pay4Fun</title>
    <defs>
        <polygon id="path-1" points="0 0.0189302326 10.4593209 0.0189302326 10.4593209 11.8724186 0 11.8724186"></polygon>
        <polygon id="path-3" points="0.0832113839 0.0854883721 7.28925113 0.0854883721 7.28925113 11.0899583 0.0832113839 11.0899583"></polygon>
        <polygon id="path-5" points="0.0739906977 0.0525674419 3.34729302 0.0525674419 3.34729302 4 0.0739906977 4"></polygon>
        <polygon id="path-7" points="0.0661118868 0.0557953488 9.37972093 0.0557953488 9.37972093 8.66053953 0.0661118868 8.66053953"></polygon>
    </defs>
    <g id="Logos/Footer/Pay4Fun" stroke="none" stroke-width="1" fill="none" fill-rule="evenodd">
        <g id="Group-79" transform="translate(0.418605, 0.000000)">
            <g id="Group-39" transform="translate(0.000000, 0.007535)">
                <path d="M13.6017767,21.7229488 L13.242986,21.7229488 L13.4619628,20.5918791 L13.814614,20.5918791 C14.1734047,20.5918791 14.3862419,20.7378326 14.3862419,21.0540186 C14.3862419,21.4918791 14.1003814,21.7229488 13.6017767,21.7229488 M15.346986,20.9080651 C15.346986,20.1175535 14.7328465,19.8256465 13.9483814,19.8256465 L12.6470791,19.8256465 L11.8565674,23.7782977 L12.8294977,23.7782977 L13.0848465,22.4890884 L13.4862419,22.4890884 C14.4774047,22.4890884 15.346986,22.063414 15.346986,20.9080651" id="Fill-1" fill="#FEFEFE"></path>
                <path d="M17.5596186,22.1485488 L17.7664093,21.6864093 C17.9366419,21.309386 18.0704093,20.9445488 18.2285488,20.5553395 L18.2528279,20.5553395 C18.2528279,20.9566419 18.265014,21.309386 18.2772,21.6864093 L18.289386,22.1485488 L17.5596186,22.1485488 Z M17.8150605,19.8256651 L15.7475256,23.7783163 L16.8177581,23.7783163 L17.2252,22.8783163 L18.3136651,22.8783163 L18.3380372,23.7783163 L19.3596186,23.7783163 L18.9825953,19.8256651 L17.8150605,19.8256651 Z" id="Fill-3" fill="#FEFEFE"></path>
                <path d="M22.5129767,20.6961488 C22.3429302,20.9997767 22.2093488,21.2670326 22.0514884,21.5827535 L22.0272093,21.5827535 C21.9785581,21.2670326 21.942186,21.0119628 21.8935349,20.7082419 L21.766,19.8337302 L20.757907,19.8337302 L21.3833953,22.3965209 L21.110186,23.7811721 L22.0757674,23.7811721 L22.3551163,22.3965209 L24.0313023,19.8337302 L22.9866512,19.8337302 L22.5129767,20.6961488 Z" id="Fill-5" fill="#FEFEFE"></path>
                <polygon id="Fill-7" fill="#FEFEFE" points="29.2548465 23.7775442 30.2274047 23.7775442 30.5313116 22.2700093 31.7591256 22.2700093 31.9171721 21.4555907 30.6893581 21.4555907 30.8474047 20.640986 32.2940093 20.640986 32.4521488 19.8264744 30.0450791 19.8264744"></polygon>
                <path d="M35.0983163,22.9702233 C34.7475256,22.9702233 34.5369209,22.6544093 34.5369209,22.1047349 C34.5369209,21.2275256 35.0632465,20.6426884 35.4959907,20.6426884 C35.8468744,20.6426884 36.0574791,20.9585023 36.0574791,21.5081767 C36.0574791,22.3854791 35.5310605,22.9702233 35.0983163,22.9702233 M35.5427814,19.8357116 C34.5369209,19.8357116 33.5779442,20.7479907 33.5779442,22.1631535 C33.5779442,23.1924558 34.1743163,23.777293 35.0515256,23.777293 C36.0574791,23.777293 37.0164558,22.8649209 37.0164558,21.4497581 C37.0164558,20.4205488 36.4199907,19.8357116 35.5427814,19.8357116" id="Fill-9" fill="#FEFEFE"></path>
                <path d="M39.7109674,21.6504558 L39.3583163,21.6504558 L39.565014,20.5925023 L39.9176651,20.5925023 C40.2824093,20.5925023 40.489107,20.7262698 40.489107,21.0181767 C40.489107,21.395107 40.2337581,21.6504558 39.7109674,21.6504558 M41.4496651,20.8722233 C41.4496651,20.1061767 40.8416651,19.8265488 40.0514326,19.8265488 L38.7503163,19.8265488 L37.9599907,23.7783628 L38.9327349,23.7783628 L39.2002698,22.4164093 L39.6076186,22.4164093 L40.0635256,23.7783628 L41.085014,23.7783628 L40.4952465,22.2645023 C41.0484558,22.0516651 41.4496651,21.6079442 41.4496651,20.8722233" id="Fill-11" fill="#FEFEFE"></path>
                <polygon id="Fill-13" fill="#FEFEFE" points="46.2421209 23.776 47.214307 23.776 47.5181209 22.2691163 48.7454698 22.2691163 48.9034233 21.4549767 47.6760744 21.4549767 47.8340279 20.6407442 49.2801674 20.6407442 49.4381209 19.8265116 47.0319814 19.8265116"></polygon>
                <path d="M53.4680558,19.8265023 L53.0262884,22.0233395 C52.8949395,22.6919907 52.7039628,22.9545953 52.3576372,22.9545953 C51.9636837,22.9545953 51.8443349,22.7516186 51.8443349,22.3576651 C51.8443349,22.2143163 51.8682419,22.0710605 51.8921488,21.9158977 L52.3100093,19.8265023 L51.3547535,19.8265023 L50.972707,21.7248279 C50.936893,21.9278047 50.8891721,22.2024093 50.8891721,22.3814791 C50.8891721,23.3366419 51.3667535,23.7783163 52.3338233,23.7783163 C53.2173581,23.7783163 53.7187535,23.2172 53.9576372,21.9994326 L54.3993116,19.8265023 L53.4680558,19.8265023 Z" id="Fill-15" fill="#FEFEFE"></path>
                <path d="M58.3539535,19.8265023 L58.0986047,21.0907814 C58.0013953,21.5649209 57.9770233,22.1606419 57.9405581,22.5861302 L57.9162791,22.5861302 L57.7217674,21.6986884 L57.1746977,19.8265023 L56.2386047,19.8265023 L55.4484651,23.7775721 L56.3723721,23.7775721 L56.6276279,22.501014 C56.7248372,22.0268744 56.7613953,21.4677116 56.7977674,21.0179442 L56.8221395,21.0179442 L57.0044651,21.905386 L57.5515349,23.7775721 L58.4876279,23.7775721 L59.2778605,19.8265023 L58.3539535,19.8265023 Z" id="Fill-17" fill="#FEFEFE"></path>
                <g id="Group-21" transform="translate(0.000000, 4.000000)">
                    <mask id="mask-2" fill="white">
                        <use xlink:href="#path-1"></use>
                    </mask>
                    <g id="Clip-20"></g>
                    <path d="M7.97150698,4.31297674 C7.88341395,4.70683721 7.72136744,5.06116279 7.48508837,5.37623256 C7.2488093,5.69130233 6.95578605,5.94023256 6.6060186,6.1232093 C6.25615814,6.30627907 5.87746047,6.39772093 5.46983256,6.39772093 C5.12694884,6.39772093 4.83625116,6.32590698 4.59773953,6.18227907 C4.35913488,6.03874419 4.1796,5.84525581 4.05913488,5.602 C3.93857674,5.35883721 3.87848372,5.08897674 3.87848372,4.7924186 C3.87848372,4.62116279 3.89466977,4.46125581 3.92713488,4.31297674 C4.0011814,3.96097674 4.15997209,3.62153488 4.40313488,3.29493023 C4.6463907,2.96832558 4.94276279,2.7032093 5.29262326,2.4992093 C5.64229767,2.29548837 6.00490233,2.19353488 6.38015814,2.19353488 C6.92220465,2.19353488 7.33327442,2.33716279 7.61364651,2.62432558 C7.89392558,2.91167442 8.0340186,3.29148837 8.0340186,3.76404651 C8.0340186,3.94013953 8.0131814,4.12302326 7.97150698,4.31297674 M8.91653023,0.372883721 C8.43011163,0.0902790698 7.88992558,0.0189302326 7.25997209,0.0189302326 C6.2731814,0.0189302326 5.34229767,0.351953488 4.50397209,1.15809302 L4.63141395,0.375209302 C4.66183256,0.188511628 4.51773953,0.0189302326 4.32843721,0.0189302326 L2.28936744,0.0189302326 C2.14015814,0.0189302326 2.01253023,0.126186047 1.98694884,0.273069767 L0.00471627907,11.5121395 C-0.0284,11.7000465 0.11615814,11.8724186 0.30704186,11.8724186 L2.3420186,11.8724186 C2.49085581,11.8724186 2.61829767,11.7655349 2.64425116,11.6189302 L3.32350698,7.78386047 C3.53643721,8.04330233 3.88657674,8.25083721 4.25029767,8.41297674 C4.61392558,8.57502326 5.00183256,8.65613953 5.41420465,8.65613953 C6.25736744,8.65613953 7.01950698,8.47437209 7.70043721,8.11065116 C8.38155349,7.74702326 8.94666977,7.24674419 9.39606512,6.60962791 C9.84536744,5.97269767 10.1580186,5.24888372 10.3342047,4.43809302 C10.4175535,4.04888372 10.4593209,3.67837209 10.4593209,3.32618605 C10.4593209,2.65911628 10.323786,2.07083721 10.0528093,1.56116279 C9.78173953,1.0515814 9.40304186,0.655488372 8.91653023,0.372883721" id="Fill-19" fill="#FEFEFE" mask="url(#mask-2)"></path>
                </g>
                <path d="M30.8763907,4.01827907 L28.8351814,4.01827907 C28.725414,4.01827907 28.6241116,4.0767907 28.5692279,4.17176744 L25.5990884,9.31623256 L24.709693,4.27195349 C24.6837395,4.12525581 24.5562977,4.01827907 24.4072744,4.01827907 L22.5841116,4.01827907 C22.3932279,4.01827907 22.2485767,4.19065116 22.281786,4.37865116 L23.705414,12.4525116 C23.7179721,12.5236744 23.7050419,12.5968837 23.6689488,12.6593953 L22.0788093,15.4135349 C21.9606698,15.618186 22.1083907,15.874093 22.3446698,15.874093 L24.3859721,15.874093 C24.4956465,15.874093 24.5970419,15.8155814 24.6518326,15.7206047 L31.1422512,4.47883721 C31.2604837,4.27409302 31.1127628,4.01827907 30.8763907,4.01827907" id="Fill-22" fill="#FEFEFE"></path>
                <path d="M17.7587535,8.32137674 C17.6800558,8.69635349 17.5168,9.04463256 17.2692651,9.3664 C17.0216372,9.68807442 16.7218233,9.94509767 16.3701023,10.1370977 C16.0182884,10.3291907 15.6549395,10.4252837 15.2799628,10.4252837 C14.960614,10.4252837 14.6794047,10.3570047 14.4363349,10.2204465 C14.1932651,10.0838884 14.0059163,9.89523721 13.8739163,9.65458605 C13.7420093,9.41393488 13.6760558,9.13616744 13.6760558,8.82128372 C13.6760558,8.6731907 13.6945674,8.50658605 13.7315907,8.32137674 C13.8149395,7.91867907 13.9826605,7.55653953 14.2349395,7.23467907 C14.4872186,6.91300465 14.7858233,6.66305116 15.1306605,6.4848186 C15.4754977,6.30667907 15.8238698,6.21756279 16.1756837,6.21756279 C16.4995907,6.21756279 16.7854512,6.2904 17.0331721,6.43626047 C17.280707,6.58202791 17.4716837,6.7799814 17.6060093,7.02993488 C17.7401488,7.27988837 17.8074047,7.5599814 17.8074047,7.87002791 C17.8074047,8.02742326 17.7911256,8.17793488 17.7587535,8.32137674 M21.1883349,4.03077209 L19.5068465,4.03077209 C19.3976372,4.03077209 19.296614,4.08891163 19.2417302,4.18333023 L18.716986,5.08574884 C18.2354977,4.33588837 17.5031256,4.02733023 16.5310326,4.02733023 C15.6561488,4.02733023 14.8598698,4.14267907 14.1308465,4.50593488 C13.4018233,4.86937674 12.7953116,5.37626047 12.3116837,6.02658605 C11.8278698,6.67700465 11.5027535,7.41644651 11.3361488,8.24500465 C11.2712186,8.57830698 11.2388465,8.88612093 11.2388465,9.16844651 C11.2388465,9.85821395 11.3974512,10.470307 11.7144744,11.0050047 C12.0314977,11.5396093 12.4632186,11.9551442 13.0094512,12.2513302 C13.5555907,12.5476093 14.1573581,12.6957023 14.8147535,12.6957023 C15.2452651,12.6957023 15.9465674,12.5984 16.3321488,12.4437023 C16.7852651,12.2619349 17.0004279,12.2266791 17.3939163,11.8933767 L17.7175442,12.526493 C17.7699163,12.6290047 17.8754047,12.6935628 17.9905674,12.6935628 L19.4335442,12.6935628 C19.7764279,12.6935628 20.0698233,12.4473302 20.1293581,12.1097488 L21.4903814,4.39077209 C21.5234977,4.20295814 21.3790326,4.03077209 21.1883349,4.03077209" id="Fill-24" fill="#FEFEFE"></path>
                <path d="M61.5650698,4.02305116 L59.5319535,4.02305116 C59.3824651,4.02305116 59.2545581,4.13030698 59.2286977,4.27756279 C59.2286977,4.27756279 58.6755814,7.41458605 58.4605116,8.63412093 C58.2856279,9.62556279 57.5589302,10.2312372 56.7566977,10.238214 C56.6223721,10.2394233 56.4976279,10.2317953 56.381907,10.2160744 C55.741814,10.1292837 55.3097209,9.61802791 55.421814,8.98184186 L56.2006047,4.56528372 C56.2504651,4.2824 56.0328837,4.02305116 55.7456279,4.02305116 L54.0252558,4.02305116 C53.8010698,4.02305116 53.6092558,4.1839814 53.5702791,4.4048186 L52.582093,10.0095628 C52.3411628,11.3755163 54.085907,12.6277953 55.4729767,12.6277953 C57.4244186,12.6277953 57.9112093,11.7493767 57.9112093,11.7493767 L57.8199535,12.266307 C57.7867442,12.4549581 57.9317674,12.6277953 58.1233023,12.6277953 L60.1564186,12.6277953 C60.305907,12.6277953 60.433814,12.5204465 60.4597674,12.3732837 L61.8684186,4.38453953 C61.9016279,4.19588837 61.7566047,4.02305116 61.5650698,4.02305116" id="Fill-26" fill="#FEFEFE"></path>
                <path d="M62.0814233,12.627786 L64.1145395,12.627786 C64.2640279,12.627786 64.3919349,12.5204372 64.4177953,12.3732744 C64.4177953,12.3732744 64.9709116,9.23625116 65.1859814,8.01671628 C65.3608651,7.02527442 66.0875628,6.4196 66.8897953,6.41262326 C67.0241209,6.41141395 67.1488651,6.41904186 67.264586,6.43476279 C67.9046791,6.52146047 68.3367721,7.0328093 68.2246791,7.66890233 L67.4458884,12.0855535 C67.3960279,12.3684372 67.6136093,12.627786 67.9008651,12.627786 L69.6212372,12.627786 C69.8454233,12.627786 70.0372372,12.4668558 70.076214,12.2460186 L71.0644,6.64127442 C71.3053302,5.27532093 69.560586,4.02304186 68.1736093,4.02304186 C66.2220744,4.02304186 65.7352837,4.90146047 65.7352837,4.90146047 L65.8265395,4.38453023 C65.8597488,4.19587907 65.7147256,4.02304186 65.5231907,4.02304186 L63.4900744,4.02304186 C63.340586,4.02304186 63.2126791,4.13029767 63.1867256,4.27755349 L61.7780744,12.2662977 C61.7448651,12.4549488 61.8898884,12.627786 62.0814233,12.627786" id="Fill-28" fill="#FEFEFE"></path>
                <path d="M52.1669953,4.01804651 L50.7395535,4.01804651 C49.125507,4.01804651 47.7443907,5.17693023 47.4641116,6.76651163 L47.2743442,7.84260465 L45.8379721,7.84260465 C45.6889488,7.84260465 45.561507,7.9495814 45.5356465,8.09637209 L45.2328558,9.81330233 C45.1998326,10.0013023 45.3442977,10.1736744 45.5352744,10.1736744 L46.8632744,10.1736744 L46.3644837,12.9385116 C46.2998326,13.3053023 45.9811349,13.5727442 45.6085767,13.5727442 L44.8162047,13.5727442 C44.6672744,13.5727442 44.5398326,13.679814 44.5138791,13.8265116 L44.2156465,15.5129302 C44.1825302,15.7008372 44.3270884,15.8732093 44.5178791,15.8733023 L45.6913674,15.8745127 C47.3242047,15.875814 48.7221581,14.703907 49.005693,13.0957209 L49.5202977,10.1770233 L51.1906233,10.1742326 C51.3394605,10.1739535 51.4666233,10.0669767 51.4923907,9.92046512 L51.7951814,8.20353488 C51.8283907,8.01534884 51.6834605,7.84288372 51.4922977,7.84325581 L49.9314605,7.84576744 L50.0567628,7.13674419 C50.1296,6.7252093 50.4865302,6.42483721 50.9044837,6.42334884 L51.8504372,6.42186047 C51.9990884,6.42167442 52.1263442,6.31488372 52.1522047,6.16846512 L52.4693209,4.37860465 C52.5026233,4.19051163 52.3580651,4.01804651 52.1669953,4.01804651" id="Fill-30" fill="#FEFEFE"></path>
                <path d="M42.2582047,11.1564093 L33.8574605,11.1564093 L33.8574605,13.523293 L37.6031349,13.523293 C37.7772744,13.523293 37.9184837,13.6644093 37.9184837,13.8385488 L37.9184837,15.571107 C37.9184837,15.7453395 38.0596,15.8864558 38.2338326,15.8864558 L40.4428558,15.8864558 C40.6169953,15.8864558 40.7582047,15.7453395 40.7582047,15.571107 L40.7582047,13.8367814 C40.7582047,13.6626419 40.899414,13.5214326 41.0735535,13.5214326 L42.2582047,13.5214326 C42.4323442,13.5214326 42.5735535,13.3803163 42.5735535,13.2061767 L42.5735535,11.4717581 C42.5735535,11.2976186 42.4323442,11.1564093 42.2582047,11.1564093" id="Fill-32" fill="#FEFEFE"></path>
                <path d="M41.2125116,4.79952558 L40.662186,5.75273488 L40.258093,5.51943256 L40.966186,4.29310698 L41.0971628,4.36873488 C41.2479535,4.45580465 41.2996744,4.64864186 41.2125116,4.79952558 L41.2125116,4.79952558 Z M40.3444186,6.30315349 C40.2573488,6.45394419 40.0645116,6.50566512 39.9136279,6.41859535 L38.410093,5.5504093 C38.2592093,5.46333953 38.2075814,5.27050233 38.2946512,5.11971163 L38.3754884,4.9796186 L40.4252558,6.16306047 L40.3444186,6.30315349 Z M39.1627442,3.61608372 C39.249814,3.46529302 39.4427442,3.41357209 39.5935349,3.50064186 L39.73,3.57952558 L39.022093,4.80575814 L38.6124186,4.5692 L39.1627442,3.61608372 Z M40.1404186,3.81645581 L40.5557674,4.05617674 L39.8477674,5.28250233 L39.4324186,5.04268837 L40.1404186,3.81645581 Z M41.7343721,2.77887442 L39.7347442,1.62445581 C39.4330698,1.45031628 39.0473953,1.55357209 38.8732558,1.85524651 L34.8679535,8.79254884 C34.6252558,9.21301395 34.9286977,9.73859535 35.414186,9.73859535 L39.294093,9.73859535 C39.5193953,9.73859535 39.7275814,9.6184093 39.8402326,9.42324651 L42.35,5.07636279 C42.8143721,4.27189767 42.5387442,3.24333953 41.7343721,2.77887442 L41.7343721,2.77887442 Z" id="Fill-34" fill="#FEFEFE"></path>
                <g id="Group-38" transform="translate(30.511628, 0.000000)">
                    <mask id="mask-4" fill="white">
                        <use xlink:href="#path-3"></use>
                    </mask>
                    <g id="Clip-37"></g>
                    <path d="M0.252390698,9.16339535 L5.12932093,0.716325581 C5.4776,0.113069767 6.24904186,-0.093627907 6.8523907,0.254651163 L7.13155349,0.415860465 C7.28234419,0.502930233 7.33406512,0.695767442 7.24690233,0.846651163 L1.4240186,10.9322326 C1.33694884,11.0830233 1.14411163,11.1347442 0.993227907,11.0476744 L0.714065116,10.8864651 C0.110809302,10.538186 -0.0958883721,9.76674419 0.252390698,9.16339535" id="Fill-36" fill="#FEFEFE" mask="url(#mask-4)"></path>
                </g>
            </g>
            <g id="Group-78" transform="translate(0.000000, 0.100558)">
                <path d="M13.6620465,21.6626233 L13.3032558,21.6626233 L13.5222326,20.5315535 L13.8748837,20.5315535 C14.2336744,20.5315535 14.4464186,20.677507 14.4464186,20.993786 C14.4464186,21.4315535 14.1606512,21.6626233 13.6620465,21.6626233 M15.4072558,20.8478326 C15.4072558,20.0572279 14.7931163,19.7653209 14.0086512,19.7653209 L12.7073488,19.7653209 L11.9168372,23.7179721 L12.8897674,23.7179721 L13.1451163,22.4287628 L13.5465116,22.4287628 C14.5376744,22.4287628 15.4072558,22.0031814 15.4072558,20.8478326" id="Fill-40" fill="#F29001"></path>
                <path d="M17.6198977,22.0883163 L17.8266884,21.6261767 C17.9969209,21.2491535 18.1306884,20.8843163 18.2887349,20.495107 L18.313107,20.495107 C18.313107,20.8964093 18.325293,21.2491535 18.337386,21.6261767 L18.3495721,22.0883163 L17.6198977,22.0883163 Z M17.8753395,19.7653395 L15.8078047,23.7179907 L16.8780372,23.7179907 L17.285386,22.8179907 L18.3739442,22.8179907 L18.3982233,23.7179907 L19.4198977,23.7179907 L19.0427814,19.7653395 L17.8753395,19.7653395 Z" id="Fill-42" fill="#F29001"></path>
                <g id="Group-46" transform="translate(20.744186, 19.720930)">
                    <mask id="mask-6" fill="white">
                        <use xlink:href="#path-5"></use>
                    </mask>
                    <g id="Clip-45"></g>
                    <path d="M1.82906047,0.914986047 C1.65901395,1.21861395 1.52543256,1.48577674 1.36757209,1.8015907 L1.3432,1.8015907 C1.29464186,1.48577674 1.25817674,1.2308 1.2096186,0.92707907 L1.08208372,0.0525674419 L0.0739906977,0.0525674419 L0.69947907,2.61535814 L0.426176744,4.0000093 L1.39185116,4.0000093 L1.6712,2.61535814 L3.34729302,0.0525674419 L2.30273488,0.0525674419 L1.82906047,0.914986047 Z" id="Fill-44" fill="#F29001" mask="url(#mask-6)"></path>
                </g>
                <polygon id="Fill-47" fill="#F29001" points="29.3150698 23.7172279 30.2876279 23.7172279 30.5915349 22.209786 31.8193488 22.209786 31.9773953 21.3952744 30.7495814 21.3952744 30.9076279 20.5807628 32.3543256 20.5807628 32.5123721 19.7662512 30.1053023 19.7662512"></polygon>
                <path d="M35.1586419,22.9099907 C34.8077581,22.9099907 34.5971535,22.5941767 34.5971535,22.0444093 C34.5971535,21.167293 35.1234791,20.5824558 35.5562233,20.5824558 C35.907107,20.5824558 36.1177116,20.8982698 36.1177116,21.4479442 C36.1177116,22.3251535 35.591293,22.9099907 35.1586419,22.9099907 M35.603014,19.7754791 C34.5971535,19.7754791 33.6381767,20.6876651 33.6381767,22.1029209 C33.6381767,23.1322233 34.2346419,23.7169674 35.1118512,23.7169674 C36.1177116,23.7169674 37.0766884,22.8046884 37.0766884,21.3894326 C37.0766884,20.3602233 36.4802233,19.7754791 35.603014,19.7754791" id="Fill-49" fill="#F29001"></path>
                <path d="M39.7711907,21.5901302 L39.4185395,21.5901302 L39.6252372,20.5322698 L39.9778884,20.5322698 C40.3426326,20.5322698 40.5493302,20.6660372 40.5493302,20.9578512 C40.5493302,21.3348744 40.2939814,21.5901302 39.7711907,21.5901302 M41.5098884,20.8119907 C41.5098884,20.0458512 40.9019814,19.7663163 40.1116558,19.7663163 L38.8105395,19.7663163 L38.020214,23.7180372 L38.9929581,23.7180372 L39.260493,22.3561767 L39.6678419,22.3561767 L40.1237488,23.7180372 L41.1452372,23.7180372 L40.5554698,22.2042698 C41.1087721,21.9913395 41.5098884,21.5476186 41.5098884,20.8119907" id="Fill-51" fill="#F29001"></path>
                <polygon id="Fill-53" fill="#F29001" points="46.3023535 23.7157674 47.2745395 23.7157674 47.5783535 22.2088837 48.8057023 22.2088837 48.9636558 21.3946512 47.736307 21.3946512 47.8942605 20.5804186 49.3404 20.5804186 49.4983535 19.7662791 47.092214 19.7662791"></polygon>
                <path d="M53.5282791,19.7662791 L53.0865116,21.9630233 C52.9552558,22.6316744 52.764186,22.8943721 52.4178605,22.8943721 C52.023907,22.8943721 51.9045581,22.6913953 51.9045581,22.2973488 C51.9045581,22.154093 51.9284651,22.0108372 51.9523721,21.8555814 L52.3702326,19.7662791 L51.4149767,19.7662791 L51.0330233,21.6645116 C50.9972093,21.8675814 50.9493953,22.142186 50.9493953,22.3212558 C50.9493953,23.2763256 51.4269767,23.718093 52.3940465,23.718093 C53.2775814,23.718093 53.7789767,23.1569767 54.0178605,21.9391163 L54.4596279,19.7662791 L53.5282791,19.7662791 Z" id="Fill-55" fill="#F29001"></path>
                <path d="M58.414186,19.7662791 L58.1588372,21.0305581 C58.0616279,21.5046977 58.0373488,22.1004186 58.0008837,22.525814 L57.9765116,22.525814 L57.782,21.6383721 L57.2349302,19.7662791 L56.2989302,19.7662791 L55.5086977,23.7172558 L56.4326047,23.7172558 L56.6878605,22.4407907 C56.7850698,21.9666512 56.8216279,21.4074884 56.858093,20.9577209 L56.8823721,20.9577209 L57.0646977,21.8451628 L57.6117674,23.7172558 L58.5478605,23.7172558 L59.338093,19.7662791 L58.414186,19.7662791 Z" id="Fill-57" fill="#F29001"></path>
                <path d="M8.03177674,8.25269767 C7.94368372,8.64655814 7.78163721,9.00088372 7.54535814,9.31595349 C7.30898605,9.63102326 7.01605581,9.88004651 6.66628837,10.0629302 C6.31642791,10.246 5.93763721,10.3374419 5.5300093,10.3374419 C5.1872186,10.3374419 4.89652093,10.2657209 4.65791628,10.122 C4.41940465,9.97846512 4.23977674,9.78497674 4.11940465,9.54172093 C3.99884651,9.29855814 3.93875349,9.02869767 3.93875349,8.73223256 C3.93875349,8.56088372 3.95493953,8.40106977 3.98731163,8.25269767 C4.06145116,7.90069767 4.22014884,7.56125581 4.46340465,7.23465116 C4.70656744,6.90804651 5.00303256,6.64293023 5.35289302,6.43902326 C5.70256744,6.2352093 6.06517209,6.13325581 6.44042791,6.13325581 C6.98247442,6.13325581 7.39354419,6.27688372 7.67382326,6.56413953 C7.95410233,6.85139535 8.09428837,7.2312093 8.09428837,7.70376744 C8.09428837,7.87986047 8.07345116,8.06274419 8.03177674,8.25269767 M8.9768,4.31260465 C8.4903814,4.03 7.95019535,3.95865116 7.32014884,3.95865116 C6.33345116,3.95865116 5.40256744,4.29176744 4.56414884,5.09781395 L4.69168372,4.31493023 C4.72210233,4.12823256 4.57791628,3.95865116 4.38870698,3.95865116 L2.34954419,3.95865116 C2.20033488,3.95865116 2.0728,4.06590698 2.0472186,4.2127907 L0.0649860465,15.4518605 C0.0318697674,15.6398605 0.176427907,15.8121395 0.367311628,15.8121395 L2.40219535,15.8121395 C2.55112558,15.8121395 2.67856744,15.7053488 2.70452093,15.5587442 L3.38368372,11.7235814 C3.59670698,11.9830233 3.94675349,12.1905581 4.31047442,12.3526977 C4.67419535,12.5147442 5.06210233,12.5958605 5.47447442,12.5958605 C6.31763721,12.5958605 7.07968372,12.414093 7.76070698,12.0503721 C8.44173023,11.6867442 9.00684651,11.1864651 9.45633488,10.5493488 C9.90563721,9.9124186 10.2182884,9.18860465 10.3944744,8.37781395 C10.4778233,7.98869767 10.5195907,7.61809302 10.5195907,7.266 C10.5195907,6.59883721 10.3839628,6.01055814 10.1130791,5.50088372 C9.8420093,4.99130233 9.4632186,4.5952093 8.9768,4.31260465" id="Fill-59" fill="#F29001"></path>
                <path d="M30.9366698,3.958 L28.8953674,3.958 C28.785693,3.958 28.6843907,4.01651163 28.629507,4.11148837 L25.6593674,9.25595349 L24.7698791,4.21176744 C24.7440186,4.06497674 24.6165767,3.958 24.4675535,3.958 L22.6442977,3.958 C22.453507,3.958 22.3088558,4.13037209 22.3419721,4.31837209 L23.765693,12.3922326 C23.7781581,12.4633953 23.7653209,12.5366047 23.7292279,12.5991163 L22.1390884,15.3532558 C22.0208558,15.558 22.1685767,15.813814 22.4049488,15.813814 L24.4462512,15.813814 C24.5559256,15.813814 24.6572279,15.7553023 24.7121116,15.6603256 L31.2025302,4.41855814 C31.3206698,4.21381395 31.1730419,3.958 30.9366698,3.958" id="Fill-61" fill="#F29001"></path>
                <path d="M17.8190233,8.26109767 C17.7402326,8.63607442 17.5770698,8.98435349 17.3294419,9.30612093 C17.081814,9.62788837 16.782093,9.8848186 16.4302791,10.0768186 C16.0784651,10.2689116 15.7152093,10.3650047 15.3402326,10.3650047 C15.0207907,10.3650047 14.7395814,10.2967256 14.4966047,10.1601674 C14.2535349,10.0236093 14.066093,9.83495814 13.934186,9.59430698 C13.8022791,9.35365581 13.7363256,9.07588837 13.7363256,8.76100465 C13.7363256,8.61291163 13.7547442,8.44630698 13.7918605,8.26109767 C13.8752093,7.8584 14.0428372,7.49626047 14.2952093,7.17449302 C14.5474884,6.8528186 14.846093,6.60277209 15.1909302,6.42453953 C15.5357674,6.2464 15.8841395,6.15728372 16.2358605,6.15728372 C16.5598605,6.15728372 16.8457209,6.23012093 17.0934419,6.3759814 C17.3409767,6.52174884 17.5319535,6.71970233 17.6662791,6.96965581 C17.8004186,7.2196093 17.8675814,7.49970233 17.8675814,7.80974884 C17.8675814,7.96714419 17.8513023,8.11765581 17.8190233,8.26109767 M21.2486047,3.97049302 L19.5671163,3.97049302 C19.457907,3.97049302 19.3568837,4.02863256 19.301907,4.12305116 L18.7771628,5.02546977 C18.2957674,4.2756093 17.5633953,3.96705116 16.5913023,3.96705116 C15.7164186,3.96705116 14.9201395,4.0824 14.1911163,4.44565581 C13.462,4.8091907 12.8555814,5.3159814 12.3718605,5.96630698 C11.8881395,6.61672558 11.5630233,7.35616744 11.3964186,8.18472558 C11.3314884,8.51802791 11.2991163,8.82593488 11.2991163,9.10816744 C11.2991163,9.79793488 11.4576279,10.4101209 11.7747442,10.9447256 C12.0917674,11.4794233 12.5234884,11.8948651 13.0697209,12.1910512 C13.6158605,12.4873302 14.2176279,12.6354233 14.8750233,12.6354233 C15.3055349,12.6354233 16.0068372,12.5381209 16.3924186,12.3834233 C16.8455349,12.2016558 17.0606047,12.1664 17.454093,11.8330977 L17.7777209,12.466214 C17.830186,12.5687256 17.9356744,12.6332837 18.0508372,12.6332837 L19.4937209,12.6332837 C19.8366047,12.6332837 20.13,12.3870512 20.1895349,12.0494698 L21.5506512,4.33049302 C21.5837674,4.14267907 21.4392093,3.97049302 21.2486047,3.97049302" id="Fill-63" fill="#F29001"></path>
                <path d="M61.6253953,3.96277209 L59.5922791,3.96277209 C59.4426977,3.96277209 59.3148837,4.07012093 59.2889302,4.21728372 C59.2889302,4.21728372 58.735814,7.35430698 58.5207442,8.57384186 C58.3458605,9.56528372 57.6191628,10.1709581 56.8169302,10.1779349 C56.6826047,10.1791442 56.5578605,10.1715163 56.4421395,10.1557953 C55.8020465,10.0690977 55.3699535,9.55774884 55.4821395,8.92165581 L56.2608372,4.50500465 C56.3106977,4.22212093 56.0931163,3.96277209 55.8058605,3.96277209 L54.0854884,3.96277209 C53.8613023,3.96277209 53.6694884,4.12370233 53.6306047,4.34453953 L52.6423256,9.94928372 C52.4013953,11.3152372 54.1461395,12.5675163 55.5332093,12.5675163 C57.4846512,12.5675163 57.9714419,11.6890977 57.9714419,11.6890977 L57.8802791,12.2060279 C57.8470698,12.3946791 57.992093,12.5675163 58.1835349,12.5675163 L60.2166512,12.5675163 C60.3662326,12.5675163 60.4940465,12.4602605 60.52,12.3130047 L61.9286512,4.32426047 C61.9618605,4.1356093 61.8168372,3.96277209 61.6253953,3.96277209" id="Fill-65" fill="#F29001"></path>
                <g id="Group-69" transform="translate(61.767442, 3.906977)">
                    <mask id="mask-8" fill="white">
                        <use xlink:href="#path-7"></use>
                    </mask>
                    <g id="Clip-68"></g>
                    <path d="M0.374213953,8.66053953 L2.40733023,8.66053953 C2.5568186,8.66053953 2.68472558,8.55328372 2.71067907,8.40602791 C2.71067907,8.40602791 3.26379535,5.26900465 3.47886512,4.04946977 C3.65365581,3.05802791 4.38035349,2.45235349 5.18258605,2.44537674 C5.31691163,2.44416744 5.44165581,2.45179535 5.55737674,2.46751628 C6.19756279,2.55430698 6.62965581,3.06556279 6.51746977,3.70174884 L5.73867907,8.11830698 C5.6888186,8.4011907 5.9064,8.66053953 6.19365581,8.66053953 L7.91412093,8.66053953 C8.13830698,8.66053953 8.33002791,8.4996093 8.36900465,8.27877209 L9.35728372,2.67402791 C9.59812093,1.30807442 7.85337674,0.0557953488 6.4664,0.0557953488 C4.51486512,0.0557953488 4.02807442,0.934213953 4.02807442,0.934213953 L4.11933023,0.417283721 C4.15253953,0.228632558 4.00751628,0.0557953488 3.8159814,0.0557953488 L1.78286512,0.0557953488 C1.63337674,0.0557953488 1.50546977,0.163144186 1.47951628,0.310306977 L0.0708651163,8.29905116 C0.037655814,8.48770233 0.18267907,8.66053953 0.374213953,8.66053953" id="Fill-67" fill="#F29001" mask="url(#mask-8)"></path>
                </g>
                <path d="M52.2272279,3.95777674 L50.799786,3.95777674 C49.1857395,3.95777674 47.8046233,5.11666047 47.5243442,6.70624186 L47.3345767,7.78233488 L45.8982977,7.78233488 C45.7492744,7.78233488 45.6217395,7.88940465 45.5958791,8.03610233 L45.2931814,9.75312558 C45.2600651,9.94103256 45.4046233,10.1134047 45.595507,10.1134047 L46.923507,10.1134047 L46.4247163,12.8782419 C46.3600651,13.2451256 46.0413674,13.5125674 45.6689023,13.5125674 L44.8765302,13.5125674 C44.7276,13.5125674 44.6000651,13.6194512 44.5741116,13.7661488 L44.2759721,15.4526605 C44.2428558,15.6405674 44.3873209,15.8128465 44.5781116,15.8129395 L45.7516,15.8141501 C47.3844372,15.8155442 48.7823907,14.6435442 49.0659256,13.0354512 L49.5805302,10.1167535 L51.2508558,10.1139628 C51.399693,10.1136837 51.5268558,10.0068 51.5526233,9.86028837 L51.855414,8.14335814 C51.8886233,7.95507907 51.743693,7.78261395 51.5526233,7.78298605 L49.991786,7.78549767 L50.1169953,7.07647442 C50.1898326,6.66493953 50.5468558,6.36456744 50.9647163,6.36307907 L51.9106698,6.36168372 C52.0593209,6.36140465 52.1865767,6.25461395 52.2125302,6.10819535 L52.5295535,4.31833488 C52.5628558,4.13024186 52.4182977,3.95777674 52.2272279,3.95777674" id="Fill-70" fill="#F29001"></path>
                <path d="M42.3184372,11.0961302 L33.917693,11.0961302 L33.917693,13.463014 L37.6633674,13.463014 C37.837507,13.463014 37.9788093,13.6042233 37.9788093,13.7783628 L37.9788093,15.5109209 C37.9788093,15.6850605 38.1199256,15.8262698 38.2940651,15.8262698 L40.5030884,15.8262698 C40.6772279,15.8262698 40.8184372,15.6850605 40.8184372,15.5109209 L40.8184372,13.7765023 C40.8184372,13.6023628 40.9596465,13.4611535 41.133786,13.4611535 L42.3184372,13.4611535 C42.4926698,13.4611535 42.6338791,13.3199442 42.6338791,13.1458047 L42.6338791,11.4114791 C42.6338791,11.2373395 42.4926698,11.0961302 42.3184372,11.0961302" id="Fill-72" fill="#F29001"></path>
                <path d="M41.2727349,4.73925581 L40.7225023,5.69246512 L40.3184093,5.45916279 L41.0264093,4.23293023 L41.157386,4.30846512 C41.3081767,4.39562791 41.3598977,4.58846512 41.2727349,4.73925581 L41.2727349,4.73925581 Z M40.4046419,6.24288372 C40.3175721,6.39367442 40.1247349,6.44539535 39.9739442,6.35832558 L38.4703163,5.49023256 C38.3195256,5.40306977 38.2678047,5.21023256 38.3548744,5.05944186 L38.4358047,4.91934884 L40.4855721,6.1027907 L40.4046419,6.24288372 Z M39.2229674,3.55581395 C39.3100372,3.40502326 39.5029674,3.35330233 39.6537581,3.44037209 L39.7902233,3.51925581 L39.0823163,4.74548837 L38.6726419,4.50902326 L39.2229674,3.55581395 Z M40.2007349,3.75618605 L40.6159907,3.996 L39.9079907,5.22223256 L39.4926419,4.9824186 L40.2007349,3.75618605 Z M41.7945953,2.71860465 L39.7949674,1.56418605 C39.493386,1.39004651 39.1077116,1.49339535 38.9334791,1.79506977 L34.9281767,8.73227907 C34.6854791,9.15274419 34.9889209,9.67832558 35.4744093,9.67832558 L39.3543163,9.67832558 C39.5796186,9.67832558 39.7878047,9.55813953 39.9004558,9.36297674 L42.4102233,5.01609302 C42.8746884,4.21162791 42.5990605,3.18306977 41.7945953,2.71860465 L41.7945953,2.71860465 Z" id="Fill-74" fill="#F29001"></path>
                <path d="M30.8242884,9.10317209 L35.7011256,0.656102326 C36.0494977,0.0527534884 36.8209395,-0.153944186 37.4242884,0.194427907 L37.7034512,0.355544186 C37.8542419,0.442613953 37.9058698,0.635544186 37.8188,0.786334884 L31.9959163,10.8720093 C31.9088465,11.0228 31.7159163,11.0744279 31.5651256,10.9873581 L31.2859628,10.8261488 C30.682707,10.4778698 30.4759163,9.70642791 30.8242884,9.10317209" id="Fill-76" fill="#F29001"></path>
            </g>
        </g>
    </g>
</svg>