<svg width="52" height="19" viewBox="0 0 52 19" fill="none" xmlns="http://www.w3.org/2000/svg">
<path d="M21.3974 17.5351C21.2176 17.5351 21.0721 17.3896 21.0721 17.2099V6.63965C21.0721 4.51875 22.7982 2.79272 24.9191 2.79272L28.0407 2.79688C30.1543 2.80104 31.8751 4.52395 31.8751 6.63861V8.88836C31.8751 11.0093 30.1491 12.7353 28.0282 12.7353H23.6181C23.4383 12.7353 23.2928 12.5898 23.2928 12.41C23.2928 12.2303 23.4383 12.0848 23.6181 12.0848H28.0282C29.7906 12.0848 31.2236 10.6508 31.2236 8.88836V6.63861C31.2236 4.88245 29.7948 3.45154 28.0396 3.44843L24.9191 3.44427C23.1577 3.44427 21.7237 4.8783 21.7237 6.63965V17.2099C21.7227 17.3896 21.5772 17.5351 21.3974 17.5351Z" fill="#939598"/>
<path d="M35.2201 12.7835C35.0403 12.7835 34.8949 12.638 34.8949 12.4582V4.56276C34.8949 3.94551 34.3929 3.4436 33.7757 3.4436H32.4217C32.2419 3.4436 32.0964 3.29812 32.0964 3.11834C32.0964 2.93857 32.2419 2.79309 32.4217 2.79309H33.7757C34.7525 2.79309 35.5464 3.587 35.5464 4.5638V12.4592C35.5454 12.638 35.3999 12.7835 35.2201 12.7835Z" fill="#939598"/>
<path d="M34.9297 1.89359L34.3156 1.27945C34.1628 1.1267 34.1628 0.880421 34.3156 0.727666L34.9287 0.114566C35.0815 -0.0381887 35.3288 -0.0381887 35.4815 0.114566L36.0946 0.727666C36.2474 0.880421 36.2474 1.1267 36.0946 1.27945L35.4805 1.89359C35.3288 2.04634 35.0815 2.04634 34.9297 1.89359Z" fill="#32BCAD"/>
<path d="M44.8771 7.64354C44.5124 7.64354 44.1684 7.50117 43.9107 7.24346L40.7704 4.10316C40.3402 3.67295 39.7676 3.43603 39.1597 3.43603H37.8171C37.6373 3.43603 37.4919 3.29055 37.4919 3.11078C37.4919 2.931 37.6373 2.78552 37.8171 2.78552H39.1597C39.9422 2.78552 40.6779 3.08999 41.2307 3.64386L44.371 6.78416C44.5061 6.91925 44.6859 6.99407 44.8771 6.99407C45.0683 6.99407 45.2481 6.91925 45.3832 6.78416L48.512 3.65529C49.0649 3.10246 49.8006 2.79695 50.5831 2.79695H51.6742C51.8539 2.79695 51.9994 2.94243 51.9994 3.12221C51.9994 3.30198 51.8539 3.44746 51.6742 3.44746H50.5831C49.9741 3.44746 49.4026 3.68438 48.9724 4.11459L45.8435 7.24346C45.5858 7.50117 45.2429 7.64354 44.8771 7.64354Z" fill="#939598"/>
<path d="M39.1597 12.7145H37.8171C37.6373 12.7145 37.4919 12.569 37.4919 12.3892C37.4919 12.2094 37.6373 12.064 37.8171 12.064H39.1597C39.7686 12.064 40.3402 11.827 40.7704 11.3968L43.9107 8.25651C44.1684 7.99881 44.5124 7.85645 44.8771 7.85645C45.2418 7.85645 45.5858 7.99881 45.8435 8.25651L48.9724 11.3854C49.4026 11.8156 49.9752 12.0525 50.5831 12.0525H51.6742C51.8539 12.0525 51.9994 12.198 51.9994 12.3778C51.9994 12.5576 51.8539 12.703 51.6742 12.703H50.5831C49.8006 12.703 49.0649 12.3986 48.512 11.8447L45.3832 8.71582C45.2481 8.58073 45.0683 8.50591 44.8771 8.50591C44.6859 8.50591 44.5061 8.58073 44.371 8.71582L41.2307 11.8561C40.6779 12.409 39.9422 12.7145 39.1597 12.7145Z" fill="#939598"/>
<path d="M13.394 14.3945C12.7207 14.3945 12.0868 14.1326 11.6098 13.6557L9.03378 11.0796C8.85297 10.8978 8.53811 10.8988 8.3573 11.0796L5.7719 13.665C5.29493 14.1409 4.66209 14.4038 3.98768 14.4038H3.48058L6.74246 17.6668C7.76187 18.6851 9.41307 18.6851 10.4325 17.6668L13.7048 14.3945H13.394V14.3945Z" fill="#32BCAD"/>
<path d="M3.98812 5.28303C4.66149 5.28303 5.29537 5.54594 5.77234 6.02187L8.35774 8.60727C8.54374 8.79327 8.84821 8.79431 9.03422 8.60727L11.6103 6.03122C12.0872 5.55529 12.7201 5.29238 13.3945 5.29238H13.7052L10.434 2.02114C9.41455 1.00174 7.76334 1.00174 6.74394 2.02114L3.48206 5.28303H3.98812Z" fill="#32BCAD"/>
<path d="M16.41 7.99937L14.4325 6.02186C14.3888 6.03953 14.3421 6.04992 14.2922 6.04992H13.3933C12.9288 6.04992 12.4737 6.23801 12.1453 6.56742L9.56928 9.14346C9.3282 9.38455 9.01126 9.50509 8.69536 9.50509C8.37842 9.50509 8.06252 9.38455 7.82143 9.14346L5.23603 6.55806C4.90766 6.22969 4.45252 6.04057 3.98802 6.04057H2.88237C2.83561 6.04057 2.79092 6.02914 2.74935 6.01355L0.764584 7.99833C-0.254821 9.01669 -0.254821 10.6689 0.764584 11.6883L2.74935 13.6731C2.79092 13.6575 2.83561 13.6461 2.88237 13.6461H3.98802C4.45252 13.6461 4.90766 13.458 5.23603 13.1286L7.82143 10.5432C8.28905 10.0766 9.10374 10.0756 9.57032 10.5432L12.1464 13.1192C12.4747 13.4476 12.9299 13.6367 13.3944 13.6367H14.2932C14.3431 13.6367 14.3899 13.6471 14.4335 13.6648L16.411 11.6883C17.4294 10.67 17.4294 9.01773 16.41 7.99937Z" fill="#32BCAD"/>
<path d="M24.0809 16.3112C23.9354 16.3112 23.765 16.3465 23.5977 16.385V17.0292C23.7141 17.0718 23.8471 17.0916 23.9739 17.0916C24.2971 17.0916 24.4498 16.9825 24.4498 16.6988C24.4508 16.4307 24.3251 16.3112 24.0809 16.3112ZM23.4886 17.5072V16.2333H23.5769L23.5863 16.2883C23.7359 16.253 23.9427 16.2073 24.0903 16.2073C24.2108 16.2073 24.3251 16.226 24.4207 16.3029C24.5319 16.3933 24.5662 16.5388 24.5662 16.6978C24.5662 16.864 24.5111 17.0209 24.3594 17.1072C24.2544 17.1664 24.1121 17.1903 23.9843 17.1903C23.8533 17.1903 23.7276 17.1695 23.5967 17.1311V17.5062H23.4886V17.5072Z" fill="#939598"/>
<path d="M25.3777 16.3067C25.0545 16.3067 24.9111 16.4086 24.9111 16.6923C24.9111 16.9676 25.0535 17.0913 25.3777 17.0913C25.6988 17.0913 25.8432 16.9915 25.8432 16.7068C25.8432 16.4325 25.7009 16.3067 25.3777 16.3067ZM25.7933 17.0923C25.6863 17.1692 25.5419 17.1921 25.3777 17.1921C25.2093 17.1921 25.0659 17.1682 24.96 17.0923C24.8415 17.0092 24.7937 16.872 24.7937 16.7006C24.7937 16.5312 24.8415 16.3919 24.96 16.3078C25.0649 16.2319 25.2093 16.208 25.3777 16.208C25.5439 16.208 25.6863 16.2319 25.7933 16.3078C25.9139 16.393 25.9596 16.5312 25.9596 16.6995C25.9586 16.8699 25.9108 17.0092 25.7933 17.0923Z" fill="#939598"/>
<path d="M27.3222 17.165L26.9626 16.3919H26.9553L26.601 17.165H26.5033L26.1199 16.2329H26.2394L26.5584 17.0154H26.5657L26.9127 16.2329H27.0125L27.3689 17.0154H27.3762L27.688 16.2329H27.8043L27.4198 17.165H27.3222Z" fill="#939598"/>
<path d="M28.4999 16.305C28.2007 16.305 28.0999 16.438 28.0812 16.6303H28.9187C28.9104 16.4183 28.8013 16.305 28.4999 16.305ZM28.4968 17.1914C28.3181 17.1914 28.2017 17.1654 28.1092 17.0875C28.0001 16.9929 27.9637 16.8568 27.9637 16.6999C27.9637 16.5503 28.0136 16.3913 28.1373 16.3009C28.2401 16.2292 28.368 16.2063 28.501 16.2063C28.6215 16.2063 28.7597 16.2188 28.874 16.2967C29.0091 16.3871 29.0351 16.5461 29.0351 16.7269H28.0791C28.0822 16.9192 28.1456 17.0885 28.5072 17.0885C28.6787 17.0885 28.8397 17.0605 28.9894 17.0345V17.1322C28.8325 17.1623 28.661 17.1914 28.4968 17.1914Z" fill="#939598"/>
<path d="M29.3463 17.1651V16.233H29.4346L29.4439 16.2881C29.6414 16.2382 29.7339 16.207 29.9074 16.207H29.9209V16.3099H29.8949C29.7495 16.3099 29.6601 16.3297 29.4554 16.3837V17.1641H29.3463V17.1651Z" fill="#939598"/>
<path d="M30.5526 16.305C30.2533 16.305 30.1525 16.438 30.1338 16.6303H30.9714C30.963 16.4183 30.8539 16.305 30.5526 16.305ZM30.5495 17.1914C30.3707 17.1914 30.2543 17.1654 30.1619 17.0875C30.0527 16.9929 30.0164 16.8568 30.0164 16.6999C30.0164 16.5503 30.0663 16.3913 30.1899 16.3009C30.2928 16.2292 30.4206 16.2063 30.5536 16.2063C30.6742 16.2063 30.8124 16.2188 30.9267 16.2967C31.0618 16.3871 31.0877 16.5461 31.0877 16.7269H30.1317C30.1348 16.9192 30.1982 17.0885 30.5599 17.0885C30.7313 17.0885 30.8924 17.0605 31.042 17.0345V17.1322C30.8851 17.1623 30.7136 17.1914 30.5495 17.1914Z" fill="#939598"/>
<path d="M32.2792 16.3702C32.1628 16.3276 32.0298 16.3068 31.903 16.3068C31.5798 16.3068 31.4271 16.416 31.4271 16.6996C31.4271 16.9688 31.5528 17.0872 31.796 17.0872C31.9414 17.0872 32.1119 17.0519 32.2792 17.0155V16.3702V16.3702ZM32.3 17.1662L32.2906 17.1111C32.141 17.1465 31.9342 17.1922 31.7866 17.1922C31.6671 17.1922 31.5518 17.1756 31.4562 17.0966C31.345 17.0062 31.3107 16.8607 31.3107 16.7017C31.3107 16.5355 31.3658 16.3785 31.5175 16.2933C31.6224 16.232 31.7648 16.2081 31.8936 16.2081C32.0225 16.2081 32.1482 16.23 32.2792 16.2674V15.8413H32.3883V17.1673H32.3V17.1662Z" fill="#939598"/>
<path d="M33.9854 16.3111C33.8399 16.3111 33.6695 16.3464 33.5022 16.3848V17.027C33.6206 17.0717 33.7516 17.0915 33.8783 17.0915C34.2015 17.0915 34.3543 16.9824 34.3543 16.6987C34.3543 16.4306 34.2285 16.3111 33.9854 16.3111ZM34.2639 17.1081C34.1589 17.1673 34.0165 17.1912 33.8887 17.1912C33.7505 17.1912 33.6123 17.1673 33.472 17.1206L33.4668 17.1652H33.3931V15.8403H33.5022V16.2851C33.6518 16.2518 33.8534 16.2082 33.9947 16.2082C34.1153 16.2082 34.2296 16.2269 34.3252 16.3038C34.4364 16.3942 34.4706 16.5397 34.4706 16.6987C34.4706 16.8649 34.4156 17.0218 34.2639 17.1081Z" fill="#939598"/>
<path d="M34.615 17.5235V17.4217C34.669 17.4269 34.7189 17.4311 34.7532 17.4311C34.8883 17.4311 34.9693 17.3926 35.0452 17.2388L35.0805 17.165L34.5931 16.2329H34.7189L35.1356 17.0372H35.1429L35.5398 16.2329H35.6635L35.1397 17.2793C35.0441 17.4695 34.9402 17.5318 34.7501 17.5318C34.7074 17.5329 34.6617 17.5287 34.615 17.5235Z" fill="#939598"/>
<path d="M37.1645 16.6345H36.8029V16.9618H37.1666C37.416 16.9618 37.5095 16.9338 37.5095 16.7977C37.5105 16.6501 37.3806 16.6345 37.1645 16.6345ZM37.098 16.1046H36.8029V16.4371H37.1001C37.3453 16.4371 37.443 16.408 37.443 16.2687C37.444 16.1212 37.3204 16.1046 37.098 16.1046ZM37.6602 17.0772C37.5272 17.1624 37.3671 17.1655 37.0731 17.1655H36.5213V15.9009H37.0606C37.3131 15.9009 37.469 15.904 37.5978 15.9819C37.6903 16.037 37.7267 16.1222 37.7267 16.2334C37.7267 16.3664 37.6716 16.4547 37.5272 16.514V16.5213C37.6893 16.5587 37.7953 16.6418 37.7953 16.8205C37.7942 16.9421 37.7506 17.0221 37.6602 17.0772Z" fill="#939598"/>
<path d="M38.8992 16.7741C38.7901 16.7647 38.6799 16.7596 38.5635 16.7596C38.3734 16.7596 38.3069 16.798 38.3069 16.8853C38.3069 16.9663 38.362 17.011 38.5085 17.011C38.6301 17.011 38.7766 16.983 38.9002 16.956V16.7741H38.8992ZM38.9543 17.1659L38.947 17.1108C38.788 17.1492 38.6041 17.1918 38.4409 17.1918C38.3412 17.1918 38.2341 17.1794 38.1583 17.1233C38.0887 17.0734 38.0554 16.9923 38.0554 16.8978C38.0554 16.7928 38.1011 16.6951 38.2123 16.6452C38.31 16.5995 38.4409 16.5954 38.5615 16.5954C38.6591 16.5954 38.7901 16.6006 38.8992 16.6078V16.5912C38.8992 16.4457 38.8036 16.3979 38.5407 16.3979C38.4388 16.3979 38.3152 16.4031 38.1978 16.4146V16.2265C38.3287 16.2161 38.4763 16.2078 38.5978 16.2078C38.7599 16.2078 38.9283 16.2202 39.0312 16.294C39.1382 16.3699 39.159 16.4748 39.159 16.613V17.1648H38.9543V17.1659Z" fill="#939598"/>
<path d="M40.3758 17.1651V16.6497C40.3758 16.4803 40.2895 16.419 40.1337 16.419C40.0194 16.419 39.8749 16.4481 39.7533 16.4783V17.1651H39.4935V16.233H39.7055L39.7149 16.2922C39.8791 16.2496 40.062 16.207 40.2137 16.207C40.328 16.207 40.4444 16.2237 40.5327 16.3026C40.6065 16.3691 40.6345 16.4616 40.6345 16.5946V17.1651H40.3758Z" fill="#939598"/>
<path d="M41.3695 17.1916C41.25 17.1916 41.1181 17.175 41.0225 17.0939C40.9082 17.0014 40.8749 16.8559 40.8749 16.699C40.8749 16.5515 40.9227 16.3904 41.0651 16.3C41.1815 16.2241 41.3249 16.2075 41.4745 16.2075C41.5815 16.2075 41.6865 16.2148 41.8029 16.2262V16.4257C41.7083 16.4164 41.5961 16.4091 41.5057 16.4091C41.2584 16.4091 41.142 16.4871 41.142 16.7011C41.142 16.9027 41.2293 16.989 41.4319 16.989C41.5504 16.989 41.6886 16.9671 41.8237 16.9412V17.1334C41.6782 17.1625 41.5192 17.1916 41.3695 17.1916Z" fill="#939598"/>
<path d="M42.5926 16.4028C42.3453 16.4028 42.2361 16.4808 42.2361 16.6927C42.2361 16.9047 42.3432 16.9951 42.5926 16.9951C42.8378 16.9951 42.9448 16.9193 42.9448 16.7073C42.9448 16.4953 42.8399 16.4028 42.5926 16.4028ZM43.0394 17.0938C42.9251 17.1707 42.7755 17.1915 42.5926 17.1915C42.4066 17.1915 42.2569 17.1697 42.1437 17.0938C42.0148 17.0086 41.968 16.8684 41.968 16.7011C41.968 16.5327 42.0138 16.3903 42.1437 16.3062C42.2559 16.2303 42.4055 16.2085 42.5926 16.2085C42.7775 16.2085 42.9251 16.2303 43.0394 16.3062C43.1683 16.3914 43.2129 16.5337 43.2129 16.699C43.2129 16.8673 43.1672 17.0086 43.0394 17.0938Z" fill="#939598"/>
<path d="M44.7158 17.1913C44.5588 17.1913 44.3895 17.1653 44.2616 17.0604C44.1099 16.9346 44.0642 16.7413 44.0642 16.5325C44.0642 16.3465 44.1234 16.1251 44.3209 15.9952C44.4736 15.8955 44.6638 15.8757 44.856 15.8757C44.9963 15.8757 45.1408 15.8851 45.2977 15.8976V16.1251C45.1626 16.1137 44.9963 16.1043 44.8675 16.1043C44.5079 16.1043 44.3541 16.2415 44.3541 16.5325C44.3541 16.8297 44.4965 16.9627 44.7625 16.9627C44.9361 16.9627 45.1293 16.9274 45.3257 16.8868V17.1123C45.1293 17.1508 44.9246 17.1913 44.7158 17.1913Z" fill="#939598"/>
<path d="M46.0895 16.3738C45.8734 16.3738 45.7902 16.4517 45.7736 16.5941H46.4013C46.394 16.4424 46.3057 16.3738 46.0895 16.3738ZM46.0511 17.1916C45.8983 17.1916 45.7591 17.1729 45.6562 17.0877C45.546 16.9952 45.5066 16.857 45.5066 16.698C45.5066 16.5556 45.5523 16.3977 45.6822 16.3052C45.7965 16.2241 45.942 16.2075 46.0906 16.2075C46.2236 16.2075 46.3805 16.2221 46.4948 16.3021C46.6444 16.407 46.6569 16.5702 46.659 16.7614H45.7726C45.7778 16.9037 45.8536 16.9962 46.1155 16.9962C46.2776 16.9962 46.4584 16.9723 46.6122 16.9484V17.1313C46.4335 17.1604 46.2371 17.1916 46.0511 17.1916Z" fill="#939598"/>
<path d="M47.816 17.1651V16.6497C47.816 16.4803 47.7297 16.419 47.5738 16.419C47.4595 16.419 47.3151 16.4481 47.1935 16.4783V17.1651H46.9337V16.233H47.1457L47.1551 16.2922C47.3192 16.2496 47.5021 16.207 47.6538 16.207C47.7682 16.207 47.8845 16.2237 47.9729 16.3026C48.0466 16.3691 48.0747 16.4616 48.0747 16.5946V17.1651H47.816Z" fill="#939598"/>
<path d="M48.8158 17.1914C48.6901 17.1914 48.5758 17.156 48.5134 17.0583C48.4677 16.9918 48.4449 16.9014 48.4449 16.7757V16.4276H48.2568V16.2343H48.4449L48.4729 15.9517H48.7036V16.2343H49.0704V16.4276H48.7036V16.7269C48.7036 16.7986 48.7088 16.8599 48.7296 16.9046C48.7576 16.9669 48.8179 16.9908 48.899 16.9908C48.9603 16.9908 49.0341 16.9815 49.085 16.9721V17.1581C48.9998 17.1747 48.9021 17.1914 48.8158 17.1914Z" fill="#939598"/>
<path d="M49.3237 17.1651V16.233H49.5357L49.545 16.2922C49.7165 16.2444 49.8443 16.207 50.0064 16.207C50.0137 16.207 50.0251 16.207 50.0396 16.2091V16.4304C50.0105 16.4284 49.9752 16.4284 49.9492 16.4284C49.8214 16.4284 49.7258 16.4429 49.5835 16.4762V17.1651H49.3237V17.1651Z" fill="#939598"/>
<path d="M50.9865 16.7741C50.8773 16.7647 50.7672 16.7596 50.6508 16.7596C50.4607 16.7596 50.3941 16.798 50.3941 16.8853C50.3941 16.9663 50.4492 17.011 50.5957 17.011C50.7173 17.011 50.8638 16.983 50.9875 16.956V16.7741H50.9865ZM51.0415 17.1659L51.0343 17.1108C50.8753 17.1492 50.6913 17.1918 50.5282 17.1918C50.4284 17.1918 50.3214 17.1794 50.2455 17.1233C50.1759 17.0734 50.1427 16.9923 50.1427 16.8978C50.1427 16.7928 50.1884 16.6951 50.2996 16.6452C50.3973 16.5995 50.5282 16.5954 50.6487 16.5954C50.7464 16.5954 50.8773 16.6006 50.9865 16.6078V16.5912C50.9865 16.4457 50.8909 16.3979 50.628 16.3979C50.5261 16.3979 50.4025 16.4031 50.285 16.4146V16.2265C50.416 16.2161 50.5635 16.2078 50.6861 16.2078C50.8483 16.2078 51.0166 16.2202 51.1195 16.294C51.2265 16.3699 51.2473 16.4748 51.2473 16.613V17.1648H51.0415V17.1659Z" fill="#939598"/>
<path d="M51.5817 15.8398H51.8415V17.1648H51.5817V15.8398Z" fill="#939598"/>
</svg>
