<svg width="68" height="17" viewBox="0 0 68 17" fill="none" xmlns="http://www.w3.org/2000/svg">
<path d="M8.13525 2.47967C8.13525 3.89197 10.5872 5.45571 10.5872 7.06876C10.5872 7.06876 10.5872 7.22372 10.5188 7.38926C12.8123 7.85415 14.4361 8.95652 14.4361 10.2455C14.4361 11.9783 11.5413 13.4012 7.95162 13.4118C7.93002 13.4223 7.90482 13.4118 7.88321 13.4118C4.32954 13.4118 1.44556 12.0347 1.44556 10.3125C1.44556 9.02344 3.20619 7.98094 5.33047 7.42447C5.33047 8.13591 7.75 10.3899 7.8076 11.3021C7.8076 11.3021 7.8184 11.3796 7.8184 11.4677C7.8184 11.5134 7.8184 11.5557 7.8076 11.6015C8.32967 11.3338 8.32967 10.5026 8.32967 10.5026C8.32967 8.52684 5.97856 7.64636 5.97856 5.70577C5.97856 4.95207 6.34221 4.39561 6.66985 4.24064V4.78654C6.66985 6.19884 9.21539 7.77315 9.21539 9.06218V9.48481C9.80587 9.26293 9.80587 8.20635 9.80587 8.20635C9.80587 6.42777 7.44395 5.44162 7.44395 3.40946C7.44395 2.65577 7.8076 2.0993 8.13525 1.94434V2.47967Z" fill="#FE0000"/>
<path d="M19.6029 12.8659C18.3643 12.8659 17.4678 12.5207 17.4678 12.5207V10.4217H17.7738C17.9322 11.5311 18.7963 12.3763 19.7829 12.3763C20.7694 12.3763 21.4643 11.8445 21.4643 10.9993C21.4643 10.1012 20.5426 9.6891 19.9305 9.38973L19.0448 8.95653C18.2059 8.54446 17.5254 7.87882 17.5254 6.9455C17.5254 5.77974 18.4111 4.77951 20.1033 4.77951C21.2627 4.77951 22.2168 5.15636 22.2168 5.15636V7.03355H21.9108C21.7307 6.03332 21.1619 5.24441 20.0025 5.24441C19.1384 5.24441 18.6271 5.822 18.6271 6.41017C18.6271 7.17795 19.1708 7.51958 19.8081 7.83303L20.6938 8.26623C21.5003 8.66773 22.4976 9.33338 22.4976 10.4674C22.4976 11.9114 21.4787 12.8659 19.6029 12.8659ZM25.3276 10.5766C25.09 10.6752 24.6687 10.8654 24.6687 11.3972C24.6687 11.686 24.838 12.1545 25.4284 12.1545C25.7129 12.1545 26.1089 11.9995 26.3934 11.7776V10.1329L25.3276 10.5766ZM24.8596 12.8236C24.0891 12.8236 23.5886 12.3235 23.5886 11.5804C23.5886 11.0486 23.9846 10.6365 24.8596 10.3266L26.3934 9.78067V9.31577C26.3934 8.6149 26.0657 8.1817 25.5653 8.1817C25.2232 8.1817 24.8848 8.34724 24.7119 8.6149C24.6435 8.71352 24.6327 8.85792 24.6327 8.97062C24.6327 9.1608 24.7587 9.38269 24.7587 9.38269L24.0098 9.71727C23.9198 9.56231 23.8046 9.32986 23.8046 9.09389C23.8046 9.0481 23.8154 9.00584 23.8154 8.97062C23.873 8.56912 24.2259 8.30497 24.7011 8.02674C25.1656 7.74851 25.5653 7.67102 25.8497 7.67102C27.2791 7.67102 27.5311 8.78043 27.5311 9.15024V11.4501C27.5311 11.8163 27.5635 12.0488 27.8732 12.0488C27.9632 12.0488 28.0208 12.0488 28.1468 12.003L28.4204 11.915V12.2495L26.829 12.8271C26.5914 12.6616 26.4762 12.3622 26.433 12.1051C26.0549 12.4116 25.4068 12.8236 24.8596 12.8236ZM28.7661 12.7109V12.4433L29.1405 12.3763C29.3674 12.3306 29.5258 12.165 29.5258 11.9431V8.97766C29.5258 8.72408 29.3998 8.59025 29.1729 8.59025C29.0937 8.59025 29.0037 8.60082 28.9137 8.63603L28.7661 8.69239V8.3578L30.4007 7.6675H30.6383V8.48811C31.1388 7.94574 31.7293 7.6675 32.2513 7.6675C33.4107 7.6675 33.9652 8.47755 33.9652 9.42143V11.9431C33.9652 12.165 34.1344 12.3446 34.3612 12.3763L34.7465 12.4433V12.7109H32.0425V12.4433L32.417 12.3763C32.6438 12.3306 32.8274 12.165 32.8274 11.9431V9.43199C32.8274 9.09741 32.7374 8.35428 31.8265 8.35428C31.326 8.35428 30.9084 8.65364 30.6563 8.87553V11.9431C30.6563 12.165 30.8364 12.3306 31.0668 12.3763L31.4412 12.4433V12.7109H28.7661ZM38.671 8.34371H37.0796V11.1014C37.0796 11.7107 37.4072 12.0453 37.8861 12.0453C38.0805 12.0453 38.3866 11.9889 38.671 11.834L38.797 12.1016L37.7745 12.7356C37.7745 12.7356 37.5692 12.7673 37.4684 12.7673C36.4819 12.7673 35.9454 12.2002 35.9454 11.0028V8.34724H35.1173V8.069C35.1173 8.069 36.3667 7.60411 36.8564 6.45948H37.0832V7.87177H38.8762L38.671 8.34371ZM41.0509 10.5766C40.8133 10.6752 40.392 10.8654 40.392 11.3972C40.392 11.686 40.5612 12.1545 41.1517 12.1545C41.4362 12.1545 41.8322 11.9995 42.1167 11.7776V10.1329L41.0509 10.5766ZM40.5864 12.8236C39.8159 12.8236 39.3155 12.3235 39.3155 11.5804C39.3155 11.0486 39.7115 10.6365 40.5864 10.3266L42.1203 9.78067V9.31577C42.1203 8.6149 41.7926 8.1817 41.2921 8.1817C40.9501 8.1817 40.6117 8.34724 40.4388 8.6149C40.3704 8.71352 40.3596 8.85792 40.3596 8.97062C40.3596 9.1608 40.4856 9.38269 40.4856 9.38269L39.7367 9.71727C39.6467 9.56231 39.5315 9.32986 39.5315 9.09389C39.5315 9.0481 39.5423 9.00584 39.5423 8.97062C39.5999 8.56912 39.9528 8.30497 40.428 8.02674C40.8925 7.74851 41.2921 7.67102 41.5766 7.67102C43.006 7.67102 43.258 8.78043 43.258 9.15024V11.4501C43.258 11.8163 43.2904 12.0488 43.6001 12.0488C43.6901 12.0488 43.7477 12.0488 43.8737 12.003L44.1473 11.915V12.2495L42.5559 12.8271C42.3183 12.6616 42.2031 12.3622 42.1599 12.1051C41.7782 12.4116 41.1301 12.8236 40.5864 12.8236ZM44.493 12.7109V12.4433L44.8674 12.3763C45.0942 12.3306 45.2527 12.165 45.2527 11.9431V8.97766C45.2527 8.72408 45.1267 8.59025 44.8998 8.59025C44.8206 8.59025 44.7306 8.60082 44.637 8.63603L44.4894 8.69239V8.3578L46.124 7.6675H46.3616V8.48811C46.8621 7.94574 47.4526 7.6675 47.9746 7.6675C49.134 7.6675 49.6885 8.47755 49.6885 9.42143V11.9431C49.6885 12.165 49.8577 12.3446 50.0845 12.3763L50.4698 12.4433V12.7109H47.7658V12.4433L48.1403 12.3763C48.3671 12.3306 48.5507 12.165 48.5507 11.9431V9.43199C48.5507 9.09741 48.4607 8.35428 47.5498 8.35428C47.0493 8.35428 46.6281 8.65364 46.3796 8.87553V11.9431C46.3796 12.165 46.5596 12.3306 46.7901 12.3763L47.1645 12.4433V12.7109H44.493ZM53.8722 8.13592C53.0549 8.13592 52.216 8.6466 52.216 10.1364C52.216 11.3796 52.8533 12.1368 53.8506 12.1368C54.4519 12.1368 54.8263 11.7917 54.92 11.6156V8.72761C54.7687 8.3578 54.3475 8.13592 53.8722 8.13592ZM53.3609 12.8236C52.2952 12.8236 51.0098 12.0453 51.0098 10.3583C51.0098 8.87905 52.18 7.67102 53.7462 7.67102C54.2683 7.67102 54.6427 7.76964 54.9164 7.88234V5.3395C54.9164 5.07183 54.7687 4.99435 54.5887 4.99435C54.4879 4.99435 54.3727 5.01548 54.2719 5.0507L54.045 5.12818V4.7936L55.8165 4.06104H56.0541V11.3796C56.0541 11.8023 56.1225 12.0453 56.4286 12.0453C56.5186 12.0453 56.5762 12.0453 56.7022 11.9995L56.9758 11.9114V12.246L55.3844 12.8236C55.136 12.6581 55.01 12.3446 54.9524 12.0911C54.6571 12.401 54.1206 12.8236 53.3609 12.8236ZM60.958 9.38973V9.3686C60.958 8.53742 60.4827 8.13592 59.9138 8.13592C59.2765 8.13592 58.8013 8.54799 58.6645 9.38973H60.958ZM58.6284 9.84406V9.90041C58.6176 11.3761 59.4818 12.1228 60.5583 12.1228C61.102 12.1228 61.6024 11.922 62.0021 11.6226V12.0664C61.5484 12.4785 60.8535 12.8201 60.0038 12.8201C58.2324 12.8201 57.4475 11.5205 57.4475 10.2878C57.4475 8.84383 58.5708 7.6675 60.0254 7.6675C61.2172 7.6675 62.1497 8.48811 62.1497 9.69966V9.84406H58.6284ZM62.8194 12.7109V12.4433L63.1939 12.3763C63.4099 12.3306 63.5791 12.165 63.5791 11.9431V8.97766C63.5791 8.72408 63.4531 8.59025 63.2263 8.59025C63.147 8.59025 63.057 8.60082 62.967 8.63603L62.8194 8.69239V8.3578L64.4324 7.6675H64.6701V8.74522C65.0769 7.96687 65.5666 7.64637 66.1246 7.64637C66.5783 7.64637 66.6935 7.75907 66.6935 7.75907V8.9354H66.4667C66.4091 8.62547 66.1931 8.4705 65.8546 8.4705C65.491 8.4705 65.0373 8.56912 64.7205 9.21363V11.9467C64.7205 12.1685 64.9473 12.3482 65.1633 12.3799L65.7106 12.4468V12.7144L62.8194 12.7109Z" fill="#FE0000"/>
</svg>
