<svg xmlns="http://www.w3.org/2000/svg" width="45" height="15" viewBox="0 0 45 15"><defs><linearGradient id="a" x1="27.044%" x2="79.263%" y1="0%" y2="100%"><stop offset="0%" stop-color="#6B195F"/><stop offset="100%" stop-color="#4C255B"/></linearGradient></defs><path fill="url(#a)" d="M32.304 3.579c1.02 0 1.846-.801 1.846-1.789 0-.988-.826-1.79-1.846-1.79-1.018 0-1.844.802-1.844 1.79s.826 1.789 1.844 1.789zm-14.137.966c-.084.202-.683 1.845-2.133 3.547V.814l-3.863.74v13.191h3.863v-4.077c1.119 1.627 1.671 4.077 1.671 4.077h4.628c-.458-1.845-2.46-5.247-2.46-5.247 1.797-2.21 2.586-4.563 2.712-4.953h-4.418zm10.156-.138c-3.46.108-5.217 1.613-5.217 4.605v5.733h3.775V10.07c0-1.792.242-2.56 2.435-2.633V4.46c-.37-.076-.993-.052-.993-.052zM5.692 5.997c-.473-.03-1.569-.099-1.569-1.055 0-1.154 1.577-1.154 2.169-1.154 1.04 0 2.387.298 3.35.577 0 0 .536.183.993.371l.042.011v-3.16l-.058-.017C9.483 1.185 8.163.814 5.716.814 1.496.814 0 3.198 0 5.241c0 1.177.52 3.948 5.354 4.267.41.025 1.497.086 1.497 1.074 0 .816-.89 1.297-2.388 1.297-1.64 0-3.232-.406-4.2-.79v3.255c1.448.368 3.08.551 4.992.551 4.126 0 5.974-2.255 5.974-4.49 0-2.536-2.068-4.182-5.537-4.408zm24.74 8.748h3.745V4.556h-3.744v10.19zM41.229 1.464v13.281h3.745V.815l-3.745.649zm-5.465 0l3.742-.65v13.931h-3.742V1.464z"/></svg>