<?xml version="1.0" encoding="UTF-8"?>
<svg width="96px" height="32px" viewBox="0 0 96 32" version="1.1" xmlns="http://www.w3.org/2000/svg" xmlns:xlink="http://www.w3.org/1999/xlink">
    <title>Logos/CreditCards/TED</title>
    <defs>
        <polygon id="path-1" points="0.0405750453 0.0410693878 14.9431053 0.0410693878 14.9431053 29.4955056 0.0405750453 29.4955056"></polygon>
        <polygon id="path-3" points="0 0.0646313456 14.8471865 0.0646313456 14.8471865 29.3979592 0 29.3979592"></polygon>
    </defs>
    <g id="Logos/CreditCards/TED" stroke="none" stroke-width="1" fill="none" fill-rule="evenodd">
        <g id="Group-62" transform="translate(4.000000, 0.000000)">
            <g id="Group-3" transform="translate(12.461224, 0.046686)">
                <mask id="mask-2" fill="white">
                    <use xlink:href="#path-1"></use>
                </mask>
                <g id="Clip-2"></g>
                <path d="M1.72456327,0.0410430612 C1.71368163,0.682971633 1.70437959,1.32498796 1.69121633,1.96691653 C1.68551224,2.24343286 1.8705,2.26107163 2.07374082,2.26107163 C2.61483878,2.26115939 3.15584898,2.26186143 3.69685918,2.2623002 C5.14437959,2.26370429 6.59207551,2.25308592 8.03942041,2.26896959 C11.3938592,2.30565122 14.5021449,5.14180837 14.8578163,8.48641857 C14.9086265,8.96406959 14.9372347,9.44637163 14.937849,9.92656755 C14.9436408,14.0937941 14.9456592,18.2610206 14.9386388,22.4282471 C14.9329347,25.8518369 12.2333245,28.9810084 8.84167755,29.3960022 C7.61617755,29.5459757 6.36338571,29.4799839 5.12296735,29.486741 C5.02003061,29.4872676 4.8382898,29.2985941 4.82477551,29.1824941 C4.71569592,28.2470247 4.72719184,28.2665941 5.68319592,28.2388635 C6.80374082,28.2063941 7.94973469,28.2642247 9.03737143,28.0467676 C11.5515551,27.5439308 13.3619429,25.4126227 13.609149,22.8654431 C13.6499551,22.4449206 13.6756673,22.0210635 13.6761061,21.5986982 C13.6809327,17.6215492 13.6899714,13.6444002 13.674,9.66725122 C13.6656633,7.59456347 12.8527878,5.89694102 11.1671,4.6564349 C10.1490531,3.90726959 8.99068571,3.53545122 7.73175102,3.52316551 C5.88950816,3.50526347 4.04691429,3.52816755 2.20475918,3.51035327 C1.80872041,3.5065798 1.65067347,3.61434306 1.68182653,4.02723082 C1.71473469,4.46346143 1.69990408,4.90451857 1.68024694,5.34232878 C1.67559592,5.44509 1.58125918,5.61077163 1.50394694,5.62621653 C1.40917143,5.64517163 1.23015102,5.56487571 1.18873061,5.47887571 C0.796289796,4.6632798 0.417626531,3.84075122 0.0578306122,3.01032469 C0.0114081633,2.90326347 0.0674836735,2.7282798 0.121804082,2.60489612 C0.433861224,1.8968002 0.763644898,1.19651449 1.0775449,0.489296122 C1.13958776,0.34959 1.15898163,0.190928776 1.19803265,0.0410430612 L1.72456327,0.0410430612 Z" id="Fill-1" fill="#0F76BB" mask="url(#mask-2)"></path>
            </g>
            <g id="Group-6" transform="translate(0.000000, 2.240563)">
                <mask id="mask-4" fill="white">
                    <use xlink:href="#path-3"></use>
                </mask>
                <g id="Clip-5"></g>
                <path d="M1.33596612,13.7311373 C1.33596612,15.9394067 1.32648857,18.1477639 1.33833551,20.3559455 C1.35316612,23.1030312 3.57530082,25.6338884 6.31957837,25.9499822 C7.41713143,26.0763496 8.53530694,26.0329986 9.64435592,26.0477414 C10.6971539,26.0616945 11.7503906,26.041072 12.8031008,26.0560782 C13.1262151,26.0607292 13.2524069,25.9481394 13.2431049,25.6263414 C13.2289763,25.1442149 13.2311702,24.6609476 13.2486335,24.1789088 C13.2524069,24.0721986 13.348762,23.9688231 13.4024682,23.863868 C13.5166376,23.9303863 13.6881988,23.9689986 13.7359376,24.0676353 C14.1111784,24.8429516 14.4715008,25.6259904 14.8130437,26.4167516 C14.8684171,26.5448741 14.8521824,26.7414455 14.7948784,26.8743067 C14.4652702,27.6385659 14.1217967,28.3972088 13.7599824,29.1465496 C13.7050478,29.2601924 13.5295376,29.3155659 13.4097518,29.397968 C13.3535008,29.2805516 13.2553906,29.1655047 13.2486335,29.045368 C13.2273967,28.6662659 13.2415253,28.285321 13.239858,27.9050782 C13.2373131,27.31747 13.231609,27.3100108 12.6576029,27.309221 C10.7564763,27.3065006 8.85508653,27.321419 6.95413551,27.3007088 C3.73694571,27.2657822 0.766698776,24.7662537 0.18611102,21.6021557 C0.0761538776,21.0026129 0.0169191837,20.3852557 0.0147253061,19.7757965 C-1.00851039e-05,15.6664006 -0.00879306122,11.5568292 0.0134089796,7.44752102 C0.0260457143,5.11139245 0.914127347,3.15296184 2.74426,1.6697251 C4.00828449,0.645272041 5.46335184,0.0942577551 7.10130082,0.0733720408 C7.94936612,0.0625781633 8.79778245,0.0775842857 9.64584776,0.0646313456 C9.92754163,0.0604720408 10.0356559,0.15401898 10.0297763,0.444225102 C10.0083641,1.49254755 10.1338539,1.29150061 9.18750286,1.32783122 C8.0960049,1.36969041 6.97861918,1.30641898 5.91994163,1.52212102 C3.09712327,2.09709245 1.28647224,4.72799041 1.33113959,7.19408429 C1.35097224,8.29049653 1.33157837,9.38769857 1.33096408,10.4844618 C1.3303498,11.5666578 1.33078857,12.6488537 1.33078857,13.7311373 L1.33596612,13.7311373 Z" id="Fill-4" fill="#0F76BB" mask="url(#mask-4)"></path>
            </g>
            <polygon id="Fill-7" fill="#0F76BB" points="39.2774549 4.06593082 37.6617957 4.06593082 37.6617957 9.50095531 36.3378345 9.50095531 36.3378345 4.06593082 34.7490284 4.06593082 34.7490284 2.96635939 39.2774549 2.96635939"></polygon>
            <polygon id="Fill-9" fill="#0F76BB" points="38.4202543 16.3869051 36.3647665 16.3869051 36.3647665 18.1192786 38.7972502 18.1192786 38.7972502 19.2143745 35.0452808 19.2143745 35.0452808 12.6797786 38.7882992 12.6797786 38.7882992 13.7794378 36.3647665 13.7794378 36.3647665 15.3232255 38.4202543 15.3232255"></polygon>
            <path d="M36.3647402,23.4050931 L36.3647402,27.7450216 L36.7596382,27.7450216 C37.1995545,27.7450216 37.5092422,27.6290971 37.6887014,27.3971604 C37.8682484,27.1653992 37.9624973,26.7651482 37.9714484,26.1966706 L37.9714484,25.0612073 C37.9714484,24.4507829 37.8861504,24.0251706 37.7156422,23.7842829 C37.5451341,23.5435706 37.2548402,23.4171155 36.8449361,23.4050931 L36.3647402,23.4050931 Z M35.0452545,28.8401176 L35.0452545,22.3055216 L36.7731524,22.3055216 C37.5360953,22.3055216 38.1442382,22.5479012 38.5974933,23.0325727 C39.0508361,23.5172441 39.2819831,24.1815502 39.2909341,25.0252278 L39.2909341,26.0844318 C39.2909341,26.9432033 39.0642627,27.6170747 38.6110076,28.1063094 C38.1577524,28.5954563 37.5331116,28.8401176 36.7372606,28.8401176 L35.0452545,28.8401176 Z" id="Fill-11" fill="#0F76BB"></path>
            <path d="M42.0914451,4.61345245 C42.0016716,4.57466469 41.8849573,4.55509531 41.74139,4.55509531 C41.3882635,4.55509531 41.1114839,4.76009122 40.911139,5.16999531 L40.8752471,4.64486878 L39.6768635,4.64486878 L39.6768635,9.5008851 L40.9515063,9.5008851 L40.9515063,6.29194429 C41.074188,5.9868198 41.3089329,5.83421367 41.6561798,5.83421367 L42.0780186,5.87010551 L42.0914451,4.61345245 Z" id="Fill-13" fill="#FFFFFF"></path>
            <path d="M44.8182331,8.30714367 C44.7703188,8.38498245 44.6970433,8.45229061 44.5983188,8.50906816 C44.4995943,8.56593347 44.3798086,8.59436612 44.2393127,8.59436612 C43.9579698,8.59436612 43.8173861,8.41481918 43.8173861,8.05581306 C43.8173861,7.82545592 43.8795167,7.64143347 44.0036024,7.50374571 C44.1276882,7.36614571 44.297582,7.29734571 44.5130208,7.29734571 L44.8182331,7.29734571 L44.8182331,8.30714367 Z M46.0884004,6.15731918 C46.0884004,5.64281102 45.9424637,5.24703551 45.650678,4.97025592 C45.35898,4.69356408 44.946882,4.55517429 44.4142963,4.55517429 C43.8996127,4.55517429 43.4740004,4.70102327 43.1373718,4.99272122 C42.800831,5.28441918 42.6326045,5.65465796 42.6326045,6.10352531 L43.9026841,6.10352531 C43.9026841,5.73258449 44.0611698,5.54698245 44.3784045,5.54698245 C44.5220596,5.54698245 44.6311392,5.59191306 44.706082,5.68168653 C44.7807616,5.77137224 44.8182331,5.92555796 44.8182331,6.14389265 L44.8182331,6.5343151 L44.4322861,6.5343151 C43.8218616,6.5403702 43.3543902,6.68244571 43.0296963,6.96071714 C42.7050024,7.23898857 42.542831,7.63248245 42.542831,8.14102327 C42.542831,8.56891714 42.6766576,8.91748041 42.9443984,9.18671306 C43.2121392,9.45603347 43.5494698,9.5906498 43.9565657,9.5906498 C44.3454086,9.5906498 44.6536045,9.43514776 44.8810657,9.12396816 C44.9169576,9.30053143 44.9528494,9.42619673 44.9887412,9.50096408 L46.2678596,9.50096408 L46.2678596,9.42461714 C46.154129,9.18838041 46.09428,8.86070286 46.0884004,8.44176 L46.0884004,6.15731918 Z" id="Fill-15" fill="#FFFFFF"></path>
            <path d="M48.2515637,5.97335816 C48.3802127,5.73703367 48.5596718,5.6187398 48.7901167,5.6187398 C48.9966045,5.6187398 49.1407861,5.68087041 49.2231882,5.80504388 C49.3055024,5.92921735 49.3466596,6.12894796 49.3466596,6.40423571 L49.3466596,9.50093776 L50.6212147,9.50093776 L50.6212147,6.30989898 C50.5972576,5.14012347 50.1679596,4.55514796 49.3332331,4.55514796 C48.8693596,4.55514796 48.4939433,4.74513776 48.2067208,5.12511735 L48.170829,4.64492143 L46.9770086,4.64492143 L46.9770086,9.50093776 L48.2515637,9.50093776 L48.2515637,5.97335816 Z" id="Fill-17" fill="#FFFFFF"></path>
            <path d="M53.258238,8.66167429 C53.0368318,8.66167429 52.8774686,8.60638857 52.7803237,8.49555388 C52.6829155,8.38498245 52.6314033,8.2189498 52.6254359,7.99745592 L51.4181012,7.99745592 C51.4181012,8.28467837 51.4950624,8.55250694 51.6491604,8.80076612 C51.8033461,9.04920082 52.0164155,9.24287633 52.2888073,9.38196816 C52.5610237,9.52114776 52.8751869,9.5906498 53.2312094,9.5906498 C53.7608992,9.5906498 54.1887931,9.45901714 54.5148033,9.19575184 C54.8409012,8.93248653 55.0041257,8.58392327 55.0041257,8.15006204 C55.0041257,7.7760498 54.8971522,7.47162735 54.6832053,7.23670694 C54.4691706,7.00187429 54.1034951,6.78871714 53.5858278,6.59723551 C53.2297176,6.44454163 53.0040114,6.32721306 52.9081829,6.24489878 C52.8123543,6.16258449 52.7645278,6.06754571 52.7645278,5.9598702 C52.7645278,5.81033551 52.8078788,5.69362122 52.8946686,5.6098151 C52.9815461,5.52609673 53.0921176,5.4841498 53.2268216,5.4841498 C53.555991,5.4841498 53.7205318,5.68168653 53.7205318,6.07658449 L54.9905237,6.07658449 C54.9905237,5.61279878 54.8305461,5.2433498 54.5104155,4.96806204 C54.1901971,4.69277429 53.7637951,4.55517429 53.2312094,4.55517429 C52.72574,4.55517429 52.3194339,4.69356408 52.0127298,4.97025592 C51.7060257,5.24703551 51.5527176,5.59788041 51.5527176,6.02270286 C51.5527176,6.36082327 51.65074,6.6435702 51.8466094,6.87094367 C52.0425665,7.0984049 52.402538,7.31823143 52.9260849,7.53068653 C53.2821951,7.68627633 53.5117624,7.80974776 53.6150502,7.90092531 C53.7181624,7.99227837 53.7698502,8.0917049 53.7698502,8.19938041 C53.7698502,8.50757633 53.599342,8.66167429 53.258238,8.66167429" id="Fill-19" fill="#FFFFFF"></path>
            <path d="M56.1734361,9.5009202 L57.4479912,9.5009202 L57.4479912,5.59634469 L58.2064586,5.59634469 L58.2064586,4.64490388 L57.4479912,4.64490388 L57.4479912,4.24991816 C57.4479912,3.80113857 57.6364892,3.57674878 58.0134851,3.57674878 C58.1330953,3.57674878 58.2363831,3.59026306 58.3231729,3.61711612 L58.3322116,2.60284265 C58.0987831,2.54299367 57.9073892,2.51306918 57.757679,2.51306918 C57.2640565,2.51306918 56.8773198,2.66198959 56.5974688,2.9596549 C56.317881,3.25740796 56.176332,3.67406918 56.1734361,4.20955082 L56.1734361,4.64490388 L55.5854769,4.64490388 L55.5854769,5.59634469 L56.1734361,5.59634469 L56.1734361,9.5009202 Z" id="Fill-21" fill="#FFFFFF"></path>
            <path d="M60.3206369,5.84768408 C60.4208533,5.68911061 60.5816206,5.60986776 60.8030267,5.60986776 C61.0245206,5.60986776 61.1800227,5.6846351 61.2697961,5.83425755 C61.3595696,5.98388 61.4073961,6.20379429 61.4134512,6.49391265 L61.4134512,6.61062694 L60.1432839,6.61062694 C60.1612737,6.26057184 60.2203329,6.00634531 60.3206369,5.84768408 M60.9422063,9.59070245 C61.2892778,9.59070245 61.6109002,9.52409633 61.9070737,9.39097184 C62.2033349,9.25784735 62.4292165,9.08356571 62.5848063,8.86812694 L62.0866206,8.10062082 C61.8023818,8.39091469 61.4477635,8.53597388 61.022941,8.53597388 C60.7296635,8.53597388 60.5128206,8.45260653 60.3722369,8.28587184 C60.2314778,8.11904939 60.1523227,7.85534531 60.1343329,7.49484735 L62.6610655,7.49484735 L62.6610655,6.87196163 C62.6550982,6.10717592 62.4980165,5.5298351 62.1899084,5.14002694 C61.8817124,4.75004327 61.4224022,4.55513918 60.8120655,4.55513918 C60.1866349,4.55513918 59.706439,4.76311878 59.37139,5.1789902 C59.036341,5.59486163 58.8687288,6.18589224 58.8687288,6.95173102 L58.8687288,7.33767796 C58.8687288,8.06183306 59.0511716,8.61837592 59.4162329,9.00721878 C59.7812941,9.39623714 60.2898349,9.59070245 60.9422063,9.59070245" id="Fill-23" fill="#FFFFFF"></path>
            <path d="M64.7370178,6.29198816 C64.8596994,5.98677592 65.094532,5.83425755 65.4416035,5.83425755 L65.86353,5.87014939 L65.8769565,4.61349633 C65.7872708,4.57462082 65.6705565,4.55513918 65.5269014,4.55513918 C65.1739504,4.55513918 64.8970831,4.76004735 64.6966504,5.16995143 L64.6607586,4.64491265 L63.4624627,4.64491265 L63.4624627,9.50092898 L64.7370178,9.50092898 L64.7370178,6.29198816 Z" id="Fill-25" fill="#FFFFFF"></path>
            <path d="M67.9417902,5.84768408 C68.0419188,5.68911061 68.2027739,5.60986776 68.42418,5.60986776 C68.6456739,5.60986776 68.8011759,5.6846351 68.8909494,5.83425755 C68.9807229,5.98388 69.0285494,6.20379429 69.0345167,6.49391265 L69.0345167,6.61062694 L67.7644371,6.61062694 C67.7824269,6.26057184 67.8414861,6.00634531 67.9417902,5.84768408 M68.5632718,9.59070245 C68.910431,9.59070245 69.2320535,9.52409633 69.5282269,9.39097184 C69.8244004,9.25784735 70.0503698,9.08356571 70.2059596,8.86812694 L69.7077739,8.10062082 C69.4235351,8.39091469 69.0689167,8.53597388 68.6440943,8.53597388 C68.3508167,8.53597388 68.1339739,8.45260653 67.9933902,8.28587184 C67.852631,8.11904939 67.7733882,7.85534531 67.7554861,7.49484735 L70.2822188,7.49484735 L70.2822188,6.87196163 C70.2762514,6.10717592 70.1191698,5.5298351 69.8109739,5.14002694 C69.5028657,4.75004327 69.0435555,4.55513918 68.4332188,4.55513918 C67.8077882,4.55513918 67.3275922,4.76311878 66.9925433,5.1789902 C66.6574065,5.59486163 66.489882,6.18589224 66.489882,6.95173102 L66.489882,7.33767796 C66.489882,8.06183306 66.6723249,8.61837592 67.0373861,9.00721878 C67.4024473,9.39623714 67.9109882,9.59070245 68.5632718,9.59070245" id="Fill-27" fill="#FFFFFF"></path>
            <polygon id="Fill-29" fill="#FFFFFF" points="68.2626404 3.27154531 68.8236588 3.91786163 69.8154669 3.91558 69.8154669 3.86178612 68.6262098 2.60732694 67.899071 2.60732694 66.7322792 3.84388408 66.7322792 3.91558 67.701622 3.91786163"></polygon>
            <path d="M73.3251006,4.55513918 C72.8613149,4.55513918 72.4858986,4.74521673 72.1985884,5.12510857 L72.1626965,4.64491265 L70.9688761,4.64491265 L70.9688761,9.50092898 L72.243519,9.50092898 L72.243519,5.97334939 C72.3720802,5.7370249 72.5516271,5.61881878 72.782072,5.61881878 C72.988472,5.61881878 73.1329169,5.68094939 73.2150557,5.8050351 C73.2974578,5.92920857 73.3385271,6.12893918 73.3385271,6.40422694 L73.3385271,9.50092898 L74.61317,9.50092898 L74.61317,6.30997796 C74.5891251,5.14011469 74.1599149,4.55513918 73.3251006,4.55513918" id="Fill-31" fill="#FFFFFF"></path>
            <path d="M76.8866414,5.8454551 C76.9823822,5.68837347 77.1407802,5.60983265 77.3623618,5.60983265 C77.5627067,5.60983265 77.7063618,5.68319592 77.7931516,5.82974694 C77.8799414,5.97638571 77.924872,6.18585714 77.927768,6.45807347 L79.1216761,6.45807347 C79.1155333,5.85072041 78.9584516,5.38166939 78.6504312,5.05109592 C78.3422353,4.72052245 77.9203088,4.55510408 77.3847394,4.55510408 C76.7503578,4.55510408 76.2709516,4.75562449 75.9464333,5.1564898 C75.6217394,5.55753061 75.4593924,6.13943469 75.4593924,6.90237755 L75.4593924,7.28832449 C75.4654476,8.0453 75.6328843,8.61834082 75.9620537,9.00727143 C76.2912231,9.39620204 76.7683476,9.59066735 77.3936904,9.59066735 C77.8993353,9.59066735 78.3122231,9.42761837 78.6324414,9.10152041 C78.9526598,8.77542245 79.1155333,8.34752857 79.1216761,7.81792653 L77.927768,7.81792653 C77.9218006,8.29671837 77.7347945,8.53602653 77.3668373,8.53602653 C77.2022965,8.53602653 77.0750516,8.49943265 76.9853659,8.42606939 C76.8955924,8.35279388 76.8311802,8.23757143 76.7923924,8.0804898 C76.7534292,7.92340816 76.7340353,7.64741837 76.7340353,7.25243265 L76.7340353,6.75872245 C76.7400027,6.30704694 76.7908129,6.00253673 76.8866414,5.8454551" id="Fill-33" fill="#FFFFFF"></path>
            <polygon id="Fill-35" fill="#FFFFFF" points="79.9857918 9.50089388 81.2603469 9.50089388 81.2603469 4.64487755 79.9857918 4.64487755"></polygon>
            <path d="M80.618629,2.71506388 C80.4091576,2.71506388 80.2416331,2.77789653 80.11588,2.90347408 C79.9903024,3.02922714 79.9274698,3.19078429 79.9274698,3.38823327 C79.9274698,3.58278633 79.9895127,3.74434347 80.1135984,3.87290469 C80.2379473,4.00164143 80.4060861,4.06596592 80.618629,4.06596592 C80.8310841,4.06596592 80.9993106,4.00164143 81.1235718,3.87290469 C81.2477453,3.74434347 81.3097882,3.58278633 81.3097882,3.38823327 C81.3097882,3.19078429 81.2469555,3.02922714 81.1212902,2.90347408 C80.9956249,2.77789653 80.8280127,2.71506388 80.618629,2.71506388" id="Fill-37" fill="#FFFFFF"></path>
            <path d="M84.4673484,8.30714367 C84.4195218,8.38498245 84.3461586,8.45229061 84.2474341,8.50906816 C84.1487096,8.56593347 84.0290994,8.59436612 83.8883402,8.59436612 C83.6071729,8.59436612 83.4665014,8.41481918 83.4665014,8.05581306 C83.4665014,7.82545592 83.528632,7.64143347 83.6528933,7.50374571 C83.776979,7.36614571 83.9466973,7.29734571 84.1621361,7.29734571 L84.4673484,7.29734571 L84.4673484,8.30714367 Z M85.7375157,8.44176 L85.7375157,6.15731918 C85.7375157,5.64281102 85.5917545,5.24703551 85.2997933,4.97025592 C85.0081831,4.69356408 84.5959096,4.55517429 84.0634116,4.55517429 C83.5488157,4.55517429 83.1232912,4.70102327 82.7864871,4.99272122 C82.4500341,5.28441918 82.2817198,5.65465796 82.2817198,6.10352531 L83.5517116,6.10352531 C83.5517116,5.73258449 83.7104606,5.54698245 84.0275198,5.54698245 C84.1711749,5.54698245 84.2803422,5.59191306 84.3551973,5.68168653 C84.4298769,5.77137224 84.4673484,5.92555796 84.4673484,6.14389265 L84.4673484,6.5343151 L84.0814014,6.5343151 C83.4709769,6.5403702 83.0034178,6.68244571 82.6788116,6.96071714 C82.3542933,7.23898857 82.1918586,7.63248245 82.1918586,8.14102327 C82.1918586,8.56891714 82.3257729,8.91748041 82.5936014,9.18671306 C82.8613422,9.45603347 83.1987606,9.5906498 83.605681,9.5906498 C83.9945239,9.5906498 84.3028076,9.43514776 84.530181,9.12396816 C84.5660729,9.30053143 84.6019647,9.42619673 84.6378565,9.50096408 L85.9170627,9.50096408 L85.9170627,9.42461714 C85.8032443,9.18838041 85.7434831,8.86070286 85.7375157,8.44176 L85.7375157,8.44176 Z" id="Fill-38" fill="#FFFFFF"></path>
            <polygon id="Fill-39" fill="#FFFFFF" points="39.5512245 19.2144184 40.8258673 19.2144184 40.8258673 12.3208163 39.5512245 12.3208163"></polygon>
            <path d="M43.3239129,15.5611208 C43.4242169,15.4025473 43.5849843,15.3233045 43.8064782,15.3233045 C44.0277965,15.3233045 44.1833863,15.3980718 44.2731598,15.5476943 C44.3629333,15.6973167 44.4107598,15.917231 44.4168149,16.2074371 L44.4168149,16.3240637 L43.1466476,16.3240637 C43.1646373,15.9740086 43.2236088,15.719782 43.3239129,15.5611208 M43.94557,19.3041392 C44.2925537,19.3041392 44.6142639,19.2375331 44.9105251,19.1044086 C45.2066986,18.9713718 45.4324924,18.7970024 45.58817,18.5815637 L45.0899843,17.8141453 C44.8057455,18.1043514 44.4511271,18.2494106 44.0263047,18.2494106 C43.7331149,18.2494106 43.5160965,18.1660433 43.3756006,17.9993086 C43.2349292,17.8325739 43.1556863,17.568782 43.1376965,17.2082841 L45.6644292,17.2082841 L45.6644292,16.5853984 C45.6584618,15.8206127 45.5012924,15.2433596 45.193272,14.8534637 C44.8849884,14.46348 44.4257659,14.2685759 43.8154292,14.2685759 C43.1899986,14.2685759 42.7098027,14.4765555 42.3747537,14.8924269 C42.0395292,15.3083861 41.8720047,15.899329 41.8720047,16.6651678 L41.8720047,17.0511147 C41.8720047,17.7752698 42.0544476,18.3318127 42.4195965,18.7206555 C42.78457,19.1096739 43.2931986,19.3041392 43.94557,19.3041392" id="Fill-40" fill="#FFFFFF"></path>
            <path d="M46.8522822,17.8932741 C46.8612333,18.833921 47.2755251,19.3041129 48.0955088,19.3041129 C48.3467516,19.3041129 48.5801802,19.2637455 48.795619,19.1829231 L48.80457,18.1955904 C48.7267312,18.2165639 48.6264271,18.2270067 48.5038333,18.2270067 C48.3542108,18.2270067 48.2531169,18.1911149 48.2008149,18.1191557 C48.1485129,18.0471965 48.1223618,17.9153884 48.1223618,17.7235557 L48.1223618,15.3098516 L48.7731537,15.3098516 L48.7731537,14.3583231 L48.1223618,14.3583231 L48.1223618,13.1645027 L46.8522822,13.1645027 L46.8522822,14.3583231 L46.2912639,14.3583231 L46.2912639,15.3098516 L46.8522822,15.3098516 L46.8522822,17.8932741 Z" id="Fill-41" fill="#FFFFFF"></path>
            <path d="M51.9531353,15.5835686 L51.9665618,14.3269155 C51.8768761,14.28804 51.7601618,14.2685584 51.6165067,14.2685584 C51.2633802,14.2685584 50.9866884,14.4735543 50.7862557,14.8834584 L50.7503639,14.3583318 L49.552068,14.3583318 L49.552068,19.2144359 L50.8266231,19.2144359 L50.8266231,16.0054073 C50.9492169,15.7002829 51.1841373,15.5476767 51.5312088,15.5476767 L51.9531353,15.5835686 Z" id="Fill-42" fill="#FFFFFF"></path>
            <path d="M55.5395284,16.7235337 C55.5366324,17.1992541 55.4624794,17.5710724 55.3173324,17.8388133 C55.1722733,18.1066418 54.9725427,18.2404684 54.7183161,18.2404684 C54.4550508,18.2404684 54.2491773,18.1080459 54.1012222,17.8432888 C53.9530039,17.5785316 53.8789386,17.1977622 53.8789386,16.7010684 L53.8789386,16.4946684 C53.8789386,16.0009582 53.9492304,15.6216806 54.0899018,15.3569235 C54.2305733,15.0921663 54.437061,14.9597439 54.7092773,14.9597439 C54.9725427,14.9597439 55.1767488,15.0921663 55.3219835,15.3569235 C55.4669549,15.6216806 55.5395284,16.0009582 55.5395284,16.4946684 L55.5395284,16.7235337 Z M56.5494141,18.0587276 C56.7228182,17.6683051 56.8096957,17.2171561 56.8096957,16.7055439 L56.8052202,16.3106459 C56.7722243,15.5835949 56.5644202,15.0023929 56.1812814,14.5670398 C55.7983182,14.1316867 55.3076794,13.9140541 54.7092773,13.9140541 C54.2992855,13.9140541 53.9343998,14.0202378 53.6142692,14.2326929 C53.2939631,14.445148 53.0464059,14.7480786 52.87151,15.1414847 C52.6963508,15.5349786 52.608859,15.9890235 52.608859,16.5036194 L52.608859,16.7055439 C52.608859,17.2171561 52.6978427,17.670499 52.87581,18.0654847 C53.0539529,18.4603827 53.3037039,18.7626112 53.6254141,18.9720827 C53.9471243,19.1814663 54.3113957,19.2862459 54.7183161,19.2862459 C55.125061,19.2862459 55.4886304,19.1792724 55.808761,18.9653255 C56.1290671,18.7513786 56.3758345,18.4492378 56.5494141,18.0587276 L56.5494141,18.0587276 Z" id="Fill-43" fill="#FFFFFF"></path>
            <polygon id="Fill-44" fill="#FFFFFF" points="53.1743353 13.4227308 53.1743353 13.494339 54.1437659 13.4966206 54.7047843 12.850392 55.2658027 13.4966206 56.2576986 13.494339 56.2576986 13.4406329 55.0683537 12.1861737 54.3413027 12.1861737"></polygon>
            <path d="M61.0977522,19.2144008 L61.0977522,16.0234498 C61.0737951,14.8535865 60.6444094,14.268611 59.8096829,14.268611 C59.3458971,14.268611 58.9703931,14.4586008 58.6831706,14.8385804 L58.6472788,14.3583845 L57.4534584,14.3583845 L57.4534584,19.2144008 L58.7280135,19.2144008 L58.7280135,15.6868212 C58.8566624,15.4504967 59.0362094,15.3322906 59.2666543,15.3322906 C59.4730543,15.3322906 59.6174992,15.3944212 59.699638,15.5185069 C59.7819522,15.6426804 59.8231971,15.842411 59.8231971,16.117611 L59.8231971,19.2144008 L61.0977522,19.2144008 Z" id="Fill-45" fill="#FFFFFF"></path>
            <polygon id="Fill-46" fill="#FFFFFF" points="62.0671653 19.2144184 63.3417204 19.2144184 63.3417204 14.358402 62.0671653 14.358402"></polygon>
            <path d="M62.0088082,13.1017051 C62.0088082,13.2962582 62.070851,13.4578153 62.1949367,13.5863765 C62.3192857,13.7151133 62.4874245,13.7794378 62.6999673,13.7794378 C62.9124224,13.7794378 63.080649,13.7151133 63.2049102,13.5863765 C63.3290837,13.4578153 63.3911265,13.2962582 63.3911265,13.1017051 C63.3911265,12.9042561 63.3282939,12.742699 63.2026286,12.6170337 C63.0769633,12.4912806 62.909351,12.4285357 62.6999673,12.4285357 C62.4904959,12.4285357 62.3229714,12.4912806 62.1972184,12.6170337 C62.0716408,12.742699 62.0088082,12.9042561 62.0088082,13.1017051" id="Fill-47" fill="#FFFFFF"></path>
            <path d="M66.640461,17.5313633 C66.6344059,18.0101551 66.4474876,18.2494633 66.0793549,18.2494633 C65.9149018,18.2494633 65.7876569,18.2128694 65.6979712,18.1395061 C65.6081978,18.0662306 65.5437855,17.9510082 65.5049978,17.7939265 C65.4661222,17.6368449 65.4466406,17.3608551 65.4466406,16.9658694 L65.4466406,16.4722469 C65.4526957,16.0204837 65.5034182,15.7159735 65.5992467,15.5588918 C65.6950753,15.4018102 65.8534733,15.3232694 66.0749671,15.3232694 C66.2753998,15.3232694 66.4189671,15.3966327 66.5058447,15.5431837 C66.5926345,15.6898224 66.6374773,15.8992939 66.640461,16.1715102 L67.8342814,16.1715102 C67.8282263,15.5641571 67.6711447,15.0951061 67.3629488,14.7645327 C67.0549284,14.4339592 66.6330018,14.2685408 66.0974324,14.2685408 C65.4630508,14.2685408 64.9835569,14.4690612 64.6590386,14.8699265 C64.3344324,15.2709673 64.1719978,15.8528714 64.1719978,16.6158143 L64.1719978,17.0017612 C64.1780529,17.7588245 64.3455773,18.3317776 64.6747467,18.7207082 C65.0039161,19.1096388 65.4809529,19.3041041 66.1063835,19.3041041 C66.6119406,19.3041041 67.0248284,19.1411429 67.3450467,18.8149571 C67.6652651,18.4888592 67.8282263,18.0609653 67.8342814,17.5313633 L66.640461,17.5313633 Z" id="Fill-48" fill="#FFFFFF"></path>
            <path d="M70.6885951,18.0205804 C70.6407686,18.0984192 70.5674053,18.1657273 70.4686808,18.2225049 C70.3699563,18.2793702 70.2503461,18.3078029 70.1096747,18.3078029 C69.8285073,18.3078029 69.6878359,18.1283437 69.6878359,17.7692498 C69.6878359,17.5388927 69.7498788,17.3548702 69.87414,17.2171824 C69.9982257,17.0796702 70.1680318,17.0107824 70.3833829,17.0107824 L70.6885951,17.0107824 L70.6885951,18.0205804 Z M71.52104,14.6837804 C71.2295176,14.4070008 70.8172441,14.268611 70.2846584,14.268611 C69.7701502,14.268611 69.344538,14.41446 69.0078216,14.706158 C68.6713686,14.9978559 68.5029665,15.3681824 68.5029665,15.816962 L69.7730461,15.816962 C69.7730461,15.4460212 69.9317073,15.2604192 70.2487665,15.2604192 C70.3924216,15.2604192 70.5016767,15.3053498 70.5764441,15.3951233 C70.6512114,15.484809 70.6885951,15.6389947 70.6885951,15.8573294 L70.6885951,16.2477518 L70.3027359,16.2477518 C69.6922237,16.2538069 69.2247522,16.3958824 68.9000584,16.6741539 C68.57554,16.9524253 68.4131931,17.3459192 68.4131931,17.85446 C68.4131931,18.2824416 68.5471073,18.6310049 68.8149359,18.9002376 C69.0826767,19.1694702 69.4200951,19.3040865 69.8270155,19.3040865 C70.2158584,19.3040865 70.524142,19.1485845 70.7515155,18.8374049 C70.7873196,19.0139682 70.8232992,19.1396335 70.8591033,19.2144008 L72.1383094,19.2144008 L72.1383094,19.1380539 C72.0245788,18.9018171 71.9648176,18.5741396 71.9587624,18.1551967 L71.9587624,15.8707559 C71.9587624,15.3562478 71.8130012,14.9604722 71.52104,14.6837804 L71.52104,14.6837804 Z" id="Fill-49" fill="#FFFFFF"></path>
            <path d="M40.9539722,22.0541822 C40.7445008,22.0541822 40.5769763,22.1170149 40.451311,22.2426802 C40.3256457,22.3683455 40.2628131,22.5299027 40.2628131,22.7273516 C40.2628131,22.9219047 40.3249437,23.0834618 40.4491171,23.2121108 C40.5732029,23.3407598 40.7415171,23.4050843 40.9539722,23.4050843 C41.1663396,23.4050843 41.3346539,23.3407598 41.4588273,23.2121108 C41.5830008,23.0834618 41.6451314,22.9219047 41.6451314,22.7273516 C41.6451314,22.5299027 41.5822988,22.3683455 41.4566335,22.2426802 C41.3309682,22.1170149 41.1633559,22.0541822 40.9539722,22.0541822" id="Fill-50" fill="#FFFFFF"></path>
            <polygon id="Fill-51" fill="#FFFFFF" points="40.3211878 28.8401 41.5957429 28.8401 41.5957429 23.9840837 40.3211878 23.9840837"></polygon>
            <path d="M44.5444722,25.9363188 C44.188362,25.7837127 43.9623927,25.6663841 43.8667396,25.583982 C43.7709988,25.5017555 43.7231722,25.4067167 43.7231722,25.2990412 C43.7231722,25.1494188 43.7665233,25.0327922 43.8533131,24.9489861 C43.9400151,24.8652678 44.0508498,24.8233208 44.1854661,24.8233208 C44.51446,24.8233208 44.6790886,25.0207698 44.6790886,25.4156678 L45.9492559,25.4156678 C45.9492559,24.9519698 45.7890151,24.5825208 45.46906,24.3072331 C45.1488416,24.0319453 44.7224396,23.8942576 44.1899416,23.8942576 C43.684209,23.8942576 43.2780784,24.0327351 42.9713743,24.3094269 C42.6646702,24.5862065 42.5114498,24.9370514 42.5114498,25.3618739 C42.5114498,25.6999943 42.6093845,25.9827412 42.8052539,26.2101147 C43.001211,26.4374882 43.3610069,26.6574024 43.8847294,26.8698576 C44.2406641,27.0254473 44.4703192,27.148831 44.5736069,27.2400963 C44.6768069,27.3313616 44.7284947,27.4308759 44.7284947,27.5385514 C44.7284947,27.8467473 44.5578988,28.0008453 44.2168824,28.0008453 C43.9953886,28.0008453 43.8360253,27.9454718 43.7387927,27.8347249 C43.64156,27.7241535 43.58996,27.5580331 43.5840804,27.3366269 L42.3767457,27.3366269 C42.3767457,27.6237616 42.4537069,27.8915902 42.6078049,28.1399371 C42.7619906,28.3882841 42.97506,28.5819596 43.2474518,28.7211392 C43.5196682,28.860231 43.8338314,28.9298208 44.1899416,28.9298208 C44.7195437,28.9298208 45.147262,28.7981882 45.4734478,28.5349229 C45.7995457,28.2716576 45.9626824,27.9230943 45.9626824,27.4891453 C45.9626824,27.1152208 45.8556212,26.8107984 45.6416743,26.575878 C45.4278151,26.3410453 45.0619641,26.1278882 44.5444722,25.9363188" id="Fill-52" fill="#FFFFFF"></path>
            <path d="M49.3581029,26.5646541 C49.3581029,27.0134337 49.3093988,27.3440949 49.2121661,27.5564622 C49.1149335,27.7690051 48.9407396,27.8751888 48.689409,27.8751888 C48.4170171,27.8751888 48.2240437,27.7704969 48.1104008,27.5610255 L48.1104008,25.2855357 C48.2300988,25.067201 48.4201763,24.9579459 48.6803702,24.9579459 C48.9257335,24.9579459 49.1000151,25.0551786 49.2032151,25.2496439 C49.3064151,25.4441969 49.3581029,25.77635 49.3581029,26.2460153 L49.3581029,26.5646541 Z M49.0528906,23.8942663 C48.6340355,23.8942663 48.3033743,24.0723214 48.0610824,24.4283439 L48.0161518,23.9840398 L46.8403212,23.9840398 L46.8403212,30.7071337 L48.1104008,30.7071337 L48.1104008,28.4496337 C48.349709,28.7697643 48.6669437,28.9298296 49.0619294,28.9298296 C49.5794212,28.9298296 49.9690539,28.7264133 50.2309151,28.3194929 C50.4927763,27.9125724 50.6237069,27.3275969 50.6237069,26.5646541 L50.6237069,26.1921337 C50.6177396,25.4142724 50.4838253,24.8367561 50.2219641,24.4597602 C49.9601029,24.0827643 49.5704702,23.8942663 49.0528906,23.8942663 L49.0528906,23.8942663 Z" id="Fill-53" fill="#FFFFFF"></path>
            <path d="M53.9922392,26.7890614 C53.9592433,27.5131288 53.7289739,27.8751186 53.30108,27.8751186 C52.8372943,27.8751186 52.6054453,27.4413451 52.6054453,26.5736227 L52.6054453,26.2549839 C52.6054453,25.8122594 52.6660841,25.483792 52.7871861,25.2698451 C52.9083759,25.0559859 53.0766024,24.9489247 53.2920412,24.9489247 C53.5165188,24.9489247 53.6900106,25.0559859 53.8126922,25.2698451 C53.9354616,25.483792 53.9967147,25.8122594 53.9967147,26.2549839 L53.9922392,26.7890614 Z M53.2920412,23.8942839 C52.6788086,23.8942839 52.1984371,24.1037553 51.8513657,24.5226104 C51.5042943,24.9415533 51.3308024,25.5188941 51.3308024,26.2549839 L51.3308024,26.5646716 C51.3308024,27.3067288 51.5035922,27.8863512 51.8490841,28.3038022 C52.1947514,28.7211655 52.6788086,28.9298471 53.30108,28.9298471 C53.9204555,28.9298471 54.402231,28.7219553 54.746231,28.3059961 C55.0903188,27.8901247 55.2624065,27.3126961 55.2624065,26.5736227 L55.2624065,26.2639349 C55.2624065,25.5219655 55.0888269,24.9415533 54.7417555,24.5226104 C54.3945963,24.1037553 53.9114167,23.8942839 53.2920412,23.8942839 L53.2920412,23.8942839 Z" id="Fill-54" fill="#FFFFFF"></path>
            <path d="M58.4647569,23.8943014 C58.0009712,23.8943014 57.6255549,24.084379 57.3383324,24.4642708 L57.3023529,23.9839871 L56.1085324,23.9839871 L56.1085324,28.8400912 L57.3831753,28.8400912 L57.3831753,25.3125116 C57.5118243,25.0761871 57.6913712,24.957981 57.9218161,24.957981 C58.1282161,24.957981 58.272661,25.0201116 58.354712,25.1441973 C58.4371141,25.2683708 58.4782712,25.4681014 58.4782712,25.7433014 L58.4782712,28.8400912 L59.7529141,28.8400912 L59.7529141,25.6491402 C59.7288692,24.4792769 59.2995712,23.8943014 58.4647569,23.8943014" id="Fill-55" fill="#FFFFFF"></path>
            <polygon id="Fill-56" fill="#FFFFFF" points="60.823851 28.8401 62.0940184 28.8401 62.0940184 23.9840837 60.823851 23.9840837"></polygon>
            <polygon id="Fill-57" fill="#FFFFFF" points="63.1082304 22.0138237 61.6855447 22.0138237 60.7969365 23.4028114 61.8695671 23.4050931"></polygon>
            <polygon id="Fill-58" fill="#FFFFFF" points="64.8427627 27.0448676 64.2278627 23.9840573 62.8994259 23.9840573 64.2369014 28.8400737 65.4486239 28.8400737 66.7816239 23.9840573 65.4575749 23.9840573"></polygon>
            <path d="M69.8987114,25.9497716 L68.6286318,25.9497716 C68.6465339,25.5997165 68.7056808,25.34549 68.8059849,25.1868288 C68.9060257,25.0282553 69.0668808,24.9489247 69.2883747,24.9489247 C69.5097808,24.9489247 69.6653706,25.0237798 69.7551441,25.1733145 C69.8449176,25.3230247 69.8927441,25.542939 69.8987114,25.8330573 L69.8987114,25.9497716 Z M69.2973257,23.8942839 C68.6719829,23.8942839 68.1917869,24.1022635 67.8566502,24.5181349 C67.5216012,24.9340063 67.3540767,25.5249492 67.3540767,26.2908757 L67.3540767,26.6768227 C67.3540767,27.4009778 67.5365196,27.9574329 67.9015808,28.3464512 C68.266642,28.7353818 68.7751829,28.9298471 69.4274665,28.9298471 C69.7746257,28.9298471 70.0962482,28.863241 70.3924216,28.7301165 C70.6885951,28.5970798 70.9145645,28.4227104 71.0701543,28.2072716 L70.5719686,27.4397655 C70.2877298,27.7300594 69.9331114,27.8751186 69.508289,27.8751186 C69.2150114,27.8751186 68.9981686,27.7917512 68.8575849,27.6250165 C68.7168257,27.4581941 68.6375829,27.1945778 68.6196808,26.8339043 L71.1464135,26.8339043 L71.1464135,26.2111063 C71.1403584,25.4463206 70.9832767,24.8690676 70.6751686,24.4790839 C70.3670604,24.089188 69.9077502,23.8942839 69.2973257,23.8942839 L69.2973257,23.8942839 Z" id="Fill-59" fill="#FFFFFF"></path>
            <polygon id="Fill-60" fill="#FFFFFF" points="71.9228531 28.8401 73.1974082 28.8401 73.1974082 21.946498 71.9228531 21.946498"></polygon>
            <path d="M14.5937612,20.4809 L16.9249755,20.4809 L16.9249755,13.9140102 L14.5937612,13.9140102 L14.5937612,20.4809 Z M10.2432143,20.4809 L12.8323408,20.4809 L12.8323408,13.9140102 L10.2432143,13.9140102 L10.2432143,20.4809 Z M13.713051,8.18377755 L6.10380612,11.7167102 L6.10380612,13.1644939 L6.10380612,13.9140102 L8.48170612,13.9140102 L8.48170612,20.4809 L6.10380612,20.4809 L6.10380612,23.404198 L21.3222959,23.404198 L21.3222959,20.4809 L18.6864837,20.4809 L18.6864837,13.9140102 L21.3222959,13.9140102 L21.3222959,12.8413796 L21.3222959,11.7167102 L13.713051,8.18377755 Z" id="Fill-61" fill="#8DB63C"></path>
        </g>
    </g>
</svg>