<svg xmlns="http://www.w3.org/2000/svg" width="160" height="71"><defs><linearGradient id="a" x1="-.033%" x2="99.961%" y1="49.984%" y2="49.984%"><stop offset="6.489%" stop-color="#EF7422"/><stop offset="83.17%" stop-color="#AE3324"/></linearGradient><linearGradient id="b" x1=".062%" x2="100.042%" y1="49.915%" y2="49.915%"><stop offset="43.02%" stop-color="#BCBDBF"/><stop offset="65.03%" stop-color="#FFF"/><stop offset="100%" stop-color="#A7A8AB"/></linearGradient><linearGradient id="c" x1="49.999%" x2="49.999%" y1="5.021%" y2="101.992%"><stop offset="0%" stop-color="#59595C" stop-opacity=".4"/><stop offset=".711%" stop-color="#656567" stop-opacity=".432"/><stop offset="3.372%" stop-color="#8B8D8C" stop-opacity=".554"/><stop offset="5.996%" stop-color="#A9ACA9" stop-opacity=".674"/><stop offset="8.538%" stop-color="#BFC2BD" stop-opacity=".79"/><stop offset="10.96%" stop-color="#CCCFCA" stop-opacity=".901"/><stop offset="13.14%" stop-color="#D0D4CE"/><stop offset="47.76%" stop-color="#D1D2D3"/><stop offset="68.84%" stop-color="#424143" stop-opacity=".1"/><stop offset="70.92%" stop-color="#585959" stop-opacity=".191"/><stop offset="74.88%" stop-color="#7E817E" stop-opacity=".364"/><stop offset="78.79%" stop-color="#9BA09B" stop-opacity=".535"/><stop offset="82.57%" stop-color="#B0B6B0" stop-opacity=".701"/><stop offset="86.18%" stop-color="#BDC3BD" stop-opacity=".858"/><stop offset="89.42%" stop-color="#C1C8C1"/><stop offset="100%" stop-color="#373430"/></linearGradient><linearGradient id="d" x1="52.826%" x2="32.859%" y1="45.569%" y2="94.661%"><stop offset="0%" stop-color="#DF5826"/><stop offset="100%" stop-color="#FAAF3A"/></linearGradient><linearGradient id="e" x1="-5.087%" x2="95.831%" y1="84.177%" y2="42.194%"><stop offset="0%" stop-color="#DA8927"/><stop offset="100%" stop-color="#BB4026"/></linearGradient><linearGradient id="f" x1="50.765%" x2="49.966%" y1="-24.223%" y2="60.77%"><stop offset="0%" stop-color="#E35B25"/><stop offset="100%" stop-color="#FAAF3A"/></linearGradient><linearGradient id="g" x1="95.112%" x2="-7.137%" y1="50.634%" y2="48.107%"><stop offset="0%" stop-color="#E35B25"/><stop offset="100%" stop-color="#FAAF3A"/></linearGradient><linearGradient id="h" x1="-8.318%" x2="83.402%" y1="21.866%" y2="57.898%"><stop offset="0%" stop-color="#DA8927"/><stop offset="100%" stop-color="#BB4026"/></linearGradient><linearGradient id="i" x1=".994%" x2="138.38%" y1="14.978%" y2="143.202%"><stop offset="6.489%" stop-color="#EEA032"/><stop offset="83.17%" stop-color="#F16122"/></linearGradient><linearGradient id="j" x1="5.006%" x2="76.452%" y1="112.09%" y2="5.644%"><stop offset="6.489%" stop-color="#EEA032"/><stop offset="83.17%" stop-color="#F16122"/></linearGradient><linearGradient id="k" x1="64.341%" x2="44.937%" y1="80.831%" y2="32.326%"><stop offset="0%" stop-color="#E35B25"/><stop offset="100%" stop-color="#FAAF3A"/></linearGradient></defs><g fill="none"><path fill="#EDEDED" d="M65.763 22.161c4.12 0 6.042 2.03 5.236 5.81-.434 2.03-1.704 3.505-3.346 4.366 1.642.83 2.479 2.398 1.983 4.826-.899 4.12-3.842 6.026-8.241 6.026h-9.109l4.493-21.028h8.984zm-4.616 17.154c1.549 0 2.54-.707 2.912-2.397.341-1.753-.31-2.398-1.89-2.398h-2.478l-1.023 4.795h2.479zm1.797-8.73c1.301 0 2.169-.861 2.478-2.275.31-1.476-.216-2.275-1.487-2.275H61.55l-.96 4.55h2.354zm24.32-8.424c.062.43.031 1.168-.124 1.968-.216.86-.464 1.66-.774 2.152h-7.993l-.899 4.273h6.537a6.883 6.883 0 01-.124 1.998c-.216.922-.464 1.507-.743 2.03h-6.537l-.96 4.488h8.302c.062.491.031 1.26-.155 2.029-.185.83-.402 1.567-.743 2.09H69.17l4.492-21.028h13.601zm17.32 0s.092.922-.218 2.275a10.476 10.476 0 01-.774 2.306h-4.988l-3.47 16.17s-1.24.277-2.85.277c-1.767 0-2.727-.277-2.727-.277l3.47-16.17h-5.143s-.124-.892.186-2.244c.31-1.415.805-2.337.805-2.337h15.708zm6.908 0c2.448 0 3.532.277 3.532.277l2.045 20.505s-1.023.277-2.944.277c-1.735 0-2.633-.277-2.633-.277l-.34-3.843h-6.786l-2.014 3.843s-1.053.277-2.757.277c-1.642 0-2.602-.277-2.602-.277l10.812-20.505s1.332-.277 3.687-.277zm-1.24 4.857s-.464 1.66-1.455 3.567l-2.479 4.672h4.461l-.402-4.672c-.186-1.937 0-3.567 0-3.567h-.124zm15.615 6.303c-.495-2.92-.433-5.472-.433-5.472h-.155s-.217 2.52-.899 5.81l-1.982 9.284s-.868.277-2.51.277c-1.58 0-2.262-.277-2.262-.277l4.369-20.505s1.27-.277 3.78-.277c2.478 0 3.5.277 3.5.277l1.704 9.5c.434 2.828.403 6.025.403 6.025h.124s.372-3.136 1.084-6.364l1.952-9.13s1.054-.277 2.51-.277c1.518 0 2.292.277 2.292.277l-4.368 20.505s-1.177.276-3.687.276c-2.323 0-3.594-.276-3.594-.276l-1.828-9.653zm24.104-11.529c5.67 0 8.52 3.75 6.878 11.375-1.611 7.624-5.7 10.39-11.401 10.39-5.7 0-8.458-3.688-6.847-11.282 1.611-7.531 5.7-10.483 11.37-10.483zm-.805 4.181c-2.076 0-3.563 1.291-4.74 6.702-1.147 5.41-.217 6.671 1.89 6.671 2.137 0 3.593-1.291 4.74-6.67 1.177-5.412.247-6.703-1.89-6.703z"/><g fill="#FFF" opacity=".6"><path d="M139.344 22.438s-.774-.277-2.292-.277c-1.456 0-2.51.277-2.51.277l-1.394 6.579 4.833-.246 1.363-6.333zM150.002 21.792c-4.678 0-8.241 1.999-10.286 6.887l6.104-.308c.93-1.844 2.013-2.398 3.377-2.398 1.332 0 2.168.492 2.354 2.121l5.7-.276c-.526-4.027-3.128-6.026-7.249-6.026zM84.011 30.554h-6.537l.899-4.273h7.993c.279-.492.558-1.292.774-2.152.155-.8.186-1.507.124-1.968h-13.6l-2.138 9.93 12.454-.615a3.16 3.16 0 00.031-.922zM71.03 27.972c.806-3.751-1.115-5.81-5.236-5.81H56.78l-2.324 10.79 13.322-.677c1.58-.86 2.82-2.305 3.253-4.303zm-5.608.338c-.31 1.445-1.177 2.275-2.478 2.275h-2.386l.96-4.55h2.386c1.302 0 1.86.768 1.518 2.275zM98.635 26.742h4.988s.495-.984.774-2.306c.31-1.353.217-2.275.217-2.275H88.875s-.495.922-.805 2.337c-.279 1.352-.186 2.244-.186 2.244h5.143l-.93 4.304 5.64-.277.898-4.027zM125.279 27.849h.155s0 .614.03 1.567l5.02-.246-1.209-6.701s-1.022-.277-3.5-.277c-2.51 0-3.78.277-3.78.277l-1.55 7.193 4.617-.246c.155-.983.217-1.567.217-1.567zM110.253 27.018h.124s-.155 1.384-.031 3.136l5.421-.276-.743-7.44s-1.084-.277-3.532-.277c-2.355 0-3.687.277-3.687.277l-4.244 8.054 5.422-.276c.867-1.753 1.27-3.198 1.27-3.198z"/></g><g fill="#949B95" opacity=".1"><path d="M89.557 42.912s.96.277 2.726.277c1.611 0 2.85-.277 2.85-.277l.651-2.982-5.514-.307-.713 3.29zM111.492 42.912s.868.277 2.633.277c1.921 0 2.944-.277 2.944-.277l-.186-1.813-5.577-.308.186 2.121zM96.993 42.912s.93.277 2.602.277c1.704 0 2.757-.277 2.757-.277l1.333-2.551-5.174-.277-1.518 2.828zM75.646 39.07l.062-.277-5.514-.308-.992 4.704h13.88c.31-.523.558-1.291.743-2.09a6.504 6.504 0 00.155-1.814l-3.408-.185h-4.926v-.03zM145.448 43.558c1.487 0 2.881-.185 4.151-.615l-8.612-.492c1.177.738 2.664 1.107 4.46 1.107zM117.626 42.912s.682.277 2.262.277c1.611 0 2.51-.277 2.51-.277l.31-1.475-4.71-.277-.372 1.752zM61.395 43.189c3.903 0 6.692-1.506 7.87-4.765l-5.67-.307c-.527.83-1.333 1.198-2.448 1.198h-2.479l.31-1.444-5.515-.308-1.208 5.626h9.14zM127.664 42.912s1.27.277 3.594.277c2.51 0 3.687-.277 3.687-.277l.155-.799-7.652-.43.216 1.23z"/></g><g fill="#949B95" opacity=".1"><path d="M89.681 42.912s.96.277 2.726.277c1.611 0 2.85-.277 2.85-.277l.651-2.982-5.514-.307-.713 3.29zM111.585 42.912s.867.277 2.602.277c1.921 0 2.944-.277 2.944-.277l-.186-1.813-5.577-.308.217 2.121zM97.117 42.912s.929.277 2.571.277c1.704 0 2.757-.277 2.757-.277l1.333-2.551-5.174-.277-1.487 2.828zM75.801 39.07l.062-.277-5.515-.308-.99 4.704h13.848c.31-.523.557-1.291.743-2.09.155-.677.186-1.322.155-1.814l-3.377-.185h-4.926v-.03zM145.479 43.558c1.487 0 2.881-.185 4.12-.615l-8.582-.492c1.178.738 2.665 1.107 4.462 1.107zM117.688 42.912s.682.277 2.262.277c1.611 0 2.51-.277 2.51-.277l.31-1.475-4.71-.277-.372 1.752zM61.55 43.189c3.903 0 6.66-1.506 7.869-4.734l-5.67-.308c-.526.83-1.332 1.2-2.416 1.2h-2.479l.31-1.446-5.515-.307-1.208 5.626h9.109v-.031zM127.726 42.912s1.27.277 3.594.277c2.51 0 3.656-.277 3.656-.277l.155-.799-7.652-.43.247 1.23z"/></g><g><path fill="url(#a)" d="M46.194 31.111a10.21 10.21 0 00-.744-1.414c-.34-.553-.744-1.107-1.115-1.63-.155-.214-.341-.46-.496-.737-.248-.43-.155-.953.155-1.383 3.067-4.304 2.757-8.608 1.983-11.098-.992-3.228-4.152-6.456-8.117-8.854-2.572-1.537-5.36-2.798-8.21-3.812C27.573 1.445 25.497.83 23.33.46 21.903.215 20.385.123 18.96.37c-2.044.184-4.213.615-6.227 1.014-2.354.43-5.08.769-6.94 2.398C4.06 5.257 3.068 7.41 2.449 9.561 1.3 13.588.713 17.738.434 21.889c-.28 4.12-.28 8.3-.124 12.42.093 2.397.34 4.826.774 7.193.589 3.044 1.58 6.21 3.47 8.731a8.206 8.206 0 001.797 1.783c1.766 1.26 4.028 1.476 6.135 1.691 4.09.369 8.334 1.66 12.392.338a41.212 41.212 0 003.191-.891 54.614 54.614 0 005.887-2.368 36.636 36.636 0 005.793-3.412c1.735-1.26 3.377-2.736 4.71-4.427 1.27-1.63 2.013-3.412 2.478-5.38.062-.215.124-.46.155-.707.217-1.937-.155-3.966-.898-5.749zm-22.06 6.518c-.619.46-1.3.86-1.982 1.26-1.766.984-3.656 1.998-5.608 2.552a7.656 7.656 0 01-2.045.307c-.124 0-1.487-.03-1.487-.123-2.54-14.018 0-28.406 0-28.406.186-.338 1.952-.03 2.138 0 1.55.277 3.036.892 4.492 1.507 1.333.584 2.665 1.168 3.873 1.967 1.487.984 3.315 2.644 3.501 4.52.186 1.598-.34 2.858-1.146 4.242-.28.492-.837 1.076-.744 1.69.124.708.713 1.322 1.146 1.876.372.492.713 1.045.93 1.63 1.146 2.827-.899 5.41-3.067 6.978z" transform="translate(.144 8.05)"/><path fill="#373430" d="M46.307 39.162a12.318 12.318 0 00-.744-1.414c-.34-.554-.743-1.107-1.115-1.63-.155-.215-.34-.46-.496-.738-.248-.43-.155-.922.155-1.383 3.067-4.304 2.757-8.608 1.983-11.098-.992-3.228-4.152-6.456-8.117-8.854-2.572-1.537-5.36-2.797-8.21-3.812-2.076-.738-4.152-1.353-6.32-1.721-1.426-.246-2.944-.339-4.37-.093-2.044.185-4.213.615-6.226 1.015-2.355.43-5.05.8-6.94 2.398-1.952 1.66-2.727 3.627-3.346 5.78C1.414 21.638.826 25.788.547 29.938c-.279 4.12-.279 8.3-.124 12.42.093 2.398.34 4.827.806 7.194.588 3.043 1.58 6.21 3.47 8.7a8.206 8.206 0 001.796 1.783c1.766 1.26 4.028 1.475 6.135 1.69 4.09.37 8.334 1.66 12.392.339a41.212 41.212 0 003.191-.892 57.827 57.827 0 005.918-2.367 35.017 35.017 0 005.763-3.412c1.735-1.26 3.377-2.736 4.709-4.427 1.27-1.63 2.014-3.413 2.478-5.38.062-.215.124-.461.155-.707.186-1.937-.186-3.935-.93-5.718zM42.03 51.274s-3.129 3.966-13.074 7.747c0 0-5.484 2.306-8.706 1.568 0 0-3.996-.369-5.948-4.488 0 0-2.54-3.382-3.067-18.107 0 0 0-15.68 2.726-22.104 0 0 1.797-5.872 7.931-5.718 0 0 7.498.369 16.885 6.394 0 0 8.117 4.243 5.763 13.066 0 0-.837 2.213-2.54 4.642 0 0-.496.676.092 1.322 0 0 3.749 4.058 3.563 7.808.031.062.434 4.212-3.625 7.87z"/><path fill="url(#b)" d="M46.163 31.111a12.318 12.318 0 00-.744-1.414c-.34-.553-.744-1.107-1.115-1.63-.155-.214-.341-.46-.496-.737-.248-.43-.124-.922.186-1.353 3.067-4.304 2.726-8.638 1.952-11.098-.992-3.228-4.152-6.456-8.148-8.853-2.572-1.538-5.36-2.798-8.21-3.813-2.076-.737-4.152-1.352-6.32-1.721C21.841.246 20.323.154 18.897.4c-2.044.184-4.213.614-6.227 1.014-2.354.43-5.08.769-6.94 2.398-2.2 1.906-2.726 3.628-3.345 5.78C1.239 13.619.65 17.769.372 21.919c-.28 4.12-.28 8.3-.124 12.42.093 2.398.34 4.827.774 7.194.589 3.044 1.58 6.21 3.47 8.73a8.206 8.206 0 001.797 1.784c1.766 1.26 4.028 1.476 6.135 1.69 4.09.37 8.334 1.66 12.392.339a41.212 41.212 0 003.191-.892 57.827 57.827 0 005.918-2.367c2.014-.953 3.996-2.06 5.793-3.381 1.735-1.26 3.377-2.737 4.679-4.427 1.27-1.63 2.013-3.444 2.478-5.411.062-.215.124-.461.155-.707.279-1.998-.124-3.997-.867-5.78zm-3.873 12.82s-3.408 4.027-13.725 7.993c0 0-5.639 2.275-8.954 1.506 0 0-4.213-.246-6.258-4.519 0 0-2.633-3.504-3.16-18.814 0 0 0-16.263 2.82-22.934 0 0 1.796-5.964 8.178-5.78 0 0 7.808.246 17.567 6.487 0 0 8.706 4.58 6.258 13.711 0 0-.495 1.906-2.323 4.55 0 0-.496.707-.155 1.107 0 0 3.903 4.519 3.749 8.423-.031 0 .247 4.458-3.997 8.27z" transform="translate(.144 8.05)"/><path fill="#FAAF3A" d="M42.093 38.209c-.31-.461-.588-.923-.898-1.353-.465-.646-.899-1.107-1.054-1.906-.03-.184.093-.86.248-1.107 2.417-3.412 3.222-5.349 2.882-8.3-.96-8.393-13.942-12.113-16.823-13.035-8.242-2.613-10.875.4-12.3 4.95-.34.983-.682 2.152-.992 3.812.186-.339 1.921.061 2.107.092 1.363.277 3.036.891 4.462 1.506 1.332.554 2.633 1.168 3.872 1.968 1.487.984 3.284 2.613 3.501 4.519.186 1.599-.34 2.859-1.146 4.212-.279.492-.806 1.076-.744 1.66.124.707.713 1.322 1.147 1.875.371.492.65 1.045.898 1.63 1.146 2.735-.898 5.349-3.036 6.916-.62.462-1.301.861-1.952 1.23-1.766.984-3.625 1.998-5.608 2.521a7.473 7.473 0 01-2.044.307c-.124 0-1.426-.03-1.457-.123.341 1.753.62 2.952.806 3.597 1.363 4.642 3.656 6.518 7.807 6.18 3.842-.308 22.245-6.026 22.245-16.048-.03-1.875-.867-3.535-1.92-5.103z"/><path fill="url(#c)" d="M14.716 52.693c-3.377-2.49-4.461-7.071-5.019-10.945a107.956 107.956 0 01-.557-4.427c-.124-1.106-.217-2.213-.31-3.32-.28-3.781-.341-7.593-.062-11.375.093-1.322.186-2.613.31-3.935.185-1.721.371-3.443.65-5.134.868-4.98 2.324-10.82 7.622-12.85A4.11 4.11 0 0118.558.4c-2.045.215-3.966.553-5.98.922-2.354.461-4.957.8-6.815 2.429-2.045 1.813-2.85 3.627-3.47 5.78C1.146 13.556.558 17.707.279 21.888c-.279 4.12-.155 8.33 0 12.45a50.21 50.21 0 00.774 7.133c.589 3.043 1.457 6.271 3.346 8.792a8.206 8.206 0 001.797 1.783c1.766 1.26 4.028 1.476 6.135 1.69 4.09.37 8.334 1.66 12.392.339-3.377.8-7.094.768-10.007-1.383z" transform="translate(.144 8.05)"/><path fill="url(#d)" d="M13.787 13.096s-.031-3.474 3.687-8.761c0 0 2.54-2.152 9.542.338 1.642.522 8.985 2.613 13.26 7.07 0 0 1.766 1.753 2.448 3.813l-15.801 5.472s0-.062-.031-.185c-.155-.522-.805-2.213-2.788-3.597-.558-.4-1.085-.768-1.673-1.075-.062-.031-.124-.062-.155-.093-.992-.584-2.603-1.23-2.603-1.23s-3.748-1.629-5.886-1.752z" opacity=".7" transform="translate(.144 8.05)"/><path fill="url(#e)" d="M25.777 25.516s9.325-1.383 15.552-1.352c0 0 1.58-2.275 1.828-4.52 0 0 .248-2.152-.495-4.088L26.86 21.028s.155.492.031 1.537c0 .061 0 .092-.031.154-.062.737-.372 1.69-1.084 2.797z" opacity=".85" transform="translate(.144 8.05)"/><path fill="url(#f)" d="M40.369 25.578s1.797-2.521 2.076-3.443L26.55 23.979s-.681 1.506-1.115 2.06l14.933-.461z" transform="translate(.144 8.05)"/><path fill="#CB5827" d="M25.58 34.09l14.933-.462s-.496.615-.34 1.476l-14.996-.062c.031 0 .062-.43.403-.953z" opacity=".85"/><path fill="url(#g)" d="M25.064 26.992l14.995.061s.217.584 1.147 1.876c.464.707 2.137 3.074 2.416 4.488 0 0-7.033-1.383-16.358-2.336 0 0-.899-1.968-1.425-2.521-.031 0-.96-1.015-.775-1.568z" transform="translate(.144 8.05)"/><path fill="url(#h)" d="M27.233 31.08s8.582.861 16.358 2.337c0 0 1.301 3.29-1.642 7.347L26.49 35.14s1.394-1.876.744-4.058z" opacity=".85" transform="translate(.144 8.05)"/><path fill="url(#i)" d="M13.322 41.656l4.74 9.284s-1.084-.307-1.92-1.26c0 0-.59-.554-1.147-1.537-.124-.216-.465-.769-.867-1.906-.093-.277-.558-1.63-.744-2.736a65.826 65.826 0 01-.372-1.876s.062 0 .31.031z" transform="translate(.144 8.05)"/><path fill="url(#j)" d="M13.787 13.096s.062-1.967 1.394-4.826c.558-1.138 1.766-3.228 2.293-3.935 0 0-1.735.799-2.82 3.35-.279.585-.991 2.583-1.27 3.751-.217.892-.372 1.568-.372 1.783 0 0 .186-.184.775-.123z" transform="translate(.144 8.05)"/><path fill="url(#k)" d="M26.49 35.139l15.46 5.625s-1.395 2.09-4.648 4.335c-.341.215-.682.461-1.023.676-.65.4-1.363.83-2.168 1.26a41.696 41.696 0 01-4.12 1.907c-.558.215-3.997 1.63-7.25 2.244-.558.092-2.603.523-4.648-.246l-4.77-9.284s1.331.123 2.168-.03c.712-.154 1.89-.308 4.647-1.692.837-.43 2.726-1.506 2.943-1.66.217-.153 1.673-1.014 2.572-2.06.31-.4.434-.522.836-1.075z" opacity=".85" transform="translate(.144 8.05)"/></g><g fill="#FFF" opacity=".6"><path d="M139.375 22.469s-.774-.277-2.292-.277c-1.425 0-2.51.277-2.51.277l-1.394 6.548 4.833-.246 1.363-6.302zM150.002 21.823c-4.647 0-8.241 1.998-10.255 6.856l6.073-.308c.93-1.844 2.013-2.398 3.346-2.398 1.3 0 2.168.492 2.354 2.121l5.7-.276c-.495-3.997-3.097-5.995-7.218-5.995zM84.135 30.554H77.63l.899-4.243h7.993c.279-.491.558-1.29.774-2.152.155-.799.186-1.506.124-1.967H73.85l-2.106 9.899 12.454-.615c-.03-.338-.03-.645-.062-.922zM71.154 28.002c.806-3.75-1.115-5.81-5.236-5.81h-8.985l-2.292 10.76 13.29-.677c1.581-.86 2.82-2.274 3.223-4.273zm-5.577.308c-.31 1.414-1.177 2.275-2.478 2.275h-2.386l.96-4.55h2.386c1.332 0 1.86.799 1.518 2.275zM98.728 26.773h4.988s.495-.984.774-2.306c.279-1.353.217-2.275.217-2.275H89s-.495.922-.805 2.336c-.279 1.353-.186 2.245-.186 2.245h5.143l-.93 4.303 5.64-.276.867-4.027zM125.34 27.849h.156s0 .614.03 1.537l5.02-.246-1.209-6.702s-1.022-.277-3.5-.277c-2.51 0-3.75.277-3.75.277l-1.548 7.194 4.616-.246c.124-.953.186-1.537.186-1.537zM110.346 27.05h.124s-.155 1.383-.031 3.135l5.421-.277-.743-7.44s-1.084-.276-3.532-.276c-2.355 0-3.656.277-3.656.277l-4.275 8.023 5.39-.276c.899-1.722 1.302-3.167 1.302-3.167z" opacity=".1"/></g></g></svg>